<svg xmlns="http://www.w3.org/2000/svg" xmlns:xlink="http://www.w3.org/1999/xlink" width="60" zoomAndPan="magnify" viewBox="0 0 45 44.999999" height="60" preserveAspectRatio="xMidYMid meet" version="1.0"><defs><clipPath id="084e5081f6"><path d="M 3.152344 3.75 L 42 3.75 L 42 34 L 3.152344 34 Z M 3.152344 3.75 " clip-rule="nonzero"/></clipPath><clipPath id="4f5469ed8c"><path d="M 12 34 L 20 34 L 20 41.25 L 12 41.25 Z M 12 34 " clip-rule="nonzero"/></clipPath><clipPath id="ab94c841bb"><path d="M 31 34 L 38 34 L 38 41.25 L 31 41.25 Z M 31 34 " clip-rule="nonzero"/></clipPath></defs><rect x="-4.5" width="54" fill="#ffffff" y="-4.5" height="53.999999" fill-opacity="1"/><rect x="-4.5" width="54" fill="#ed1173" y="-4.5" height="53.999999" fill-opacity="1"/><g clip-path="url(#084e5081f6)"><path fill="#ffffff" d="M 41.421875 9.953125 C 41.113281 9.582031 40.660156 9.363281 40.175781 9.363281 L 12.59375 9.363281 L 11.269531 4.90625 C 11.0625 4.21875 10.433594 3.75 9.71875 3.75 L 4.785156 3.75 C 3.890625 3.75 3.167969 4.472656 3.167969 5.367188 C 3.167969 6.257812 3.890625 6.984375 4.785156 6.984375 L 8.511719 6.984375 L 14.554688 27.273438 C 13.898438 28.476562 13.277344 30.195312 13.984375 31.636719 C 14.605469 32.910156 16.015625 33.554688 18.171875 33.554688 C 18.207031 33.554688 18.246094 33.554688 18.285156 33.550781 C 18.425781 33.539062 32.351562 32.261719 37.15625 32.53125 C 37.855469 32.570312 38.460938 32.035156 38.5 31.332031 C 38.539062 30.628906 38.003906 30.023438 37.296875 29.984375 C 32.421875 29.710938 19.257812 30.898438 18.113281 31.003906 C 16.933594 30.996094 16.382812 30.734375 16.277344 30.515625 C 16.152344 30.265625 16.242188 29.796875 16.445312 29.269531 C 16.480469 29.265625 16.511719 29.265625 16.546875 29.261719 L 37.648438 26.710938 C 38.34375 26.625 38.90625 26.097656 39.039062 25.410156 L 41.761719 11.289062 C 41.855469 10.8125 41.730469 10.324219 41.421875 9.953125 Z M 29.710938 17.792969 L 23.074219 17.792969 L 23.074219 12.597656 L 29.710938 12.597656 Z M 15.5625 19.324219 L 21.542969 19.324219 L 21.542969 25.398438 L 17.515625 25.886719 Z M 23.074219 19.324219 L 29.710938 19.324219 L 29.710938 24.414062 L 23.074219 25.214844 Z M 37.214844 17.792969 L 31.242188 17.792969 L 31.242188 12.597656 L 38.21875 12.597656 Z M 21.542969 12.597656 L 21.542969 17.792969 L 15.105469 17.792969 L 13.558594 12.597656 Z M 31.242188 24.226562 L 31.242188 19.324219 L 36.921875 19.324219 L 36.089844 23.640625 Z M 31.242188 24.226562 " fill-opacity="1" fill-rule="nonzero"/></g><g clip-path="url(#4f5469ed8c)"><path fill="#ffffff" d="M 19.417969 38.03125 C 19.417969 38.460938 19.335938 38.871094 19.171875 39.269531 C 19.007812 39.664062 18.773438 40.011719 18.472656 40.316406 C 18.167969 40.617188 17.820312 40.851562 17.421875 41.015625 C 17.027344 41.179688 16.617188 41.261719 16.1875 41.261719 C 15.757812 41.261719 15.347656 41.179688 14.953125 41.015625 C 14.554688 40.851562 14.207031 40.617188 13.902344 40.316406 C 13.601562 40.011719 13.367188 39.664062 13.203125 39.269531 C 13.039062 38.871094 12.957031 38.460938 12.957031 38.03125 C 12.957031 37.605469 13.039062 37.191406 13.203125 36.796875 C 13.367188 36.398438 13.601562 36.050781 13.902344 35.75 C 14.207031 35.445312 14.554688 35.210938 14.953125 35.046875 C 15.347656 34.882812 15.757812 34.800781 16.1875 34.800781 C 16.617188 34.800781 17.027344 34.882812 17.421875 35.046875 C 17.820312 35.210938 18.167969 35.445312 18.472656 35.75 C 18.773438 36.050781 19.007812 36.398438 19.171875 36.796875 C 19.335938 37.191406 19.417969 37.605469 19.417969 38.03125 Z M 19.417969 38.03125 " fill-opacity="1" fill-rule="nonzero"/></g><g clip-path="url(#ab94c841bb)"><path fill="#ffffff" d="M 37.792969 38.03125 C 37.792969 38.460938 37.710938 38.871094 37.546875 39.269531 C 37.382812 39.664062 37.148438 40.011719 36.847656 40.316406 C 36.542969 40.617188 36.195312 40.851562 35.800781 41.015625 C 35.402344 41.179688 34.992188 41.261719 34.5625 41.261719 C 34.136719 41.261719 33.722656 41.179688 33.328125 41.015625 C 32.933594 40.851562 32.582031 40.617188 32.28125 40.316406 C 31.976562 40.011719 31.742188 39.664062 31.578125 39.269531 C 31.414062 38.871094 31.332031 38.460938 31.332031 38.03125 C 31.332031 37.605469 31.414062 37.191406 31.578125 36.796875 C 31.742188 36.398438 31.976562 36.050781 32.28125 35.75 C 32.582031 35.445312 32.933594 35.210938 33.328125 35.046875 C 33.722656 34.882812 34.136719 34.800781 34.5625 34.800781 C 34.992188 34.800781 35.402344 34.882812 35.800781 35.046875 C 36.195312 35.210938 36.542969 35.445312 36.847656 35.75 C 37.148438 36.050781 37.382812 36.398438 37.546875 36.796875 C 37.710938 37.191406 37.792969 37.605469 37.792969 38.03125 Z M 37.792969 38.03125 " fill-opacity="1" fill-rule="nonzero"/></g></svg>