<svg xmlns="http://www.w3.org/2000/svg" xmlns:xlink="http://www.w3.org/1999/xlink" width="60" zoomAndPan="magnify" viewBox="0 0 45 44.999999" height="60" preserveAspectRatio="xMidYMid meet" version="1.0"><defs><clipPath id="5b37247b85"><path d="M 19 4.5 L 34 4.5 L 34 12 L 19 12 Z M 19 4.5 " clip-rule="nonzero"/></clipPath><clipPath id="6efd908637"><path d="M 11 12 L 41.808594 12 L 41.808594 41.25 L 11 41.25 Z M 11 12 " clip-rule="nonzero"/></clipPath><clipPath id="c2f5707d5a"><path d="M 3.558594 37 L 17 37 L 17 41.25 L 3.558594 41.25 Z M 3.558594 37 " clip-rule="nonzero"/></clipPath><clipPath id="30add14992"><path d="M 3.558594 32 L 17 32 L 17 37 L 3.558594 37 Z M 3.558594 32 " clip-rule="nonzero"/></clipPath></defs><rect x="-4.5" width="54" fill="#ffffff" y="-4.5" height="53.999999" fill-opacity="1"/><rect x="-4.5" width="54" fill="#ed1173" y="-4.5" height="53.999999" fill-opacity="1"/><g clip-path="url(#5b37247b85)"><path fill="#ffffff" d="M 30.601562 11.5625 L 33.023438 4.695312 L 28.449219 7.386719 L 26.429688 4.695312 C 26.375 4.578125 26.28125 4.519531 26.152344 4.519531 C 26.019531 4.519531 25.929688 4.578125 25.871094 4.695312 L 23.855469 7.386719 L 19.28125 4.695312 L 21.722656 11.5625 Z M 30.601562 11.5625 " fill-opacity="1" fill-rule="nonzero"/></g><g clip-path="url(#6efd908637)"><path fill="#ffffff" d="M 41.054688 30.460938 C 38.480469 17.390625 31.898438 13.519531 30.925781 12.96875 L 21.398438 12.96875 C 20.429688 13.488281 13.835938 17.449219 11.265625 30.460938 C 11.21875 30.730469 11.171875 31 11.144531 31.253906 L 16.527344 31.253906 C 16.707031 31.253906 16.878906 31.289062 17.042969 31.355469 C 17.207031 31.425781 17.351562 31.523438 17.480469 31.648438 C 17.605469 31.773438 17.703125 31.921875 17.769531 32.085938 C 17.839844 32.25 17.875 32.421875 17.875 32.601562 L 17.875 36.300781 C 17.871094 36.539062 17.8125 36.765625 17.691406 36.972656 C 17.8125 37.179688 17.871094 37.40625 17.875 37.644531 L 17.875 41.101562 C 18.5625 41.285156 19.265625 41.375 19.980469 41.371094 L 32.332031 41.371094 C 33.15625 41.367188 33.964844 41.25 34.757812 41.019531 C 35.554688 40.785156 36.300781 40.449219 37 40.011719 C 37.699219 39.570312 38.324219 39.042969 38.875 38.429688 C 39.429688 37.816406 39.886719 37.136719 40.25 36.394531 C 41.199219 34.507812 41.46875 32.53125 41.054688 30.460938 Z M 31.710938 32.976562 C 31.210938 33.730469 30.539062 34.273438 29.691406 34.597656 C 29.074219 34.824219 28.433594 34.976562 27.777344 35.046875 L 27.460938 35.046875 L 27.460938 37 L 24.882812 37 L 24.882812 35.046875 L 24.582031 35.007812 C 23.445312 34.910156 22.425781 34.507812 21.527344 33.8125 C 21.046875 33.425781 20.664062 32.957031 20.382812 32.410156 C 20.097656 31.859375 19.941406 31.277344 19.90625 30.664062 L 22.792969 30.546875 C 22.828125 30.699219 22.875 30.851562 22.933594 31 C 23.070312 31.351562 23.296875 31.640625 23.605469 31.859375 C 23.992188 32.179688 24.425781 32.421875 24.898438 32.59375 L 24.898438 28.253906 L 24.640625 28.1875 C 23.46875 27.9375 22.402344 27.457031 21.433594 26.753906 C 20.945312 26.371094 20.566406 25.898438 20.296875 25.339844 C 20.03125 24.78125 19.894531 24.191406 19.898438 23.570312 C 19.902344 22.753906 20.144531 22.011719 20.625 21.34375 C 21.121094 20.585938 21.792969 20.046875 22.644531 19.722656 C 23.261719 19.492188 23.898438 19.335938 24.554688 19.257812 L 24.875 19.226562 L 24.875 17.316406 L 27.433594 17.316406 L 27.433594 19.257812 L 27.742188 19.300781 C 28.875 19.398438 29.890625 19.796875 30.789062 20.496094 C 31.265625 20.886719 31.648438 21.355469 31.929688 21.90625 C 32.210938 22.453125 32.371094 23.035156 32.410156 23.652344 L 29.523438 23.761719 C 29.375 23.039062 29.015625 22.445312 28.449219 21.976562 C 28.335938 21.898438 28.214844 21.832031 28.085938 21.78125 C 27.863281 21.710938 27.640625 21.652344 27.414062 21.609375 L 27.414062 26.0625 L 27.667969 26.140625 C 28.839844 26.386719 29.910156 26.859375 30.878906 27.5625 C 31.363281 27.945312 31.742188 28.417969 32.011719 28.976562 C 32.28125 29.539062 32.414062 30.128906 32.410156 30.75 C 32.410156 31.566406 32.175781 32.308594 31.710938 32.976562 Z M 31.710938 32.976562 " fill-opacity="1" fill-rule="nonzero"/></g><g clip-path="url(#c2f5707d5a)"><path fill="#ffffff" d="M 3.558594 37.699219 L 3.558594 41.371094 L 16.515625 41.351562 L 16.496094 37.699219 Z M 3.558594 37.699219 " fill-opacity="1" fill-rule="nonzero"/></g><g clip-path="url(#30add14992)"><path fill="#ffffff" d="M 3.558594 32.648438 L 3.558594 36.308594 L 16.515625 36.308594 L 16.496094 32.625 Z M 3.558594 32.648438 " fill-opacity="1" fill-rule="nonzero"/></g><path fill="#ffffff" d="M 29.082031 29.667969 C 28.726562 29.421875 28.347656 29.234375 27.9375 29.101562 L 27.441406 28.914062 L 27.441406 32.742188 L 27.554688 32.742188 C 28.179688 32.601562 28.738281 32.328125 29.230469 31.921875 C 30.050781 31.152344 29.355469 30.042969 29.230469 29.867188 C 29.1875 29.769531 29.121094 29.714844 29.082031 29.667969 Z M 29.082031 29.667969 " fill-opacity="1" fill-rule="nonzero"/><path fill="#ffffff" d="M 23.503906 21.882812 C 23.445312 21.914062 23.394531 21.949219 23.34375 21.992188 C 23.109375 22.132812 22.925781 22.324219 22.792969 22.566406 C 22.660156 22.804688 22.597656 23.0625 22.601562 23.335938 C 22.621094 23.875 22.84375 24.308594 23.277344 24.632812 C 23.632812 24.878906 24.015625 25.070312 24.425781 25.214844 L 24.921875 25.394531 L 24.921875 21.5 C 24.460938 21.566406 24.011719 21.683594 23.578125 21.851562 Z M 23.503906 21.882812 " fill-opacity="1" fill-rule="nonzero"/></svg>