<svg xmlns="http://www.w3.org/2000/svg" xmlns:xlink="http://www.w3.org/1999/xlink" width="60" zoomAndPan="magnify" viewBox="0 0 45 44.999999" height="60" preserveAspectRatio="xMidYMid meet" version="1.0"><defs><clipPath id="558628bc14"><path d="M 7.828125 3.199219 L 37.078125 3.199219 L 37.078125 41.449219 L 7.828125 41.449219 Z M 7.828125 3.199219 " clip-rule="nonzero"/></clipPath></defs><rect x="-4.5" width="54" fill="#ffffff" y="-4.5" height="53.999999" fill-opacity="1"/><rect x="-4.5" width="54" fill="#ed1173" y="-4.5" height="53.999999" fill-opacity="1"/><g clip-path="url(#558628bc14)"><path fill="#ffffff" d="M 36.539062 7.539062 L 30.875 7.539062 L 30.875 6.496094 C 30.875 6.152344 30.597656 5.875 30.253906 5.875 L 26.464844 5.875 C 26.167969 5.15625 25.683594 4.535156 25.074219 4.074219 C 24.355469 3.53125 23.460938 3.207031 22.496094 3.207031 C 21.53125 3.207031 20.636719 3.53125 19.917969 4.074219 C 19.308594 4.535156 18.824219 5.15625 18.53125 5.875 L 14.738281 5.875 C 14.394531 5.875 14.117188 6.152344 14.117188 6.496094 L 14.117188 7.539062 L 8.453125 7.539062 C 8.109375 7.539062 7.828125 7.820312 7.828125 8.164062 L 7.828125 41.167969 C 7.828125 41.511719 8.109375 41.789062 8.453125 41.789062 L 36.539062 41.789062 C 36.882812 41.789062 37.164062 41.511719 37.164062 41.167969 L 37.164062 8.164062 C 37.164062 7.820312 36.882812 7.539062 36.539062 7.539062 Z M 20.667969 5.066406 C 21.175781 4.679688 21.8125 4.453125 22.496094 4.453125 C 23.183594 4.453125 23.816406 4.679688 24.324219 5.066406 C 24.621094 5.289062 24.871094 5.5625 25.070312 5.875 L 19.921875 5.875 C 20.121094 5.5625 20.371094 5.289062 20.667969 5.066406 Z M 15.359375 7.117188 L 29.632812 7.117188 L 29.632812 9.207031 L 15.359375 9.207031 Z M 35.917969 40.542969 L 9.074219 40.542969 L 9.074219 8.785156 L 14.117188 8.785156 L 14.117188 9.828125 C 14.117188 10.171875 14.394531 10.453125 14.738281 10.453125 L 30.253906 10.453125 C 30.597656 10.453125 30.878906 10.171875 30.878906 9.828125 L 30.878906 8.785156 L 35.917969 8.785156 Z M 15.109375 18.25 C 14.867188 18.011719 14.859375 17.621094 15.097656 17.375 C 15.332031 17.128906 15.726562 17.121094 15.972656 17.359375 L 16.121094 17.507812 L 17.714844 15.859375 C 17.953125 15.617188 18.347656 15.609375 18.589844 15.847656 C 18.835938 16.089844 18.84375 16.480469 18.601562 16.726562 L 16.582031 18.816406 C 16.34375 19.058594 15.949219 19.066406 15.703125 18.828125 Z M 19.707031 13.859375 L 13.996094 13.859375 C 13.652344 13.859375 13.371094 14.136719 13.371094 14.480469 L 13.371094 20.191406 C 13.371094 20.535156 13.652344 20.816406 13.996094 20.816406 L 19.707031 20.816406 C 20.050781 20.816406 20.328125 20.535156 20.328125 20.191406 L 20.328125 14.480469 C 20.328125 14.136719 20.050781 13.859375 19.707031 13.859375 Z M 19.082031 19.570312 L 14.617188 19.570312 L 14.617188 15.105469 L 19.082031 15.105469 Z M 22.28125 13.859375 L 31 13.859375 C 31.34375 13.859375 31.621094 14.136719 31.621094 14.480469 C 31.621094 14.824219 31.34375 15.105469 31 15.105469 L 22.28125 15.105469 C 21.9375 15.105469 21.660156 14.824219 21.660156 14.480469 C 21.660156 14.136719 21.9375 13.859375 22.28125 13.859375 Z M 21.660156 17.335938 C 21.660156 16.996094 21.9375 16.714844 22.28125 16.714844 L 29.066406 16.714844 C 29.410156 16.714844 29.6875 16.996094 29.6875 17.335938 C 29.6875 17.679688 29.410156 17.960938 29.066406 17.960938 L 22.28125 17.960938 C 21.9375 17.960938 21.660156 17.679688 21.660156 17.335938 Z M 15.109375 34.222656 C 14.867188 33.984375 14.859375 33.59375 15.097656 33.347656 C 15.332031 33.101562 15.726562 33.09375 15.972656 33.332031 L 16.121094 33.480469 L 17.714844 31.832031 C 17.953125 31.589844 18.347656 31.582031 18.589844 31.820312 C 18.835938 32.0625 18.84375 32.453125 18.601562 32.699219 L 16.582031 34.789062 C 16.34375 35.03125 15.949219 35.039062 15.703125 34.800781 Z M 19.707031 29.832031 L 13.996094 29.832031 C 13.652344 29.832031 13.371094 30.109375 13.371094 30.453125 L 13.371094 36.164062 C 13.371094 36.507812 13.652344 36.785156 13.996094 36.785156 L 19.707031 36.785156 C 20.050781 36.785156 20.328125 36.507812 20.328125 36.164062 L 20.328125 30.453125 C 20.328125 30.109375 20.050781 29.832031 19.707031 29.832031 Z M 19.082031 35.542969 L 14.617188 35.542969 L 14.617188 31.074219 L 19.082031 31.074219 Z M 31.621094 30.453125 C 31.621094 30.796875 31.34375 31.074219 31 31.074219 L 22.28125 31.074219 C 21.9375 31.074219 21.660156 30.796875 21.660156 30.453125 C 21.660156 30.109375 21.9375 29.832031 22.28125 29.832031 L 31 29.832031 C 31.34375 29.832031 31.621094 30.109375 31.621094 30.453125 Z M 29.6875 33.308594 C 29.6875 33.652344 29.410156 33.933594 29.066406 33.933594 L 22.28125 33.933594 C 21.9375 33.933594 21.660156 33.652344 21.660156 33.308594 C 21.660156 32.964844 21.9375 32.6875 22.28125 32.6875 L 29.066406 32.6875 C 29.410156 32.6875 29.6875 32.964844 29.6875 33.308594 Z M 15.109375 26.234375 C 14.867188 25.996094 14.859375 25.605469 15.097656 25.359375 C 15.332031 25.113281 15.726562 25.109375 15.972656 25.34375 L 16.121094 25.492188 L 17.714844 23.847656 C 17.953125 23.601562 18.347656 23.597656 18.589844 23.835938 C 18.835938 24.074219 18.84375 24.46875 18.601562 24.710938 L 16.582031 26.800781 C 16.34375 27.046875 15.949219 27.050781 15.703125 26.8125 Z M 19.707031 21.847656 L 13.996094 21.847656 C 13.652344 21.847656 13.371094 22.125 13.371094 22.46875 L 13.371094 28.179688 C 13.371094 28.523438 13.652344 28.800781 13.996094 28.800781 L 19.707031 28.800781 C 20.050781 28.800781 20.328125 28.523438 20.328125 28.179688 L 20.328125 22.46875 C 20.328125 22.125 20.050781 21.847656 19.707031 21.847656 Z M 19.082031 27.558594 L 14.617188 27.558594 L 14.617188 23.089844 L 19.082031 23.089844 Z M 31.621094 22.46875 C 31.621094 22.8125 31.34375 23.089844 31 23.089844 L 22.28125 23.089844 C 21.9375 23.089844 21.660156 22.8125 21.660156 22.46875 C 21.660156 22.125 21.9375 21.847656 22.28125 21.847656 L 31 21.847656 C 31.34375 21.847656 31.621094 22.125 31.621094 22.46875 Z M 21.660156 25.324219 C 21.660156 24.980469 21.9375 24.703125 22.28125 24.703125 L 29.066406 24.703125 C 29.410156 24.703125 29.6875 24.980469 29.6875 25.324219 C 29.6875 25.667969 29.410156 25.945312 29.066406 25.945312 L 22.28125 25.945312 C 21.9375 25.945312 21.660156 25.667969 21.660156 25.324219 Z M 21.660156 25.324219 " fill-opacity="1" fill-rule="nonzero"/></g></svg>