<svg xmlns="http://www.w3.org/2000/svg" xmlns:xlink="http://www.w3.org/1999/xlink" width="60" zoomAndPan="magnify" viewBox="0 0 45 44.999999" height="60" preserveAspectRatio="xMidYMid meet" version="1.0"><defs><clipPath id="09689c66bc"><path d="M 17 8.464844 L 28 8.464844 L 28 20 L 17 20 Z M 17 8.464844 " clip-rule="nonzero"/></clipPath><clipPath id="85c418a14f"><path d="M 29 21 L 42.375 21 L 42.375 34 L 29 34 Z M 29 21 " clip-rule="nonzero"/></clipPath><clipPath id="e3ee7875aa"><path d="M 10 21 L 35 21 L 35 36.214844 L 10 36.214844 Z M 10 21 " clip-rule="nonzero"/></clipPath><clipPath id="37664ad473"><path d="M 29 21 L 42.375 21 L 42.375 34 L 29 34 Z M 29 21 " clip-rule="nonzero"/></clipPath><clipPath id="f2f5e75f88"><path d="M 2.625 21 L 16 21 L 16 34 L 2.625 34 Z M 2.625 21 " clip-rule="nonzero"/></clipPath><clipPath id="ff5a0837ba"><path d="M 2.625 21 L 16 21 L 16 34 L 2.625 34 Z M 2.625 21 " clip-rule="nonzero"/></clipPath></defs><rect x="-4.5" width="54" fill="#ffffff" y="-4.5" height="53.999999" fill-opacity="1"/><rect x="-4.5" width="54" fill="#ed1173" y="-4.5" height="53.999999" fill-opacity="1"/><g clip-path="url(#09689c66bc)"><path fill="#ffffff" d="M 27.789062 13.753906 C 27.789062 14.683594 27.546875 15.597656 27.082031 16.398438 C 26.140625 18.03125 24.382812 19.042969 22.5 19.042969 C 20.640625 19.042969 18.894531 18.046875 17.945312 16.4375 C 17.46875 15.628906 17.214844 14.699219 17.214844 13.753906 C 17.214844 10.839844 19.585938 8.464844 22.5 8.464844 C 25.417969 8.464844 27.789062 10.839844 27.789062 13.753906 " fill-opacity="1" fill-rule="nonzero"/></g><g clip-path="url(#85c418a14f)"><path fill="#ffffff" d="M 42.378906 30.558594 C 42.378906 30.734375 42.371094 30.910156 42.363281 31.085938 C 40.46875 32.210938 37.96875 32.984375 35.175781 33.222656 C 35.164062 29.859375 33.84375 26.695312 31.464844 24.316406 C 30.726562 23.578125 29.910156 22.941406 29.039062 22.414062 C 30.292969 21.765625 31.714844 21.402344 33.222656 21.402344 C 38.277344 21.402344 42.378906 25.5 42.378906 30.558594 " fill-opacity="1" fill-rule="nonzero"/></g><path fill="#ffffff" d="M 37.5 15.960938 C 37.5 16.738281 37.289062 17.46875 36.925781 18.097656 C 36.1875 19.375 34.804688 20.234375 33.222656 20.234375 C 31.65625 20.234375 30.28125 19.390625 29.539062 18.132812 C 29.164062 17.496094 28.949219 16.753906 28.949219 15.960938 C 28.949219 13.597656 30.863281 11.683594 33.222656 11.683594 C 35.582031 11.683594 37.5 13.597656 37.5 15.960938 " fill-opacity="1" fill-rule="nonzero"/><g clip-path="url(#e3ee7875aa)"><path fill="#ffffff" d="M 34.316406 33.277344 L 34.316406 33.28125 C 34.316406 33.429688 34.3125 33.582031 34.308594 33.730469 C 31.175781 35.53125 27.042969 36.523438 22.636719 36.523438 C 18.148438 36.523438 13.8125 35.449219 10.691406 33.570312 C 10.6875 33.472656 10.6875 33.375 10.6875 33.277344 L 10.6875 33.269531 C 10.691406 28.8125 13.171875 24.929688 16.828125 22.917969 C 18.511719 21.992188 20.445312 21.464844 22.5 21.464844 C 24.554688 21.464844 26.492188 21.992188 28.175781 22.917969 C 31.832031 24.929688 34.316406 28.820312 34.316406 33.277344 " fill-opacity="1" fill-rule="nonzero"/></g><g clip-path="url(#37664ad473)"><path fill="#ffffff" d="M 42.378906 30.558594 C 42.378906 30.734375 42.371094 30.910156 42.363281 31.085938 C 40.46875 32.210938 37.96875 32.984375 35.175781 33.222656 C 35.164062 29.859375 33.84375 26.695312 31.464844 24.316406 C 30.726562 23.578125 29.910156 22.941406 29.039062 22.414062 C 30.292969 21.765625 31.714844 21.402344 33.222656 21.402344 C 38.277344 21.402344 42.378906 25.5 42.378906 30.558594 " fill-opacity="1" fill-rule="nonzero"/></g><g clip-path="url(#f2f5e75f88)"><path fill="#ffffff" d="M 13.539062 24.316406 C 11.164062 26.691406 9.84375 29.847656 9.828125 33.207031 C 7.011719 32.9375 4.507812 32.125 2.636719 30.957031 C 2.628906 30.824219 2.625 30.691406 2.625 30.558594 C 2.625 25.5 6.726562 21.402344 11.78125 21.402344 C 13.289062 21.402344 14.710938 21.765625 15.964844 22.414062 C 15.09375 22.941406 14.277344 23.578125 13.539062 24.316406 " fill-opacity="1" fill-rule="nonzero"/></g><path fill="#ffffff" d="M 16.054688 15.960938 C 16.054688 16.738281 15.847656 17.46875 15.484375 18.097656 C 14.746094 19.375 13.363281 20.234375 11.78125 20.234375 C 10.210938 20.234375 8.839844 19.390625 8.097656 18.132812 C 7.722656 17.496094 7.503906 16.753906 7.503906 15.960938 C 7.503906 13.597656 9.417969 11.683594 11.78125 11.683594 C 14.140625 11.683594 16.054688 13.597656 16.054688 15.960938 " fill-opacity="1" fill-rule="nonzero"/><g clip-path="url(#ff5a0837ba)"><path fill="#ffffff" d="M 13.539062 24.316406 C 11.164062 26.691406 9.84375 29.847656 9.828125 33.207031 C 7.011719 32.9375 4.507812 32.125 2.636719 30.957031 C 2.628906 30.824219 2.625 30.691406 2.625 30.558594 C 2.625 25.5 6.726562 21.402344 11.78125 21.402344 C 13.289062 21.402344 14.710938 21.765625 15.964844 22.414062 C 15.09375 22.941406 14.277344 23.578125 13.539062 24.316406 " fill-opacity="1" fill-rule="nonzero"/></g></svg>