<svg xmlns="http://www.w3.org/2000/svg" xmlns:xlink="http://www.w3.org/1999/xlink" width="60" zoomAndPan="magnify" viewBox="0 0 45 44.999999" height="60" preserveAspectRatio="xMidYMid meet" version="1.0"><defs><clipPath id="1188e92e7e"><path d="M 2.183594 16 L 42.683594 16 L 42.683594 41 L 2.183594 41 Z M 2.183594 16 " clip-rule="nonzero"/></clipPath><clipPath id="34d964ff63"><path d="M 3 3.226562 L 42 3.226562 L 42 18 L 3 18 Z M 3 3.226562 " clip-rule="nonzero"/></clipPath><clipPath id="03034c3286"><path d="M 3 25 L 42 25 L 42 41.476562 L 3 41.476562 Z M 3 25 " clip-rule="nonzero"/></clipPath></defs><rect x="-4.5" width="54" fill="#ffffff" y="-4.5" height="53.999999" fill-opacity="1"/><rect x="-4.5" width="54" fill="#ed1173" y="-4.5" height="53.999999" fill-opacity="1"/><g clip-path="url(#1188e92e7e)"><path fill="#ffffff" d="M 37.996094 27.707031 C 39.660156 27.707031 41.007812 29.058594 41.007812 30.722656 C 41.007812 32.386719 39.660156 33.734375 37.996094 33.734375 C 36.332031 33.734375 34.984375 32.386719 34.984375 30.722656 C 34.984375 29.058594 36.332031 27.707031 37.996094 27.707031 Z M 41.933594 40.15625 C 42.480469 39.453125 42.804688 38.574219 42.804688 37.617188 L 42.804688 18.203125 C 42.804688 17.453125 42.601562 16.75 42.25 16.140625 L 25.601562 26.792969 Z M 2.746094 16.140625 C 2.394531 16.75 2.195312 17.453125 2.195312 18.203125 L 2.195312 37.617188 C 2.195312 38.570312 2.515625 39.449219 3.0625 40.152344 C 7.910156 36.128906 14.140625 30.460938 19.246094 26.699219 Z M 4.707031 28.953125 L 10.625 28.953125 C 11.003906 28.953125 11.308594 29.265625 11.308594 29.640625 C 11.308594 30.019531 11.003906 30.324219 10.625 30.324219 L 4.707031 30.324219 C 4.328125 30.324219 4.023438 30.019531 4.023438 29.640625 C 4.023438 29.265625 4.328125 28.953125 4.707031 28.953125 Z M 4.707031 31.042969 L 8.394531 31.042969 C 8.773438 31.042969 9.082031 31.351562 9.082031 31.730469 C 9.082031 32.105469 8.773438 32.414062 8.394531 32.414062 L 4.707031 32.414062 C 4.328125 32.414062 4.023438 32.105469 4.023438 31.730469 C 4.023438 31.351562 4.328125 31.042969 4.707031 31.042969 Z M 4.707031 31.042969 " fill-opacity="1" fill-rule="nonzero"/></g><g clip-path="url(#34d964ff63)"><path fill="#ffffff" d="M 41.769531 15.464844 C 41.546875 15.210938 41.292969 14.984375 41.011719 14.789062 L 41.007812 14.785156 L 38.289062 13.015625 L 38.289062 17.695312 Z M 27.699219 6.132812 C 26.542969 5.386719 25.386719 4.640625 24.230469 3.902344 C 23.175781 3.226562 21.824219 3.226562 20.769531 3.902344 C 19.601562 4.644531 18.445312 5.390625 17.296875 6.132812 Z M 6.710938 13.011719 L 4.042969 14.75 C 3.742188 14.953125 3.464844 15.191406 3.226562 15.464844 L 6.710938 17.695312 Z M 6.710938 13.011719 " fill-opacity="1" fill-rule="nonzero"/></g><path fill="#ffffff" d="M 33.847656 6.964844 L 11.152344 6.964844 C 9.15625 6.964844 7.539062 8.582031 7.539062 10.574219 L 7.539062 18.226562 L 19.964844 26.175781 C 20.386719 25.875 20.796875 25.589844 21.199219 25.320312 C 21.636719 24.984375 22.078125 24.828125 22.519531 24.828125 C 22.996094 24.828125 23.429688 25.007812 23.820312 25.335938 L 24.925781 26.242188 L 37.457031 18.226562 L 37.457031 10.574219 C 37.457031 8.582031 35.839844 6.964844 33.847656 6.964844 Z M 20.722656 13.519531 C 21.5 13.515625 22.164062 14.003906 22.496094 14.71875 C 22.816406 14.003906 23.476562 13.503906 24.253906 13.5 C 25.351562 13.496094 26.296875 14.464844 26.25 15.671875 C 26.171875 17.703125 22.523438 20.269531 22.523438 20.269531 C 22.523438 20.269531 18.847656 17.742188 18.746094 15.710938 C 18.6875 14.507812 19.625 13.523438 20.722656 13.519531 Z M 20.820312 27.769531 L 20.980469 27.875 C 21.238281 28.039062 21.515625 28.15625 21.800781 28.226562 C 22.257812 28.34375 22.738281 28.34375 23.195312 28.226562 C 23.480469 28.15625 23.757812 28.039062 24.015625 27.875 L 24.175781 27.769531 L 22.753906 26.605469 C 22.667969 26.53125 22.585938 26.488281 22.519531 26.488281 C 22.445312 26.488281 22.347656 26.53125 22.230469 26.617188 Z M 20.820312 27.769531 " fill-opacity="1" fill-rule="nonzero"/><g clip-path="url(#03034c3286)"><path fill="#ffffff" d="M 6.347656 41.773438 L 38.648438 41.773438 C 39.6875 41.773438 40.632812 41.386719 41.363281 40.757812 L 23.292969 25.976562 C 22.828125 25.574219 22.285156 25.53125 21.703125 25.976562 L 3.636719 40.757812 C 4.363281 41.386719 5.3125 41.773438 6.347656 41.773438 Z M 6.347656 41.773438 " fill-opacity="1" fill-rule="nonzero"/></g></svg>