<svg xmlns="http://www.w3.org/2000/svg" xmlns:xlink="http://www.w3.org/1999/xlink" width="60" zoomAndPan="magnify" viewBox="0 0 45 44.999999" height="60" preserveAspectRatio="xMidYMid meet" version="1.0"><defs><clipPath id="7dc87e6411"><path d="M 9.101562 15 L 36 15 L 36 42.398438 L 9.101562 42.398438 Z M 9.101562 15 " clip-rule="nonzero"/></clipPath><clipPath id="735e1b9497"><path d="M 15 2.648438 L 19 2.648438 L 19 6 L 15 6 Z M 15 2.648438 " clip-rule="nonzero"/></clipPath><clipPath id="d292ab1c80"><path d="M 26 2.648438 L 30 2.648438 L 30 6 L 26 6 Z M 26 2.648438 " clip-rule="nonzero"/></clipPath></defs><rect x="-4.5" width="54" fill="#ffffff" y="-4.5" height="53.999999" fill-opacity="1"/><rect x="-4.5" width="54" fill="#ed1173" y="-4.5" height="53.999999" fill-opacity="1"/><g clip-path="url(#7dc87e6411)"><path fill="#ffffff" d="M 28.261719 16.816406 C 27.359375 16.324219 26.816406 15.652344 26.503906 15.144531 L 24.242188 17.59375 C 26.640625 17.957031 28.855469 19.0625 30.605469 20.808594 C 32.769531 22.976562 33.960938 25.855469 33.960938 28.914062 C 33.960938 31.976562 32.769531 34.855469 30.605469 37.019531 C 28.4375 39.1875 25.558594 40.378906 22.5 40.378906 C 19.4375 40.378906 16.558594 39.1875 14.394531 37.019531 C 12.226562 34.855469 11.035156 31.976562 11.035156 28.914062 C 11.035156 25.851562 12.226562 22.972656 14.394531 20.808594 C 16.140625 19.0625 18.351562 17.957031 20.75 17.59375 L 18.492188 15.148438 C 18.179688 15.65625 17.636719 16.324219 16.738281 16.816406 C 12.21875 18.96875 9.101562 23.578125 9.101562 28.914062 C 9.101562 36.316406 15.097656 42.3125 22.5 42.3125 C 29.898438 42.3125 35.898438 36.316406 35.898438 28.914062 C 35.898438 23.578125 32.777344 18.96875 28.261719 16.816406 Z M 28.261719 16.816406 " fill-opacity="1" fill-rule="nonzero"/></g><path fill="#ffffff" d="M 12.695312 6.382812 C 12.707031 7.082031 13.050781 7.863281 14.175781 7.863281 C 13.050781 7.863281 12.707031 8.644531 12.695312 9.34375 C 12.683594 8.644531 12.339844 7.863281 11.214844 7.863281 C 12.339844 7.863281 12.683594 7.082031 12.695312 6.382812 Z M 12.695312 6.382812 " fill-opacity="1" fill-rule="nonzero"/><path fill="#ffffff" d="M 16.246094 12.648438 C 16.257812 13.171875 16.515625 13.757812 17.355469 13.757812 C 16.515625 13.757812 16.257812 14.34375 16.246094 14.867188 C 16.238281 14.34375 15.980469 13.757812 15.136719 13.757812 C 15.980469 13.757812 16.238281 13.171875 16.246094 12.648438 Z M 16.246094 12.648438 " fill-opacity="1" fill-rule="nonzero"/><g clip-path="url(#735e1b9497)"><path fill="#ffffff" d="M 17.003906 2.683594 C 17.015625 3.296875 17.316406 3.980469 18.300781 3.980469 C 17.316406 3.980469 17.015625 4.664062 17.003906 5.273438 C 16.992188 4.664062 16.695312 3.980469 15.710938 3.980469 C 16.695312 3.980469 16.992188 3.296875 17.003906 2.683594 Z M 17.003906 2.683594 " fill-opacity="1" fill-rule="nonzero"/></g><path fill="#ffffff" d="M 32.300781 6.382812 C 32.289062 7.082031 31.945312 7.863281 30.824219 7.863281 C 31.945312 7.863281 32.289062 8.644531 32.300781 9.34375 C 32.316406 8.644531 32.660156 7.863281 33.78125 7.863281 C 32.660156 7.863281 32.316406 7.082031 32.300781 6.382812 Z M 32.300781 6.382812 " fill-opacity="1" fill-rule="nonzero"/><path fill="#ffffff" d="M 28.75 12.648438 C 28.742188 13.171875 28.484375 13.757812 27.640625 13.757812 C 28.484375 13.757812 28.742188 14.34375 28.75 14.867188 C 28.761719 14.34375 29.015625 13.757812 29.859375 13.757812 C 29.015625 13.757812 28.761719 13.171875 28.75 12.648438 Z M 28.75 12.648438 " fill-opacity="1" fill-rule="nonzero"/><g clip-path="url(#d292ab1c80)"><path fill="#ffffff" d="M 27.992188 2.683594 C 27.980469 3.296875 27.679688 3.980469 26.699219 3.980469 C 27.679688 3.980469 27.980469 4.664062 27.992188 5.273438 C 28.003906 4.664062 28.304688 3.980469 29.285156 3.980469 C 28.304688 3.980469 28.003906 3.296875 27.992188 2.683594 Z M 27.992188 2.683594 " fill-opacity="1" fill-rule="nonzero"/></g><path fill="#ffffff" d="M 14.597656 9.359375 L 21.941406 17.554688 L 18.042969 9.359375 Z M 14.597656 9.359375 " fill-opacity="1" fill-rule="nonzero"/><path fill="#ffffff" d="M 23.0625 17.546875 L 30.398438 9.359375 L 26.953125 9.359375 Z M 23.0625 17.546875 " fill-opacity="1" fill-rule="nonzero"/><path fill="#ffffff" d="M 22.125 8.847656 L 20.382812 6.050781 L 18.558594 8.847656 Z M 22.125 8.847656 " fill-opacity="1" fill-rule="nonzero"/><path fill="#ffffff" d="M 26.4375 8.847656 L 24.617188 6.050781 L 22.875 8.847656 Z M 26.4375 8.847656 " fill-opacity="1" fill-rule="nonzero"/><path fill="#ffffff" d="M 16.371094 5.84375 L 14.597656 8.847656 L 17.800781 8.847656 Z M 16.371094 5.84375 " fill-opacity="1" fill-rule="nonzero"/><path fill="#ffffff" d="M 30.398438 8.847656 L 28.625 5.84375 L 27.199219 8.847656 Z M 30.398438 8.847656 " fill-opacity="1" fill-rule="nonzero"/><path fill="#ffffff" d="M 19.921875 5.84375 L 16.921875 5.84375 L 18.1875 8.507812 Z M 19.921875 5.84375 " fill-opacity="1" fill-rule="nonzero"/><path fill="#ffffff" d="M 24.15625 5.84375 L 20.839844 5.84375 L 22.5 8.507812 Z M 24.15625 5.84375 " fill-opacity="1" fill-rule="nonzero"/><path fill="#ffffff" d="M 28.078125 5.84375 L 25.078125 5.84375 L 26.8125 8.507812 Z M 28.078125 5.84375 " fill-opacity="1" fill-rule="nonzero"/><path fill="#ffffff" d="M 22.753906 9.359375 L 22.753906 17.035156 L 26.40625 9.359375 Z M 22.753906 9.359375 " fill-opacity="1" fill-rule="nonzero"/><path fill="#ffffff" d="M 22.242188 9.359375 L 18.59375 9.359375 L 22.242188 17.027344 Z M 22.242188 9.359375 " fill-opacity="1" fill-rule="nonzero"/></svg>