<?xml version="1.0" encoding="UTF-8"?>
<svg version="1.1" xmlns="http://www.w3.org/2000/svg" width="1920" height="1920">
<path d="M0 0 C633.6 0 1267.2 0 1920 0 C1920 633.6 1920 1267.2 1920 1920 C1286.4 1920 652.8 1920 0 1920 C0 1286.4 0 652.8 0 0 Z " fill="#FEFEFE" transform="translate(0,0)"/>
<path d="M0 0 C36.94264277 -0.84114959 36.94264277 -0.84114959 55 4 C56.093125 4.27714844 57.18625 4.55429687 58.3125 4.83984375 C61.5982731 5.76824578 64.78261782 6.85483007 68 8 C68.86496094 8.30035156 69.72992187 8.60070312 70.62109375 8.91015625 C92.22549871 16.45591788 109.5397017 26.5790533 128 40 C128.71502686 40.51127441 129.43005371 41.02254883 130.16674805 41.54931641 C134.49477549 44.69818294 138.24048145 48.0180267 141.8125 52 C142.31894043 52.5576001 142.82538086 53.1152002 143.34716797 53.68969727 C148.8927523 59.87396329 154.00460741 66.36808918 159 73 C159.41459473 73.54172852 159.82918945 74.08345703 160.25634766 74.64160156 C181.66481514 102.72801748 191.07725596 132.88281149 198.2644043 166.98754883 C199.20235207 171.43267681 200.21688058 175.82411435 201.3984375 180.2109375 C203.90796062 190.12478826 205.30559899 200.2884381 206.9375 210.375 C207.61061832 214.50825085 208.28671229 218.64100628 208.96484375 222.7734375 C209.13130402 223.78901733 209.29776428 224.80459717 209.4692688 225.85095215 C211.05147367 235.43830227 212.78322541 244.99616373 214.5499115 254.55097961 C215.2967899 258.61489245 216.02198992 262.6826738 216.75 266.75 C218.90478601 278.67903173 221.19831819 290.58199239 223.47253418 302.48867798 C225.90892694 315.24606353 228.31660335 328.00787699 230.66796875 340.78125 C231.70397236 346.40780743 232.75069811 352.03230805 233.80078125 357.65625 C237.07594377 375.20382162 240.32789306 392.75480939 243.50411987 410.32058716 C246.35069069 426.0603772 249.25583321 441.7875751 252.25 457.5 C252.41081055 458.34507111 252.57162109 459.19014221 252.73730469 460.06082153 C254.44345821 469.01713815 256.18725769 477.96461214 257.98828125 486.90234375 C259.89285671 496.36601501 261.68049923 505.84942448 263.43463135 515.3420105 C263.95336121 518.14830823 264.47427252 520.95419453 264.99560547 523.76000977 C266.48331793 531.77245906 267.96515337 539.78583178 269.41796875 547.8046875 C271.5734358 559.67464796 273.92095307 571.47867123 276.48876953 583.26635742 C278.93848722 594.57185846 281.22884775 605.90747389 283.5 617.25 C283.67946167 618.14249451 283.85892334 619.03498901 284.04382324 619.95452881 C286.54608408 632.40827353 288.92878732 644.88250038 291.25998116 657.3693161 C293.99487828 672.01700573 296.79135352 686.65232498 299.62231445 701.28173828 C300.16622441 704.09348585 300.70779912 706.90566766 301.24731445 709.71826172 C304.47173797 726.52317227 307.85235288 743.27853462 311.57566833 759.98071289 C313.52651962 768.7368585 315.33307466 777.51043121 317.0625 786.3125 C319.10564211 796.66553764 321.28664695 806.97546009 323.61401367 817.26831055 C325.09055714 823.82677842 326.51176481 830.39378757 327.875 836.9765625 C328.03724564 837.7595723 328.19949127 838.54258209 328.36665344 839.34931946 C328.53094345 840.14226913 328.69523346 840.93521881 328.86450195 841.75219727 C332.59643702 859.76051976 336.70599118 877.63952806 341.13330078 895.48876953 C342.32562553 900.31919616 343.47973256 905.15823798 344.625 910 C345.01810094 911.65628044 345.41132928 913.31253065 345.8046875 914.96875 C345.99901367 915.78730469 346.19333984 916.60585937 346.39355469 917.44921875 C348.27749988 925.37331674 350.17920421 933.29313702 352.08740234 941.21142578 C352.74750032 943.95176833 353.40665793 946.69232725 354.06494141 949.43310547 C355.03314234 953.4628312 356.00505835 957.49164906 356.97888184 961.52001953 C357.36007903 963.09902586 357.74025136 964.67828007 358.1192627 966.2578125 C360.28191615 975.26636941 362.5848721 984.21433199 365.1008606 993.13076782 C367.3440815 1001.12878417 369.32696895 1009.18740145 371.30825806 1017.25354004 C374.34882706 1029.61872712 377.41905999 1041.95636251 381.02758789 1054.17041016 C382.63920524 1059.64246649 384.04088268 1065.14176819 385.375 1070.6875 C388.106951 1081.96399169 391.61919378 1092.98952206 395.08496094 1104.05761719 C396.30033782 1107.9657608 397.47452951 1111.88481849 398.625 1115.8125 C398.81852051 1116.4717749 399.01204102 1117.1310498 399.21142578 1117.81030273 C400.29464501 1121.5220677 401.35005891 1125.24090005 402.390625 1128.96484375 C405.25869462 1139.19257806 408.33328877 1149.2992791 411.81591797 1159.33691406 C412.10096191 1160.16674805 412.38600586 1160.99658203 412.6796875 1161.8515625 C412.93476074 1162.58197754 413.18983398 1163.31239258 413.45263672 1164.06494141 C414 1166 414 1166 414 1169 C406.89705549 1169.36887272 400.63200622 1167.99027345 393.75 1166.3125 C392.59032715 1166.03486816 391.4306543 1165.75723633 390.23583984 1165.47119141 C387.89363812 1164.9088175 385.55230957 1164.34279321 383.21191406 1163.77294922 C380.51852917 1163.12478438 377.82224889 1162.50701274 375.1171875 1161.91015625 C336.00809784 1153.05294806 297.48643449 1137.32818485 261.96044922 1119.00683594 C259.90821445 1117.95286132 257.84686483 1116.91811719 255.78515625 1115.8828125 C236.00307504 1105.82948179 216.74048606 1094.1465801 198.703125 1081.21777344 C196.99859395 1079.99899464 195.28234323 1078.79861247 193.5625 1077.6015625 C184.49800036 1071.25782848 175.79837486 1064.4653503 167.09521484 1057.63818359 C164.1611477 1055.34412737 161.20679265 1053.07713125 158.25 1050.8125 C156.16608612 1049.20908757 154.08275574 1047.60491651 152 1046 C151.44924805 1045.57686523 150.89849609 1045.15373047 150.33105469 1044.71777344 C141.55688973 1037.96341625 133.14413419 1030.87254136 124.81396484 1023.58007812 C121.98034334 1021.11181455 119.11904461 1018.67692814 116.25 1016.25 C115.71624756 1015.79810303 115.18249512 1015.34620605 114.63256836 1014.88061523 C111.29101508 1012.06177452 107.90541589 1009.30356452 104.5 1006.5625 C94.73608149 998.59310776 85.75179035 989.83570532 76.89941406 980.87817383 C73.27017442 977.21969921 69.53553957 973.77663777 65.6015625 970.4453125 C63.0996903 968.1875254 61.1112161 965.62475515 59 963 C57.34627961 961.32048684 55.6779345 959.65532214 54 958 C53.16566437 957.16788498 52.33132874 956.33576996 51.47171021 955.47843933 C50.58015228 954.58989761 49.68859436 953.7013559 48.77001953 952.78588867 C43.71521571 947.74743266 38.66296192 942.7064278 33.61215401 937.66396618 C30.56616708 934.62319539 27.51925153 931.58336727 24.47021484 928.5456543 C21.50555271 925.59192604 18.54340208 922.63569977 15.58291245 919.67778969 C14.46199057 918.55870009 13.34019645 917.44048338 12.21747208 916.32320213 C6.2613438 910.39481708 0.41911048 904.43191733 -5 898 C-6.02261991 896.80919323 -7.04595445 895.61899941 -8.0703125 894.4296875 C-8.56772949 893.85033447 -9.06514648 893.27098145 -9.57763672 892.67407227 C-15.06274427 886.29670439 -20.65519289 880.04329865 -26.42236328 873.91943359 C-29.15064936 871.017923 -31.82022297 868.08001495 -34.43359375 865.07421875 C-37.93409347 861.05172313 -41.53623361 857.13571155 -45.1875 853.25 C-45.83533447 852.56043213 -46.48316895 851.87086426 -47.15063477 851.16040039 C-51.19726002 846.87051095 -55.27783912 842.61798942 -59.4375 838.4375 C-60.17311157 837.69717529 -60.17311157 837.69717529 -60.92358398 836.94189453 C-63.57513802 834.30797231 -66.30949079 831.92601982 -69.25 829.625 C-73.20774464 826.26173141 -75.4314967 822.10281178 -77.86694336 817.60595703 C-85.60553649 803.38337501 -96.36117731 790.61119234 -106.8125 778.3125 C-112.28701431 771.79316514 -117.2725411 764.94084856 -122.2890625 758.06640625 C-125.99789615 752.98614841 -129.77584253 747.95987035 -133.5625 742.9375 C-138.83706237 735.92893712 -144.02282911 728.86380657 -149.14111328 721.74047852 C-153.20267397 716.09094392 -157.30830064 710.47527794 -161.4375 704.875 C-162.00476807 704.10534912 -162.57203613 703.33569824 -163.15649414 702.54272461 C-163.70168701 701.80417236 -164.24687988 701.06562012 -164.80859375 700.3046875 C-165.33437012 699.59151367 -165.86014648 698.87833984 -166.40185547 698.14355469 C-167.50325364 696.66627453 -168.61770272 695.19866529 -169.74267578 693.73925781 C-170.29294434 693.02350586 -170.84321289 692.30775391 -171.41015625 691.5703125 C-171.90781494 690.93109863 -172.40547363 690.29188477 -172.91821289 689.63330078 C-174 688 -174 688 -174 686 C-171.58343624 685.35377959 -169.16675354 684.70800996 -166.75 684.0625 C-166.06808594 683.88009766 -165.38617187 683.69769531 -164.68359375 683.50976562 C-162.78970056 683.00411453 -160.89487972 682.50194154 -159 682 C-158.32066406 681.79890625 -157.64132812 681.5978125 -156.94140625 681.390625 C-150.96182266 680.18748947 -142.78894016 679.51527737 -137.25 682.4375 C-135.703125 683.54296875 -135.703125 683.54296875 -134 685 C-133.21109375 685.65613281 -132.4221875 686.31226563 -131.609375 686.98828125 C-126.99322546 690.98940488 -122.77242758 695.18115979 -118.8359375 699.84765625 C-116.66177009 702.3965206 -114.39587584 704.84947313 -112.125 707.3125 C-108.8927002 710.85009948 -105.79943674 714.44117256 -102.8125 718.1875 C-96.62571547 725.83900031 -89.80575448 732.90140828 -83 740 C-82.18861572 740.85440674 -82.18861572 740.85440674 -81.36083984 741.72607422 C-70.80723514 752.80953896 -59.4810574 761.66436156 -46 769 C-49.40434518 764.49247461 -53.2928088 760.63297238 -57.3125 756.6875 C-62.42463296 751.61798844 -67.38556051 746.53100624 -72 741 C-72.79148437 740.08605469 -73.58296875 739.17210937 -74.3984375 738.23046875 C-80.76119594 730.86177742 -86.72396762 723.23462572 -92.59765625 715.47265625 C-95.50580898 711.63315091 -98.46791184 707.83879387 -101.44360352 704.05151367 C-119 681.68306528 -119 681.68306528 -119 678 C-117.29347935 677.20443343 -115.5846883 676.4137362 -113.875 675.625 C-112.92367188 675.18414063 -111.97234375 674.74328125 -110.9921875 674.2890625 C-101.83418308 670.34370811 -90.6456661 668.77229684 -81.0625 672.5 C-79.36295852 673.30849209 -77.6770697 674.14587008 -76 675 C-74.72745942 675.59328137 -73.4524964 676.18138129 -72.17578125 676.765625 C-64.31158079 680.38141204 -56.56499645 684.20948803 -48.84521484 688.12207031 C-42.35403189 691.38147282 -35.71359784 694.23064089 -29 697 C-32.56243303 693.3320134 -36.30415425 690.00317094 -40.25 686.75 C-45.05951821 682.73833354 -49.56627912 678.56667431 -53.9296875 674.06640625 C-56.60048032 671.40065266 -59.45199839 668.9938195 -62.37109375 666.60546875 C-64.13985497 664.86215733 -64.94633741 663.22847203 -66 661 C-60.76606886 657.54367992 -55.54624986 654.70092052 -49.75 652.3125 C-48.95424561 651.97855225 -48.15849121 651.64460449 -47.33862305 651.30053711 C-41.12679239 648.74595904 -34.8232335 646.51842895 -28.47509766 644.32836914 C3.62003243 633.23563154 31.89792791 612.54167431 47.18505859 581.33886719 C61.38064452 550.91258863 64.62444124 515.45796408 67.4156189 482.39898682 C67.79622598 478.00067516 68.26479217 473.62008187 68.78845215 469.23660278 C71.93218529 442.72216141 72.36059543 416.35217705 72.3125 389.6875 C72.31131039 388.8161504 72.31012077 387.9448008 72.30889511 387.04704666 C72.28169598 369.77257456 72.19975002 352.51208868 71.36711121 335.2545929 C71.04383439 328.52075346 70.87628099 321.79561997 70.7890625 315.0546875 C70.77593521 314.06469757 70.76280792 313.07470764 70.74928284 312.05471802 C70.7225915 310.03298969 70.6959142 308.01126117 70.66925049 305.98953247 C72.85382482 248.4249662 72.85382482 248.4249662 51.94140625 197.91015625 C50.59395903 196.62204615 49.22618142 195.35459889 47.83203125 194.1171875 C43.920494 189.59681822 42.54656922 183.78299148 41.2734375 178.05859375 C41.12463135 177.39494308 40.9758252 176.73129242 40.82250977 176.04753113 C40.33207878 173.84585579 39.8529679 171.64191226 39.375 169.4375 C39.20558899 168.66678162 39.03617798 167.89606323 38.8616333 167.10198975 C34.36948193 146.65612166 30.45445492 126.09333571 26.49023438 105.54016113 C20.8273781 76.19793597 15.00176302 47.21657418 5 19 C3.98732836 16.0875375 2.99068144 13.16999897 2 10.25 C1.4121875 8.55617188 1.4121875 8.55617188 0.8125 6.828125 C0 4 0 4 0 0 Z " fill="#231F20" transform="translate(1298,473)"/>
<path d="M0 0 C7.85161142 0.3683472 14.28757547 3.43979803 21.375 6.625 C22.70293735 7.21232165 24.0313178 7.79864234 25.36010742 8.3840332 C28.16078745 9.61991537 30.95865697 10.86186493 33.75439453 12.10888672 C37.86095512 13.94006541 41.97429244 15.75553999 46.08984375 17.56640625 C50.23600496 19.39124827 54.38166867 21.21715453 58.52416992 23.05029297 C66.49398802 26.57676216 74.4720018 30.08344067 82.4609375 33.56640625 C98.85090554 40.71724245 115.19265516 47.88256824 131.265625 55.7265625 C136.53930719 58.29009812 141.9006047 60.63729902 147.31079102 62.8972168 C150.00283135 64.03667583 151.90972232 64.90972232 154 67 C153.95485313 70.03386936 153.79853313 72.98012316 153.5625 76 C152.22123633 97.42256416 152.22123633 97.42256416 160 117 C161.59548524 119.63860541 163.17421317 122.28709121 164.75 124.9375 C165.17651855 125.65365479 165.60303711 126.36980957 166.04248047 127.10766602 C213.88924873 208.45073077 220.63245617 316.90074792 227.37364197 408.80691528 C227.72748774 413.58937858 228.1148523 418.36662323 228.54833984 423.14257812 C228.64092575 424.16595276 228.73351166 425.18932739 228.8289032 426.24371338 C229.00686435 428.18821752 229.18854121 430.13238704 229.37483215 432.07611084 C229.92337661 438.06872266 230.10453223 443.98328537 230 450 C221.11350549 449.50415866 212.58493865 448.34536484 203.87109375 446.55859375 C202.65393677 446.31512207 201.43677979 446.07165039 200.18273926 445.82080078 C196.93399242 445.16867441 193.68679709 444.50948219 190.44034958 443.84601974 C188.4259435 443.43514283 186.41097385 443.02715445 184.39578247 442.62014771 C168.21624971 439.35207206 152.05050947 436.02109781 135.9375 432.4375 C135.22858612 432.28014374 134.51967224 432.12278748 133.78927612 431.96066284 C129.51768246 431.00810509 125.25606684 430.01957144 121 429 C119.37215576 428.61739014 119.37215576 428.61739014 117.71142578 428.22705078 C116.71481934 427.97810059 115.71821289 427.72915039 114.69140625 427.47265625 C113.82845947 427.2600415 112.9655127 427.04742676 112.07641602 426.82836914 C110 426 110 426 108 423 C107.60522461 420.86889648 107.60522461 420.86889648 107.40234375 418.37109375 C107.32371094 417.43080322 107.24507812 416.4905127 107.1640625 415.52172852 C107.05191406 413.9950354 107.05191406 413.9950354 106.9375 412.4375 C106.85371094 411.38425537 106.76992188 410.33101074 106.68359375 409.24584961 C105.99514613 400.11383402 105.62866512 390.97530769 105.42944336 381.82006836 C105.28085682 376.4493636 104.83878053 371.51275504 103.53955078 366.30004883 C102.45896086 361.69360646 101.87743667 356.99033537 101.1875 352.3125 C99.70040066 342.42011852 98.10524586 332.55097172 96.4375 322.6875 C93.70861265 306.45005408 91.3571768 290.21316613 89.4140625 273.86328125 C89.27718018 272.71686157 89.14029785 271.57044189 88.99926758 270.38928223 C88.66548436 267.5929368 88.33240863 264.7965091 88 262 C86.11308516 340.61280811 86.11308516 340.61280811 88.68385315 419.16954041 C89.21812227 428.11023322 89.19745035 437.0489174 89 446 C89.75796875 446.07476563 90.5159375 446.14953125 91.296875 446.2265625 C113.46233831 448.78411596 135.26831801 454.69731337 156.98876953 459.68652344 C203.55314873 470.3494518 250.22201756 477.69910531 297.68963623 482.94502258 C308.80715855 484.18319728 319.90430203 485.58101848 331 487 C331.48657222 501.66063239 329.9725347 515.84519931 328.125 530.375 C327.85193014 532.60014594 327.57978992 534.82540617 327.30859375 537.05078125 C327.04250142 539.20843644 326.7756026 541.36599236 326.5078125 543.5234375 C326.3868924 544.49872406 326.26597229 545.47401062 326.14138794 546.47885132 C325.37916961 552.46379758 324.46464514 558.40828641 323.43942261 564.35389709 C322.64067265 569.16378747 322.12224811 574.00483554 321.5625 578.84765625 C321 582 321 582 319 585 C313.66973788 585.81073624 308.20001388 585.62943886 302.8125 585.625 C301.57356491 585.62918442 301.57356491 585.62918442 300.30960083 585.63345337 C280.65943646 585.6229015 261.52420665 582.60185795 242.19067383 579.35275269 C236.10880745 578.33222502 230.02116115 577.39916364 223.9140625 576.54296875 C211.84488872 574.85020942 199.79511358 573.03500306 187.74633789 571.203125 C185.21989368 570.81964831 182.69320242 570.43779552 180.16625977 570.05761719 C165.17448817 567.80198521 150.22373738 565.405913 135.31150818 562.66897583 C128.8892455 561.49288116 122.47037297 560.43601697 116 559.5625 C100.27716025 557.40648287 84.63821343 554.69356053 69 552 C67.94184082 551.81824219 66.88368164 551.63648438 65.79345703 551.44921875 C50.02958859 548.70330858 34.50134745 544.94960792 19 541 C18.05850098 540.76104004 17.11700195 540.52208008 16.14697266 540.27587891 C13.77882228 539.664118 11.41962823 539.02777193 9.0625 538.375 C7.81597656 538.03210937 6.56945312 537.68921875 5.28515625 537.3359375 C0.43750688 535.36459852 -2.91430587 533.05009818 -5.43359375 528.29296875 C-5.93052734 526.75576172 -5.93052734 526.75576172 -6.4375 525.1875 C-6.83710938 523.96546875 -7.23671875 522.7434375 -7.6484375 521.484375 C-8.10363355 519.9910004 -8.55364991 518.49604236 -9 517 C-9.27489258 516.08025391 -9.54978516 515.16050781 -9.83300781 514.21289062 C-11.62927105 508.16252635 -13.37708853 502.09920856 -15.109375 496.03027344 C-16.01619932 492.94488325 -16.99269412 489.88707705 -17.97265625 486.82421875 C-20.41070013 478.94201059 -22.13484372 470.93296326 -23.875 462.875 C-24.22455227 461.27592235 -24.57465799 459.67696559 -24.92529297 458.078125 C-25.62636112 454.87908555 -26.32490805 451.67951256 -27.02148438 448.47949219 C-28.12794705 443.40384419 -29.25972584 438.33397302 -30.39477539 433.26464844 C-31.60693365 427.84539729 -32.8035894 422.42274537 -34 417 C-34.23928223 415.92008789 -34.47856445 414.84017578 -34.72509766 413.72753906 C-38.2139675 397.93336245 -41.35370791 382.09176874 -44.32397461 366.19384766 C-46.43780334 354.89119579 -48.65698459 343.61334632 -50.93621826 332.34298706 C-52.60531403 324.08190856 -54.23773758 315.81607322 -55.78515625 307.53125 C-55.93443573 306.73344116 -56.08371521 305.93563232 -56.23751831 305.11364746 C-56.94508584 301.32632567 -57.64720889 297.53812721 -58.33984375 293.74804688 C-60.86375941 280.08679945 -63.93411185 266.54832009 -67 253 C-67.07100426 260.4352141 -67.12354405 267.87039124 -67.15543652 275.30587196 C-67.17077988 278.76230863 -67.19140413 282.21850591 -67.22631836 285.67480469 C-67.40835081 304.21736035 -66.56061811 322.27478887 -64.38589478 340.72027588 C-64.03868965 343.67117623 -63.71184508 346.62311577 -63.3972168 349.57763672 C-62.87801781 354.4304232 -62.32309721 359.27830304 -61.75 364.125 C-61.64972504 364.97790619 -61.54945007 365.83081238 -61.44613647 366.70956421 C-59.20635046 385.59127782 -56.2406297 404.34743598 -53.13305664 423.10321045 C-52.36878632 427.71914767 -51.63625557 432.33781037 -50.94140625 436.96484375 C-47.52891434 459.38339294 -42.59518092 481.28556506 -35.8671875 502.921875 C-34.57605739 507.08654863 -33.33515626 511.26195399 -32.1328125 515.453125 C-31.67515503 517.04821899 -31.67515503 517.04821899 -31.20825195 518.67553711 C-30.62981762 520.70123969 -30.05516229 522.72802693 -29.48510742 524.75610352 C-25.65948548 539.47040388 -25.65948548 539.47040388 -15.6015625 550.0625 C-14.28221671 550.72085618 -12.95644469 551.36646926 -11.625 552 C-10.99722656 552.31710937 -10.36945313 552.63421875 -9.72265625 552.9609375 C1.08451308 558.24820234 12.56908658 561.64823573 24.25 564.375 C25.47364258 564.66536133 26.69728516 564.95572266 27.95800781 565.25488281 C37.85677935 567.57098141 47.7938108 569.69613587 57.75 571.75 C58.44049438 571.89266296 59.13098877 572.03532593 59.84240723 572.18231201 C69.56001724 574.18122236 79.30443731 575.98284652 89.08099365 577.66876221 C90.82089164 577.96908428 92.56014306 578.27314625 94.29931641 578.57763672 C97.17746125 579.08021489 100.05715638 579.57270049 102.9375 580.0625 C103.85466797 580.22298828 104.77183594 580.38347656 105.71679688 580.54882812 C111.6914426 581.56017196 117.65987594 582.30937454 123.68359375 582.94140625 C131.82686877 583.80367181 139.85517168 585.06510666 147.91723633 586.48693848 C162.03435161 588.96832239 176.15962061 591.03798361 190.39501953 592.70654297 C191.61560059 592.84979004 192.83618164 592.99303711 194.09375 593.140625 C195.66672852 593.31899902 195.66672852 593.31899902 197.27148438 593.50097656 C200.3362822 593.9111682 203.35958402 594.40066847 206.40490723 594.92962646 C212.99849736 596.03541064 219.60978532 596.8567107 226.25 597.625 C227.95736328 597.82609375 227.95736328 597.82609375 229.69921875 598.03125 C232.46585546 598.35673667 235.2327684 598.6796175 238 599 C238.26638192 614.49564913 238.52725171 629.99138338 238.78230286 645.48722267 C238.90096001 652.68927867 239.02116739 659.89130142 239.14550781 667.09326172 C239.64806264 696.25683445 240.09351596 725.41724538 240.125 754.5859375 C240.1275882 755.65852436 240.13017639 756.73111122 240.13284302 757.83620071 C240.15905791 771.40423646 239.84485739 784.92538805 239.23075867 798.47975159 C238.91886 805.49687538 238.8138532 812.50999903 238.81469727 819.53344727 C238.81246084 821.5986657 238.79397799 823.66338657 238.77539062 825.72851562 C238.7417331 834.09759055 239.35748281 842.16383452 240.55078125 850.44921875 C241.16176934 855.27868115 241.42035973 860.14142358 241 865 C240 866 240 866 237.99169922 866.10006714 C237.10498535 866.08879791 236.21827148 866.07752869 235.3046875 866.06591797 C234.29437973 866.05628525 233.28407196 866.04665253 232.2431488 866.03672791 C231.1316597 866.02202957 230.02017059 866.00733124 228.875 865.9921875 C226.49227715 865.97221343 224.10954526 865.95329674 221.72680664 865.93530273 C219.83625046 865.91969803 219.83625046 865.91969803 217.90750122 865.90377808 C197.2068245 865.75132114 176.73336965 866.08668622 156.10864258 867.86279297 C154.49693515 868.00129805 152.88520045 868.13948623 151.2734375 868.27734375 C150.49612778 868.3441333 149.71881805 868.41092285 148.91795349 868.47973633 C140.68200995 869.15857485 132.44694404 869.3408907 124.1875 869.5 C108.53863112 869.81733392 93.14197623 871.33331802 77.62060547 873.30175781 C46.54575083 877.22985941 15.32612291 877.23499728 -15.9375 877 C-22.38565934 876.95204047 -28.83371658 876.91165848 -35.28201485 876.88812256 C-37.79639322 876.8755306 -40.31042112 876.85057907 -42.82469177 876.82470703 C-52.02058361 876.76686 -61.01905616 877.23022232 -70.15778255 878.29489136 C-75.14662805 878.87052528 -79.97667175 879.09112736 -85 879 C-85.19774527 873.0017267 -85.13315218 867.21002889 -84.14453125 861.28125 C-82.38875763 849.45852303 -81.54792057 837.53163557 -80.5625 825.625 C-80.45118484 824.29067885 -80.33985656 822.95635879 -80.22851562 821.62203979 C-78.5043099 800.87431441 -77.19589944 780.12426042 -76.16650391 759.32983398 C-75.01325352 736.19167679 -73.49481739 713.08093784 -71.95757008 689.96567345 C-68.98818646 646.98479247 -68.98818646 646.98479247 -67.4375 603.9375 C-67.37786164 600.71735469 -67.31391611 597.49732695 -67.24609375 594.27734375 C-67.23008118 593.50194748 -67.2140686 592.72655121 -67.1975708 591.92765808 C-67.07308074 586.57293284 -66.80799607 581.23642264 -66.48046875 575.890625 C-65.9547954 567.19230465 -65.84311859 558.52487497 -65.875 549.8125 C-65.8765509 549.0447525 -65.87810181 548.277005 -65.87969971 547.48599243 C-65.96892016 509.29718733 -67.57382157 471.07222089 -73.50390625 433.30859375 C-78.79669373 399.32839806 -82.08981059 365.25471003 -85.10521412 331.01012325 C-85.19803181 329.95625848 -85.19803181 329.95625848 -85.29272461 328.88110352 C-85.35324603 328.19377168 -85.41376745 327.50643984 -85.47612286 326.79827976 C-85.83183328 322.79179755 -86.2168962 318.78965153 -86.63110352 314.78881836 C-88.03116589 301.11652181 -88.35696916 287.5525744 -88.3125 273.8125 C-88.31134186 272.69713867 -88.31018372 271.58177734 -88.30899048 270.43261719 C-88.27668627 254.67380434 -87.85312691 239.19875374 -85.40576172 223.60058594 C-85.02117813 221.13573371 -84.69172852 218.6701527 -84.37890625 216.1953125 C-81.6187506 195.44799604 -76.38303794 174.58392417 -69 155 C-68.50040771 153.65784424 -68.50040771 153.65784424 -67.99072266 152.28857422 C-62.72523664 138.2746415 -56.65023114 124.76235343 -50.04638672 111.3425293 C-46.74097414 104.62502901 -43.57106673 97.88291258 -40.625 91 C-37.9550387 84.81949537 -34.81024193 79.23571193 -31.1875 73.546875 C-16.97446635 50.86371244 -8.05150538 25.39109548 0 0 Z " fill="#231F20" transform="translate(515,653)"/>
<path d="M0 0 C2.68865095 1.27077185 5.01534914 2.6579479 7.37109375 4.46875 C16.2548223 11.11606183 25.16249881 16.35168934 35.30639648 20.87695312 C36.16434814 21.26044922 37.0222998 21.64394531 37.90625 22.0390625 C39.05577148 22.53720459 39.05577148 22.53720459 40.22851562 23.04541016 C42 24 42 24 43 26 C42.29418945 28.3371582 42.29418945 28.3371582 41.11328125 31.30078125 C40.6762085 32.40655518 40.23913574 33.5123291 39.78881836 34.65161133 C39.05804077 36.46375122 39.05804077 36.46375122 38.3125 38.3125 C37.80362738 39.59054376 37.29525405 40.86878642 36.78735352 42.1472168 C33.87791802 49.44575913 30.88206821 56.70591728 27.84521484 63.95239258 C21.85804792 78.24330107 16.2209574 92.652368 10.6875 107.125 C10.30713593 108.11915924 9.92677185 109.11331848 9.53488159 110.13760376 C5.66890672 120.25209599 1.83742783 130.37903978 -1.91796875 140.53515625 C-2.20166824 141.30042633 -2.48536774 142.06569641 -2.77766418 142.85415649 C-4.66346042 147.97903143 -6.35420096 153.13951096 -7.91015625 158.375 C-9.36253498 163.20585113 -10.90187573 168.00757395 -12.4375 172.8125 C-13.05098534 174.73821624 -13.66426907 176.66399673 -14.27734375 178.58984375 C-15.91992541 183.74903933 -15.91992541 183.74903933 -16.69189453 186.16845703 C-17.9273093 190.04663553 -19.13962545 193.93109241 -20.33007812 197.82324219 C-20.79725188 199.34121638 -21.2703758 200.85736661 -21.74804688 202.37207031 C-26.65444932 217.98498665 -30.33801517 233.78053611 -33.80371094 249.76367188 C-34.16405054 251.41811329 -34.52504267 253.07241274 -34.88671875 254.7265625 C-35.06296783 255.53279053 -35.23921692 256.33901855 -35.42080688 257.16967773 C-36.47098805 261.88499901 -37.68809887 266.5044542 -39.08203125 271.1328125 C-41.42367214 279.06590666 -42.71153828 287.09451573 -44 295.25 C-44.25761505 296.84197617 -44.51584295 298.43385328 -44.7746582 300.02563477 C-45.52862696 304.68185458 -46.26601554 309.34059481 -47 314 C-47.20157715 315.27278809 -47.4031543 316.54557617 -47.61083984 317.85693359 C-48.58356735 324.01981452 -49.55129252 330.18354138 -50.45895386 336.35638428 C-50.85376584 339.01520215 -51.25997443 341.67114272 -51.67349243 344.32702637 C-53.81618404 358.36495366 -55.16262515 372.40448392 -56.16796875 386.56640625 C-56.25457449 387.77533602 -56.34118023 388.98426579 -56.43041039 390.22982979 C-58.50069477 419.95443189 -58.51081703 449.64472156 -58.3446511 479.42588961 C-58.30900427 486.01254972 -58.29793655 492.59914724 -58.28938007 499.18588924 C-58.28098787 505.63874819 -58.26385469 512.09157988 -58.24434257 518.54441381 C-58.23841295 520.54540005 -58.23319396 522.54638836 -58.2279911 524.54737663 C-58.18652473 537.72486148 -58.04284321 550.88779989 -57.54760742 564.05688477 C-57.50928708 565.07918906 -57.47096674 566.10149336 -57.43148518 567.15477657 C-57.0516025 576.29666066 -56.28311941 585.39666983 -55.4609375 594.5078125 C-55.11377754 598.45354884 -54.86603609 602.38609207 -54.70727539 606.34326172 C-54.31332208 616.07168749 -53.20018258 625.71102282 -52.0625 635.375 C-51.97695862 636.10724792 -51.89141724 636.83949585 -51.80328369 637.59393311 C-51.00538197 644.38152114 -50.18561744 651.15294225 -49.00390625 657.88671875 C-47.73262561 665.22357453 -46.94718717 672.61200924 -46.14013672 680.01147461 C-45.87275404 682.45805072 -45.59881676 684.90383367 -45.32421875 687.34960938 C-45.15065547 688.91922818 -44.97746474 690.48888823 -44.8046875 692.05859375 C-44.72346649 692.78259872 -44.64224548 693.5066037 -44.55856323 694.25254822 C-44.1697296 697.85233072 -43.90910574 701.37879052 -44 705 C-47.97878139 702.04141896 -51.02120639 698.87267508 -54.125 695 C-65.99700608 680.23481597 -78.30124683 665.82375461 -98.43359375 663.625 C-109.6553607 663.41351794 -118.28098171 665.81303108 -128.3125 670.7578125 C-131 672 -131 672 -133 672 C-135.77822381 644.17278058 -136.41635981 616.58689311 -136.26428223 588.63470459 C-136.2450897 584.42227238 -136.24111884 580.20988377 -136.2375679 575.99741364 C-136.232363 570.86284018 -136.21793122 565.72830314 -136.203125 560.59375 C-136.20030392 559.19014977 -136.20030392 559.19014977 -136.19742584 557.75819397 C-136.1707725 547.52597392 -135.99249797 537.31549816 -135.53930664 527.0925293 C-135.49944515 526.18577957 -135.45958366 525.27902985 -135.41851425 524.34480286 C-135.07640878 517.26427166 -134.23824824 510.32188327 -133.1875 503.3125 C-130.98718343 487.38841409 -130.00927744 471.41207224 -129 455.375 C-127.73153214 435.44560296 -126.40567893 415.69921269 -123 396 C-122.81324707 394.90751953 -122.62649414 393.81503906 -122.43408203 392.68945312 C-119.8108339 377.65328316 -116.410415 362.82822858 -112.74511719 348.01611328 C-111.51994859 343.0568299 -110.31953689 338.09173594 -109.125 333.125 C-108.80208984 331.80471802 -108.80208984 331.80471802 -108.47265625 330.45776367 C-108.18068359 329.24503784 -108.18068359 329.24503784 -107.8828125 328.0078125 C-107.71152832 327.30285645 -107.54024414 326.59790039 -107.36376953 325.87158203 C-106.90460287 323.82695269 -106.90460287 323.82695269 -107 321 C-107.19110352 321.74983154 -107.38220703 322.49966309 -107.57910156 323.2722168 C-108.46613293 326.74482184 -109.35804493 330.21615651 -110.25 333.6875 C-110.55035156 334.86634766 -110.85070312 336.04519531 -111.16015625 337.25976562 C-112.67050743 343.12442714 -114.26034241 348.93477799 -116.08203125 354.7109375 C-117.86363317 360.40334132 -119.23653431 366.09835791 -120.4375 371.9375 C-120.86383325 373.9454719 -121.29093609 375.95328054 -121.71875 377.9609375 C-121.93144531 378.96608398 -122.14414062 379.97123047 -122.36328125 381.00683594 C-123.3612329 385.69812705 -124.38768608 390.3825511 -125.4375 395.0625 C-125.6425415 395.97700928 -125.84758301 396.89151855 -126.05883789 397.83374023 C-127.26130432 403.0877435 -128.62398984 408.26238319 -130.1315918 413.4362793 C-133.81541033 426.14031161 -136.18209964 439.00923734 -138.46435547 452.0234375 C-140.35241469 462.75748647 -142.5724055 473.37551088 -145 484 C-147.80879344 496.90674841 -149.28872639 510.01815279 -150.85913086 523.12158203 C-151.44283612 527.90772739 -152.10402759 532.64447882 -152.9765625 537.38671875 C-154.40643042 545.75972142 -154.9516669 554.22638701 -155.63244629 562.68597412 C-157.26285482 582.86176689 -159.34945339 602.93340192 -162 623 C-164.21390292 620.95144268 -165.6436749 619.07287412 -166.98046875 616.375 C-167.33568604 615.67358887 -167.69090332 614.97217773 -168.05688477 614.24951172 C-168.42998779 613.50717285 -168.80309082 612.76483398 -169.1875 612 C-176.51443731 597.84905714 -184.71370221 586.03472115 -200 580 C-211.76475868 576.86406263 -223.83411948 578.88103074 -235 583 C-236.32785319 583.3545346 -237.65934045 583.69747587 -239 584 C-239.32687188 577.5533602 -238.08323791 571.66480254 -236.75 565.375 C-236.28280932 563.11740347 -235.81667815 560.85958745 -235.3515625 558.6015625 C-235.11985352 557.48168945 -234.88814453 556.36181641 -234.64941406 555.20800781 C-233.90974382 551.55414805 -233.23656851 547.89138214 -232.57421875 544.22290039 C-230.70956088 533.9581615 -228.33195694 523.85396463 -225.83496094 513.72607422 C-224.21954041 507.14395148 -222.65836345 500.55825466 -221.2265625 493.93359375 C-221.07734848 493.24344177 -220.92813446 492.55328979 -220.7743988 491.84222412 C-220.54708824 490.79037933 -220.54708824 490.79037933 -220.31518555 489.71728516 C-216.92710689 474.04368087 -213.21576598 458.46276812 -209.28521729 442.91607666 C-208.72986412 440.71909491 -208.17699572 438.52148322 -207.62689209 436.32318115 C-204.43246431 423.58591823 -200.84349666 411.11016033 -196.58154297 398.68920898 C-194.83341776 393.57465613 -193.34792345 388.41470566 -191.89990234 383.20703125 C-184.51387524 356.88504208 -174.68741436 331.29538368 -165.03631592 305.74438477 C-164.05222952 303.13831486 -163.07105733 300.53116433 -162.09033203 297.92382812 C-155.60892683 280.72457275 -148.75010101 263.79499032 -141.04492188 247.10595703 C-137.22028455 238.80928145 -133.68480918 230.42948849 -130.3125 221.9375 C-123.68421695 205.37040779 -115.72160902 189.72450526 -106.75756836 174.30834961 C-102.87601571 167.61420325 -99.20197016 160.82462899 -95.57904053 153.98739624 C-88.97837561 141.53455841 -82.05973833 129.30401484 -74.87597656 117.17675781 C-72.85066655 113.7471204 -70.8414391 110.30842805 -68.8359375 106.8671875 C-56.17694988 85.15723839 -43.20615995 63.66970683 -29.62109375 42.5234375 C-28.09834385 40.15308465 -26.58013439 37.77987981 -25.0625 35.40625 C-20.52844741 28.33420862 -15.91678961 21.31818881 -11.1875 14.375 C-10.75542236 13.73578613 -10.32334473 13.09657227 -9.87817383 12.43798828 C-6.85575505 8.03973989 -3.54369836 3.98847882 0 0 Z " fill="#231F20" transform="translate(443,568)"/>
<path d="M0 0 C0.66 0 1.32 0 2 0 C2.10957031 0.61746094 2.21914062 1.23492188 2.33203125 1.87109375 C3.4377266 7.77712501 4.95361435 13.35197559 7 19 C9.31 19.33 11.62 19.66 14 20 C13 23 13 23 11 24 C11.47610659 28.99911924 13.03162219 31.97832683 16 36 C16.99 35.34 17.98 34.68 19 34 C20.32 34 21.64 34 23 34 C22.97679687 34.61488281 22.95359375 35.22976563 22.9296875 35.86328125 C22.91164063 36.67152344 22.89359375 37.47976563 22.875 38.3125 C22.85179687 39.11300781 22.82859375 39.91351562 22.8046875 40.73828125 C22.84182678 43.28388576 22.84182678 43.28388576 25 46 C25.99 46 26.98 46 28 46 C29.70532323 44.05990478 29.70532323 44.05990478 31 42 C32.98 42.495 32.98 42.495 35 43 C35.99 48.445 35.99 48.445 37 54 C37.66 54 38.32 54 39 54 C40.63676257 52.0399719 40.63676257 52.0399719 42 50 C43.65 50.33 45.3 50.66 47 51 C48.58255197 55.32564205 49.45144652 59.428721 50 64 C50.66 64 51.32 64 52 64 C52.226875 63.443125 52.45375 62.88625 52.6875 62.3125 C54.35896766 59.36753316 56.55276352 57.31843456 59 55 C59.20496094 55.77085937 59.40992188 56.54171875 59.62109375 57.3359375 C59.89050781 58.33882812 60.15992188 59.34171875 60.4375 60.375 C60.70433594 61.37273438 60.97117187 62.37046875 61.24609375 63.3984375 C61.90184356 65.95417701 61.90184356 65.95417701 63 68 C65.89159735 67.58691466 66.8918842 67.11509101 68.9375 64.9375 C71 63 71 63 73.75 62.75 C74.4925 62.8325 75.235 62.915 76 63 C75.97679687 63.60328125 75.95359375 64.2065625 75.9296875 64.828125 C75.91164063 65.62734375 75.89359375 66.4265625 75.875 67.25 C75.85179687 68.03890625 75.82859375 68.8278125 75.8046875 69.640625 C76.0171622 72.20731941 76.71345895 73.7916067 78 76 C79.92309422 75.96044102 79.92309422 75.96044102 82 75 C83.78379415 72.01647106 83.78379415 72.01647106 85 69 C86.485 69.495 86.485 69.495 88 70 C88.69258229 71.99117408 89.35747635 73.9921136 90 76 C91.37506099 77.87890434 91.37506099 77.87890434 93 79 C93.66 79 94.32 79 95 79 C95.556875 78.01 95.556875 78.01 96.125 77 C98 75 98 75 99.97265625 74.734375 C101.98367086 74.74856205 103.99324516 74.86840952 106 75 C105.67 76.32 105.34 77.64 105 79 C107.65837761 78.54427812 109.95712169 78.01869055 112.4375 76.9375 C115.42308583 75.8452125 117.84529623 75.85326959 121 76 C124.59299019 83.7572136 126.18562506 91.32607212 127.4375 99.75 C127.64598149 101.10561502 127.85489685 102.46116338 128.06420898 103.81665039 C128.7345972 108.20754561 129.37145842 112.60294176 130 117 C130.10654907 117.74280212 130.21309814 118.48560425 130.32287598 119.25091553 C135.77495658 157.41444833 139.61430011 195.2417602 139.73902893 233.81574631 C139.75409488 237.67353639 139.78207011 241.53119746 139.80967331 245.38891506 C139.88428175 255.87759994 139.93010106 266.36623607 139.96363449 276.85512447 C139.99057601 285.03060935 140.031719 293.20595186 140.078125 301.38134766 C140.14700615 313.66563433 140.19460828 325.94988187 140.22814941 338.23431396 C140.24126806 342.97235324 140.26028473 347.71030831 140.2845459 352.44830322 C140.4511065 386.92856192 139.6513449 420.9394529 134.00268555 455.02856445 C133.55056564 457.75958935 133.12065222 460.49350518 132.69335938 463.22851562 C129.96258838 480.44724162 126.35522543 497.10701937 120.75 513.625 C120.51011353 514.33924133 120.27022705 515.05348267 120.02307129 515.78936768 C116.4759326 526.31003883 112.64576823 536.40826473 107 546 C106.45214844 546.97710938 105.90429688 547.95421875 105.33984375 548.9609375 C95.19321666 566.08786834 79.29349654 580.4345683 60 586 C54.39803738 587.27242219 48.83609345 587.11280096 43.125 587.0625 C42.15046875 587.05798828 41.1759375 587.05347656 40.171875 587.04882812 C37.78118566 587.03710906 35.3906256 587.02070219 33 587 C33.01885254 587.68271973 33.03770508 588.36543945 33.05712891 589.06884766 C33.07179199 589.96651855 33.08645508 590.86418945 33.1015625 591.7890625 C33.12041504 592.67803223 33.13926758 593.56700195 33.15869141 594.48291016 C32.91924921 598.28083172 31.51892228 600.215928 29 603 C25.25109423 605.96788373 23.84230383 607 19 607 C14.12920254 593.66653209 9.37685734 580.29603494 4.77050781 566.86914062 C4.00286549 564.63334589 3.23194129 562.39869991 2.4609375 560.1640625 C-9.49690116 525.3967951 -17.63632303 496.04150748 -0.828125 461.38037109 C5.56025969 448.61391887 12.78958239 436.31284737 20 424 C21.19174822 421.95723072 22.38316939 419.91427058 23.57421875 417.87109375 C25.2847689 414.93816747 26.99650241 412.00597193 28.71240234 409.07617188 C31.80643208 403.78809846 34.87369726 398.48594702 37.90234375 393.16015625 C38.232948 392.57885452 38.56355225 391.9975528 38.9041748 391.39863586 C40.25215697 389.02776423 41.59989448 386.65675388 42.94708252 384.28543091 C47.79676796 375.75702294 52.7861477 367.3262156 57.875 358.9375 C70.89665429 337.38710231 80.22769434 319.75483469 80.25 294.0625 C80.25067474 293.36747375 80.25134949 292.67244751 80.25204468 291.95635986 C80.2229901 273.14582976 78.04736299 251.19398404 64.07421875 237.05078125 C57.75284256 232.09306574 51.74451578 232.16188383 44 233 C37.11842764 233.9268511 30.23470799 235.0277789 23.46484375 236.58203125 C20.00182164 237.16926321 16.56468248 237.22398565 13.0625 237.25 C12.02706055 237.2809375 12.02706055 237.2809375 10.97070312 237.3125 C4.57578429 237.36099228 0.99748855 235.67007651 -3.8359375 231.62890625 C-7.50321754 226.88137625 -6.66282028 220.64521132 -6.625 214.9375 C-6.625 212.61324478 -6.63754677 210.28894772 -6.6640625 207.96484375 C-6.65842285 206.9399585 -6.6527832 205.91507324 -6.64697266 204.85913086 C-7.13720821 200.88876534 -8.6733859 198.17678474 -11.66015625 195.52734375 C-14.0704382 192.77976286 -13.42456856 189.19614075 -13.49609375 185.69140625 C-13.75531917 182.85779247 -13.75531917 182.85779247 -16.01953125 181.07421875 C-18 179 -18 179 -18.390625 175.765625 C-18.34421875 174.60546875 -18.2978125 173.4453125 -18.25 172.25 C-18.21390625 171.07953125 -18.1778125 169.9090625 -18.140625 168.703125 C-18.09421875 167.81109375 -18.0478125 166.9190625 -18 166 C-18.95261719 165.63648438 -19.90523437 165.27296875 -20.88671875 164.8984375 C-34.02671596 159.70870536 -34.02671596 159.70870536 -37 154 C-36.70551083 149.20964291 -35.2849011 146.50253655 -32.375 142.75 C-31.2921875 141.30947266 -31.2921875 141.30947266 -30.1875 139.83984375 C-28.84347216 138.09500761 -27.49113029 136.35649185 -26.125 134.62890625 C-19.47527967 125.82693269 -13.83102299 113.45542988 -13.90234375 102.25073242 C-13.90564697 101.31263229 -13.9089502 100.37453217 -13.91235352 99.40800476 C-13.92065186 98.40066788 -13.9289502 97.39333099 -13.9375 96.35546875 C-13.94128662 95.3123201 -13.94507324 94.26917145 -13.94897461 93.19441223 C-13.9653056 88.73494667 -13.99338126 84.27557299 -14.02050781 79.81616211 C-14.03863943 76.55843533 -14.05070682 73.30072366 -14.0625 70.04296875 C-14.07079834 69.04170456 -14.07909668 68.04044037 -14.08764648 67.00883484 C-14.10549517 61.88879351 -13.89069226 57.04477227 -13 52 C-13.58007812 52.04640625 -14.16015625 52.0928125 -14.7578125 52.140625 C-20.41927486 52.40221072 -23.53377393 51.82819378 -28 48 C-30.87984798 45.21945713 -31.88880992 42.21600144 -32.25390625 38.21484375 C-31.49489833 31.59395926 -25.78194614 26.31124826 -20.8046875 22.3515625 C-20.20914062 21.90554688 -19.61359375 21.45953125 -19 21 C-18.36320312 20.51273438 -17.72640625 20.02546875 -17.0703125 19.5234375 C-12.32646648 16 -12.32646648 16 -10 16 C-9.67 16.66 -9.34 17.32 -9 18 C-8.76925781 17.28714844 -8.53851562 16.57429687 -8.30078125 15.83984375 C-6.24098831 9.79072852 -4.1380963 4.9003772 0 0 Z " fill="#231F20" transform="translate(1186,517)"/>
<path d="M0 0 C3.20486882 1.01953545 4.75320483 0.98894702 7.91015625 -0.07421875 C9.58099444 -1.4023209 11.24745338 -2.73594571 12.91015625 -4.07421875 C18.07319462 -6.47563195 23.3116443 -6.50719719 28.91015625 -6.07421875 C29.90015625 -5.57921875 29.90015625 -5.57921875 30.91015625 -5.07421875 C30.54273454 1.29442415 30.54273454 1.29442415 27.88671875 3.9453125 C24.23730308 6.37346702 20.57017889 7.85357642 16.47265625 9.36328125 C15.67859375 9.66331055 14.88453125 9.96333984 14.06640625 10.27246094 C11.68491082 11.16791086 9.29858971 12.04902734 6.91015625 12.92578125 C6.23581543 13.17537598 5.56147461 13.4249707 4.86669922 13.68212891 C-1.69193501 16.103441 -8.2395485 18.37467977 -15.00390625 20.15234375 C-17.52141791 21.08580313 -19.15233874 22.05596201 -21.08984375 23.92578125 C-21.89406455 26.52433858 -21.89406455 26.52433858 -22.08984375 28.92578125 C-20.9503125 28.41789062 -19.81078125 27.91 -18.63671875 27.38671875 C-7.00481128 22.29224405 4.65677068 18.23978101 16.91015625 14.92578125 C17.78978027 14.68698242 18.6694043 14.44818359 19.57568359 14.20214844 C22.22528108 13.49129255 24.8786198 12.79771859 27.53515625 12.11328125 C28.32784912 11.90614502 29.12054199 11.69900879 29.93725586 11.4855957 C35.57418284 10.08065634 41.12204502 9.36490029 46.91015625 8.92578125 C48.08578125 8.82394531 49.26140625 8.72210937 50.47265625 8.6171875 C62.70114532 8.15861916 73.94670078 11.23112167 85.74804688 14.16064453 C90.28078331 15.25743236 94.83577318 16.20828393 99.41015625 17.11328125 C100.20663574 17.27352783 101.00311523 17.43377441 101.82373047 17.59887695 C105.84926782 18.39115897 109.87126385 19.08409552 113.93359375 19.66015625 C115.1565918 19.83961792 115.1565918 19.83961792 116.40429688 20.02270508 C117.93431555 20.24157055 119.46692179 20.44339621 121.00195312 20.6237793 C127.66659229 21.57531396 131.27754803 24.80664551 135.23681641 29.94580078 C135.98381774 31.06040094 136.72092717 32.18167942 137.44921875 33.30859375 C137.85206589 33.91554077 138.25491302 34.52248779 138.66996765 35.14782715 C139.96806585 37.10928258 141.25215373 39.079425 142.53515625 41.05078125 C143.43595734 42.42268168 144.33724694 43.79426145 145.23901367 45.16552734 C147.42646473 48.49780498 149.60134552 51.83808489 151.77301025 55.18066406 C153.29048499 57.50945145 154.82548775 59.82653175 156.359375 62.14453125 C162.94190975 72.20424065 168.65934204 82.68673267 174.26806641 93.30981445 C178.25424263 100.85920933 182.35479795 108.32928276 186.59765625 115.73828125 C190.94437516 123.33907949 195.08736133 131.01737667 199.09765625 138.80078125 C206.81954195 153.71514446 215.23409696 167.59661377 224.9362793 181.31689453 C229.18549823 187.35152074 233.18968986 193.46417879 236.97265625 199.80078125 C242.57566905 209.14386591 248.94059701 217.05355277 256.36914062 224.99389648 C260.27155517 229.17878655 263.91606998 233.51844336 267.5 237.98046875 C270.40046273 241.52495643 273.39876414 244.97554305 276.41015625 248.42578125 C280.92524557 253.60479703 285.34254544 258.84415178 289.66796875 264.18359375 C292.66883305 267.85364034 295.73946885 271.46228697 298.81152344 275.07275391 C302.55977815 279.48704262 306.21711139 283.97019678 309.83984375 288.48828125 C311.92306887 291.0078296 311.92306887 291.0078296 314.46484375 293.48046875 C316.57149717 295.58712217 318.38424547 297.66732204 320.16015625 300.05078125 C320.6603125 300.71335937 321.16046875 301.3759375 321.67578125 302.05859375 C324.10768133 305.73722742 324.03873189 308.95657412 324.04296875 313.24609375 C324.04425781 314.50421875 324.04554688 315.76234375 324.046875 317.05859375 C324.04300781 318.37601563 324.03914063 319.6934375 324.03515625 321.05078125 C324.03902344 322.345 324.04289062 323.63921875 324.046875 324.97265625 C324.04077613 330.96174768 323.93658302 336.81874747 323.15527344 342.7578125 C322.55731897 348.04649346 322.54139022 353.40729929 322.39257812 358.72460938 C322.35841797 359.62501953 322.32425781 360.52542969 322.2890625 361.453125 C322.26400635 362.26515381 322.2389502 363.07718262 322.21313477 363.91381836 C321.91015625 365.92578125 321.91015625 365.92578125 319.91015625 367.92578125 C317.5595643 368.58981555 315.26084725 369.15137854 312.875 369.65234375 C311.80772423 369.88115738 311.80772423 369.88115738 310.71888733 370.11459351 C309.20237195 370.43629204 307.68495583 370.75376845 306.16674805 371.06738281 C303.90446851 371.53893913 301.64892901 372.03611973 299.39257812 372.53515625 C272.46749492 378.27522569 272.46749492 378.27522569 261.75 372.2890625 C255.17814987 367.41947504 251.75256971 360.99467026 248.09692383 353.84301758 C243.15463175 344.31220986 236.50928001 335.96340553 229.97265625 327.48828125 C229.55999512 326.95219238 229.14733398 326.41610352 228.72216797 325.86376953 C228.30596191 325.32349121 227.88975586 324.78321289 227.4609375 324.2265625 C227.04150879 323.68209473 226.62208008 323.13762695 226.18994141 322.57666016 C225.34066633 321.48112446 224.48620262 320.38959037 223.62646484 319.30224609 C214.22140059 307.37878931 207.0279234 294.30841069 199.91015625 280.92578125 C199.39839844 279.96559082 198.88664062 279.00540039 198.359375 278.01611328 C185.17830968 253.04077679 173.95151743 226.67723859 164.91015625 199.92578125 C164.60674316 199.0322998 164.30333008 198.13881836 163.99072266 197.21826172 C162.1900842 191.89900477 160.42444248 186.56896618 158.67431641 181.23291016 C158.00167699 179.20209785 157.30722183 177.17853885 156.609375 175.15625 C153.54513539 166.26296826 150.982499 157.26458261 148.49609375 148.19433594 C147.06791716 142.99477676 145.58399319 137.82569837 143.97265625 132.6796875 C141.58959266 125.00531785 139.51941728 117.25755019 137.47265625 109.48828125 C137.17959595 108.38116287 137.17959595 108.38116287 136.88061523 107.25167847 C133.76695698 95.47414206 130.87931868 83.66265694 128.33984375 71.74633789 C127.88767727 69.70859265 127.88767727 69.70859265 126.91015625 66.92578125 C121.77366421 66.49057033 116.63656186 66.06374513 111.4987793 65.64404297 C109.75803722 65.50073112 108.01746875 65.3552914 106.27709961 65.20751953 C85.27200998 62.37815704 85.27200998 62.37815704 65.53515625 67.55078125 C64.11159785 68.29325624 62.68438761 69.0287647 61.25390625 69.7578125 C60.54105469 70.12471191 59.82820313 70.49161133 59.09375 70.86962891 C55.50595764 72.60495871 51.79806732 73.93654947 48.03515625 75.23828125 C47.38240723 75.46789551 46.7296582 75.69750977 46.05712891 75.93408203 C36.13329273 79.32809856 26.22095763 81.53510308 15.84765625 83.05078125 C14.18766602 83.30408203 14.18766602 83.30408203 12.49414062 83.5625 C2.51271765 85.06000823 -7.29324801 86.08061945 -17.390625 86.12890625 C-18.34768845 86.13460632 -19.30475189 86.1403064 -20.29081726 86.1461792 C-22.30853188 86.15556692 -24.32626141 86.16213817 -26.34399414 86.16601562 C-29.3565729 86.1756351 -32.36844254 86.20668334 -35.38085938 86.23828125 C-54.87191633 86.347954 -73.38765109 83.2751514 -92.43432617 79.39135742 C-95.07780809 78.85300403 -97.72328601 78.32538442 -100.36914062 77.79882812 C-102.07694677 77.45504177 -103.78463398 77.11066393 -105.4921875 76.765625 C-106.27029282 76.6103685 -107.04839813 76.455112 -107.8500824 76.29515076 C-112.04741315 75.43383953 -116.04703856 74.3786581 -120.08984375 72.92578125 C-119.38882651 59.72883236 -117.95602494 46.62280259 -116.52734375 33.48828125 C-116.29073882 31.29234752 -116.05440867 29.09638416 -115.81835938 26.90039062 C-115.24535146 21.57517552 -114.66896574 16.25033473 -114.08984375 10.92578125 C-109.12359989 9.4620652 -104.15674222 8.00047076 -99.18890381 6.54217529 C-97.49498979 6.04475336 -95.80139889 5.54623118 -94.10791016 5.04736328 C-63.90182257 -3.77409786 -30.18499842 -13.27840699 0 0 Z " fill="#231F20" transform="translate(975.08984375,1146.07421875)"/>
<path d="M0 0 C0.94814072 -0.0033284 1.89628143 -0.0066568 2.87315369 -0.01008606 C4.87075317 -0.01512084 6.86836097 -0.01749546 8.8659668 -0.01733398 C11.86977589 -0.01950768 14.87320939 -0.03766546 17.87695312 -0.05664062 C37.86858719 -0.11522106 60.6041428 0.67750145 77.83984375 12.16796875 C70.46572227 32.61934999 48.6483446 51.40593394 33.58984375 66.54296875 C32.47283081 67.66711182 32.47283081 67.66711182 31.33325195 68.81396484 C26.66355528 73.46964775 21.8466458 77.8788971 16.83984375 82.16796875 C15.85242188 83.03679687 14.865 83.905625 13.84765625 84.80078125 C5.63649415 91.89931976 -3.00096708 98.248618 -11.8515625 104.52392578 C-14.80469253 106.6269691 -17.73504106 108.76044319 -20.66577148 110.89453125 C-46.53034092 129.6946032 -72.83082304 147.27639834 -101.16015625 162.16796875 C-102.1130957 162.66925293 -103.06603516 163.17053711 -104.04785156 163.68701172 C-108.90679618 166.23783629 -113.77360786 168.77264585 -118.6484375 171.29296875 C-122.10724331 173.08558039 -125.54146867 174.91224778 -128.953125 176.79296875 C-146.62755189 186.47953608 -165.97492406 194.73803215 -185.47265625 199.98046875 C-192.80228952 202.0155771 -200.02949693 204.33555016 -207.25708008 206.70629883 C-224.5881122 212.31951889 -224.5881122 212.31951889 -229.16015625 210.16796875 C-234.71110502 202.56111303 -234.62641862 190.31429079 -235.16015625 181.16796875 C-235.2375 179.94851563 -235.31484375 178.7290625 -235.39453125 177.47265625 C-235.4409375 176.21710938 -235.48734375 174.9615625 -235.53515625 173.66796875 C-235.58414062 172.50265625 -235.633125 171.33734375 -235.68359375 170.13671875 C-235.16015625 167.16796875 -235.16015625 167.16796875 -233.08178711 165.63745117 C-229.77213528 163.97280721 -226.41646852 162.78617047 -222.890625 161.6875 C-222.20962234 161.46978439 -221.52861969 161.25206879 -220.82698059 161.02775574 C-218.66904924 160.33936205 -216.5084563 159.65979751 -214.34765625 158.98046875 C-212.87676794 158.51295201 -211.40606269 158.04485892 -209.93554688 157.57617188 C-206.3458334 156.43342563 -202.75370776 155.29858486 -199.16015625 154.16796875 C-201.19819252 154.63290702 -203.23588526 155.09935129 -205.2734375 155.56640625 C-206.40821533 155.82599121 -207.54299316 156.08557617 -208.7121582 156.35302734 C-211.93943852 157.11580166 -215.14357911 157.93863978 -218.34765625 158.79296875 C-223.60748389 160.1306879 -228.75686382 160.78332301 -234.16015625 161.16796875 C-234.28085893 155.06644848 -233.95375801 149.36390559 -232.91015625 143.35546875 C-232.77520752 142.57357178 -232.64025879 141.7916748 -232.5012207 140.98608398 C-228.45776272 118.72071963 -216.4257947 102.67725856 -199.515625 88.1875 C-197.73337358 86.65943369 -195.9680219 85.11162719 -194.2109375 83.5546875 C-143.82423759 39.14007891 -68.40104905 0.08575012 0 0 Z " fill="#231F20" transform="translate(657.16015625,299.83203125)"/>
<path d="M0 0 C0.66 0 1.32 0 2 0 C2.81974263 2.03876949 3.6304807 4.08116075 4.4375 6.125 C4.88996094 7.26195312 5.34242188 8.39890625 5.80859375 9.5703125 C11.91563186 27.15057303 8.46435744 49.37564915 4 67 C3.67 67.66 3.34 68.32 3 69 C0.2075711 87.56821279 11.30873294 105.39987416 19.78198242 121.11816406 C22.8859674 127.02676723 25.03644767 131.28595296 24 138 C22.46757464 141.08956726 20.04269663 142.4718295 17 144 C12.88421212 145.34147382 8.68142533 146.25290364 4.44921875 147.140625 C0.96150033 147.69504553 0.96150033 147.69504553 -1 150 C-1.01457529 152.46322327 -0.95523006 154.85801087 -0.8125 157.3125 C-0.58203125 161.30078125 -0.58203125 161.30078125 -1 165 C-2.62386919 166.70839235 -4.2902351 168.37757603 -6 170 C-6.66368034 172.94008423 -6.66368034 172.94008423 -6.5625 176 C-6.76450761 180.98897583 -7.30021363 183.41583196 -11 187 C-13.45723127 194.37169381 -12.35919692 202.93595855 -10.625 210.375 C-10.01441606 213.59991518 -9.72425226 215.33777117 -10.9921875 218.3828125 C-14.61605824 223.47125276 -19.05193026 227.01731009 -25 229 C-38.14460004 229.79850374 -50.86184518 228.16514706 -63.70703125 225.421875 C-69.33747405 224.38595026 -74.90524015 224.15403929 -80.25 226.3125 C-86.42992434 232.35197151 -90.37971301 239.83086996 -93 248 C-97.2500294 246.6543432 -101.26095313 245.05607664 -105.3125 243.19921875 C-106.54824843 242.63588293 -107.78400737 242.07257017 -109.01977539 241.50927734 C-109.98972946 241.06512482 -109.98972946 241.06512482 -110.97927856 240.61199951 C-125.04057759 234.17881983 -139.19232088 227.97059657 -153.39303589 221.85153198 C-162.50387481 217.92396977 -171.60224072 213.96763274 -180.70114136 210.01251221 C-183.66249663 208.72552834 -186.62431767 207.43962122 -189.58618164 206.15380859 C-201.08305609 201.15930769 -212.55502848 196.11233524 -224 191 C-224.08302368 189.22955322 -224.08302368 189.22955322 -224.16772461 187.42333984 C-224.37475388 183.02863325 -224.58646353 178.63416229 -224.79956055 174.23974609 C-224.89100001 172.34071829 -224.98118386 170.44162958 -225.07006836 168.54248047 C-225.19832602 165.80679471 -225.33115356 163.0713625 -225.46484375 160.3359375 C-225.52272316 159.06996231 -225.52272316 159.06996231 -225.58177185 157.77841187 C-225.79803109 153.44750529 -226.17587691 149.26853499 -227 145 C-221.75111442 143.12539801 -216.5545305 141.63687383 -211.125 140.375 C-187.35664962 134.58747538 -165.16621464 125.12197064 -143 115 C-141.97583984 114.53948242 -140.95167969 114.07896484 -139.89648438 113.60449219 C-120.41207571 104.83448288 -102.31295862 94.08300086 -85.06201172 81.49267578 C-82.20889946 79.42732788 -79.31950394 77.41552384 -76.43115234 75.39990234 C-63.60139292 66.43027202 -50.91587253 57.23415878 -40 45.9375 C-38 44 -38 44 -36 44 C-35.76410156 43.43410156 -35.52820313 42.86820312 -35.28515625 42.28515625 C-33.70585684 39.47697948 -31.77313994 37.65617519 -29.4375 35.4375 C-24.68396255 30.77224254 -20.46577724 25.8759142 -16.32910156 20.66308594 C-14.77198689 18.71469043 -13.19562938 16.78271902 -11.6171875 14.8515625 C-10.736073 13.77285889 -10.736073 13.77285889 -9.8371582 12.67236328 C-8.67193362 11.24600913 -7.50641566 9.81989458 -6.34057617 8.39404297 C-5.8066626 7.73807129 -5.27274902 7.08209961 -4.72265625 6.40625 C-4.00734741 5.52936523 -4.00734741 5.52936523 -3.27758789 4.63476562 C-2.11242705 3.14385849 -1.04960122 1.57440183 0 0 Z " fill="#231F20" transform="translate(749,445)"/>
<path d="M0 0 C3.40334397 1.41548902 5.02147361 2.99272167 7.12890625 5.9921875 C7.68900391 6.77980469 8.24910156 7.56742187 8.82617188 8.37890625 C9.6856543 9.61447266 9.6856543 9.61447266 10.5625 10.875 C11.70951472 12.49748116 12.85664622 14.11987978 14.00390625 15.7421875 C14.50736572 16.4626123 15.0108252 17.18303711 15.52954102 17.92529297 C16.98267436 20.03393478 16.98267436 20.03393478 18.69384766 22.02612305 C20.4805791 24.72625832 20.06543044 26.84990964 19.52978516 29.95263672 C16.67188516 40.99703736 7.59435926 50.6036105 0.48291016 59.18164062 C-1.81661844 62.00134576 -3.99699545 64.90791596 -6.1875 67.8125 C-10.50200346 73.48735516 -15.17528766 78.75732764 -20 84 C-21.12957658 85.28766631 -22.25479091 86.57917618 -23.375 87.875 C-31.79561066 97.49578965 -40.37851242 106.57319824 -50 115 C-50.50225098 115.44166504 -51.00450195 115.88333008 -51.52197266 116.33837891 C-59.81358829 123.59188744 -68.48555127 130.31260232 -77.28564453 136.93457031 C-79.4290443 138.56554369 -81.55686547 140.2120628 -83.67919922 141.87011719 C-94.01818169 149.91571698 -104.65624466 157.34147159 -115.625 164.5 C-116.45249756 165.04248383 -117.27999512 165.58496765 -118.13256836 166.14389038 C-130.32616417 174.12859551 -142.61002775 181.7472694 -155.46679688 188.62890625 C-158.0154587 190.008367 -160.53240505 191.43427668 -163.046875 192.875 C-195.34012351 211.222116 -228.95476816 224.20624585 -265 233 C-245.54660636 229.85921958 -227.12340903 225.36130826 -208.51269531 218.85888672 C-205.45058189 217.81219851 -202.35958977 216.89470294 -199.25 216 C-137.27702026 197.20289753 -73.20390662 157.47752579 -31 108 C-30.22269531 107.11183594 -29.44539063 106.22367187 -28.64453125 105.30859375 C-10.7773832 84.74515521 5.13169028 62.1099753 18.98535156 38.67553711 C19.94590964 37.08932198 20.9713713 35.54294305 22 34 C22.66 34 23.32 34 24 34 C29.24564819 48.63161157 32.63686898 65.19834976 26 80 C25.33871094 81.53914063 25.33871094 81.53914063 24.6640625 83.109375 C19.96821836 93.2340731 13.64367991 102.07106732 7 111 C6.54657227 111.61327148 6.09314453 112.22654297 5.62597656 112.85839844 C0.12784544 120.26463191 -5.72934502 127.2365009 -12 134 C-12.85335938 134.94488281 -13.70671875 135.88976562 -14.5859375 136.86328125 C-23.00104572 146.17892165 -31.64573392 155.29260671 -41.21875 163.43359375 C-43.00879417 165.00773347 -44.65690218 166.6608315 -46.3125 168.375 C-50.87403945 172.98767779 -55.89843148 177.00488742 -61 181 C-61.57363281 181.45004395 -62.14726563 181.90008789 -62.73828125 182.36376953 C-100.98013124 212.16088551 -145.59456704 234.34613417 -191.31787109 250.07470703 C-193.64128018 250.87624721 -195.95649733 251.69649164 -198.26953125 252.52734375 C-217.93165562 259.41641608 -237.53703151 264.26479813 -257.20166016 254.95800781 C-266.9389928 250.23819118 -275.90818699 245.26676541 -284 238 C-284.61617188 237.51273438 -285.23234375 237.02546875 -285.8671875 236.5234375 C-296.27050524 228.24702028 -305.04317187 215.08041878 -308 202 C-299.00253683 198.39519599 -289.96633958 195.36308925 -280.6875 192.5625 C-242.94388727 180.9935483 -205.96969326 167.27213628 -170 151 C-168.89285645 150.50322754 -167.78571289 150.00645508 -166.64501953 149.49462891 C-148.37048261 141.28425414 -131.58777697 133.41343869 -116.22265625 120.4765625 C-111.67336723 116.67233175 -106.9183765 113.17597903 -102.125 109.6875 C-95.62074005 104.93886876 -89.19328581 100.15256892 -83 95 C-82.00097656 94.17371094 -81.00195312 93.34742188 -79.97265625 92.49609375 C-72.07669971 85.91850327 -64.45540658 79.07211451 -57 72 C-56.175 71.21753906 -55.35 70.43507813 -54.5 69.62890625 C-48.84604105 64.12218581 -43.90689597 58.17293803 -39 52 C-38.06346275 50.84166885 -37.12591702 49.68415254 -36.1875 48.52734375 C-25.43466242 35.23807551 -15.29307075 21.55359554 -5.49609375 7.546875 C-3.70942776 4.99506284 -1.89381484 2.4740746 0 0 Z " fill="#242021" transform="translate(739,314)"/>
<path d="M0 0 C2.78849816 2.78849816 2.3833768 5.45830092 2.49438477 9.20166016 C2.55812378 10.74613339 2.6220951 12.29059706 2.68626404 13.83505249 C2.71715055 14.65969372 2.74803707 15.48433495 2.77985954 16.3339653 C3.3701228 31.70990871 4.39723068 47.01750672 5.83984375 62.3359375 C5.92342636 63.22748976 6.00700897 64.11904202 6.09312439 65.03761101 C6.52323241 69.61114155 6.95928977 74.18407711 7.39910889 78.75668335 C8.32391804 88.38099896 9.21445241 98.00850618 10.09765625 107.63671875 C10.18402847 108.57738756 10.2704007 109.51805637 10.35939026 110.4872303 C12.17413096 130.32653352 13.54496116 150.17372599 14.5584259 170.07040405 C14.79866909 174.67467737 15.08346441 179.27217246 15.42480469 183.87011719 C17.21386136 207.97063173 18.24916275 232.1043801 19.33613586 256.24491882 C19.50122523 259.90214246 19.66779813 263.55929567 19.83483887 267.21643066 C21.1885388 296.86792598 22.51760405 326.51895159 23.45507812 356.18701172 C23.48700256 357.16832062 23.518927 358.14962952 23.55181885 359.16067505 C23.60774522 360.89956249 23.66069915 362.63855055 23.70941162 364.37765503 C23.85271676 368.86786263 24.23162563 373.27144757 24.76095581 377.73171997 C25.17140922 381.62649475 25.31047453 385.52949258 25.46484375 389.44140625 C25.54353322 391.26237353 25.62231239 393.08333695 25.70117188 394.90429688 C25.81900488 397.70688357 25.93534089 400.50951955 26.04956055 403.31225586 C26.51775343 414.67989791 27.20645948 425.99344673 28.20213318 437.32723999 C28.934037 445.81860592 29.49111739 454.3171139 30 462.82421875 C30.04116503 463.50958773 30.08233006 464.1949567 30.12474251 464.90109444 C30.4629197 470.5422631 30.79514612 476.18377847 31.125 481.82543945 C31.41248916 486.74195334 31.7031569 491.6582601 32 496.57421875 C32.04104229 497.2540469 32.08208458 497.93387505 32.12437057 498.63430405 C32.67446551 507.65795175 33.37781482 516.64742531 34.29312134 525.64079285 C35.17830976 534.4459068 35.68845161 543.26741066 36.20410156 552.10058594 C37.22505553 569.42179933 38.46181735 586.7169177 40 604 C40.08470551 604.95253662 40.16941101 605.90507324 40.25668335 606.88647461 C41.25460964 617.99047345 42.43992338 629.02650486 44.06420898 640.05859375 C45.11722789 647.68912293 45.35283734 655.30557447 45.5625 663 C46.01222411 679.22129879 48.26818077 693.91791325 51.9675293 709.72509766 C52.22832275 710.84964355 52.48911621 711.97418945 52.7578125 713.1328125 C53.11576904 714.64705811 53.11576904 714.64705811 53.48095703 716.19189453 C53.97597646 718.87002881 54.09881792 721.28468248 54 724 C51.79640575 720.69460863 51.18288272 718.16268701 50.25 714.3125 C48.31314017 706.64328907 45.6568583 699.34999558 42.77487183 691.9924469 C39.2148757 682.83854168 35.95931141 673.5721362 32.6875 664.3125 C32.25005463 663.07469788 32.25005463 663.07469788 31.80377197 661.81188965 C27.63964372 649.9961578 23.78790325 638.17096851 20.58911133 626.05297852 C19.99338324 623.97694143 19.27519627 621.97782151 18.53515625 619.94921875 C16.24148781 613.18056233 15.25183285 606.08982216 14.0625 599.0625 C13.79987157 597.53171284 13.53709288 596.00095145 13.27416992 594.47021484 C12.62429589 590.67083577 11.9854901 586.86967386 11.34887695 583.0680542 C10.85291276 580.1281041 10.33852286 577.19138027 9.828125 574.25390625 C7.13542665 558.30048719 5.74111043 542.28772687 4.54141235 526.16798401 C4.19299431 521.48911237 3.82289376 516.81288959 3.42702866 512.13779163 C-1.18318246 457.46870003 -1.29925534 402.80502561 -1.20059639 347.98636228 C-1.18908574 341.28997465 -1.18484972 334.59361383 -1.18530273 327.8972168 C-1.18782768 287.05077692 -1.02489604 246.21413624 -0.45711231 205.37144923 C0.0912073 165.81876629 0.12113318 126.27080801 0.07202679 86.71491808 C0.06045094 77.21159474 0.05525479 67.70827025 0.05032361 58.20494151 C0.04012711 38.80328629 0.02278004 19.40164436 0 0 Z " fill="#FBFBFB" transform="translate(1442,753)"/>
<path d="M0 0 C4.28505342 5.49365822 6.61840543 11.70938176 9.24462891 18.12182617 C10.8418476 21.81907136 12.87841939 25.11334383 15.03125 28.51953125 C19.34401749 35.75845584 20.70710987 42.69900203 21.6875 51.0625 C21.87259638 52.44772149 22.06114308 53.8324858 22.25292969 55.21679688 C22.54773212 57.34719289 22.84049977 59.47761906 23.12234497 61.60977173 C24.11735754 69.11163298 25.42349759 76.55081056 26.75 84 C30.15941129 103.24709659 30.15941129 103.24709659 30.0625 111 C30.05347656 111.94875 30.04445313 112.8975 30.03515625 113.875 C30.02355469 114.57625 30.01195312 115.2775 30 116 C29.35675781 115.80664062 28.71351562 115.61328125 28.05078125 115.4140625 C21.92764159 113.64961997 15.9597192 112.45605269 9.62890625 111.72265625 C-0.46091324 109.71338111 -9.78091673 105.50719606 -19.0625 101.1875 C-20.15626953 100.69185547 -21.25003906 100.19621094 -22.37695312 99.68554688 C-43.69397234 89.83229052 -61.8208898 75.61402767 -75.71679688 56.74072266 C-76.58429307 55.56392511 -77.45818414 54.39181909 -78.33789062 53.22412109 C-79.63789076 51.4944357 -80.91538449 49.75025981 -82.1875 48 C-82.94417969 46.96875 -83.70085937 45.9375 -84.48046875 44.875 C-86 42 -86 42 -86.09375 39.515625 C-84.53130569 35.92200309 -82.07913044 33.44268843 -79.3125 30.75 C-78.44117432 29.89619751 -78.44117432 29.89619751 -77.55224609 29.02514648 C-60.54275967 12.85222955 -38.89023664 7.01067056 -16.4375 2.25 C-15.38957275 2.02691162 -14.34164551 1.80382324 -13.26196289 1.57397461 C-12.26672607 1.36909424 -11.27148926 1.16421387 -10.24609375 0.953125 C-9.35591553 0.76911133 -8.4657373 0.58509766 -7.54858398 0.39550781 C-4.92181451 -0.01213339 -2.64765914 -0.29032204 0 0 Z " fill="#242021" transform="translate(1277,473)"/>
<path d="M0 0 C3.08935743 3.85984466 4.36586487 8.5868789 5.8125 13.25 C6.07111816 14.06484863 6.32973633 14.87969727 6.59619141 15.71923828 C8.41624832 21.62698209 9.83225553 27.57012188 11.15429688 33.60668945 C13.24619427 43.09321738 15.18564693 50.46114598 20.83984375 58.4140625 C26.20455077 66.56921232 28.79760934 76.84244225 32 86 C32.41507813 87.12535156 32.83015625 88.25070312 33.2578125 89.41015625 C34.0195486 92.06821433 34.16176902 94.24992662 34 97 C33.42556152 97.02505615 32.85112305 97.0501123 32.25927734 97.07592773 C29.63100279 97.19269875 27.00301605 97.31505419 24.375 97.4375 C23.47136719 97.47681641 22.56773437 97.51613281 21.63671875 97.55664062 C17.01783854 97.77578458 12.54846364 98.1008851 8 99 C2.26952418 91.23826041 -3.08333515 83.62594544 -5.0625 74.0625 C-6.69903079 68.10218048 -10.89476922 64.98487609 -15.50390625 61.2265625 C-24.34043707 53.5309542 -31.03593594 43.44174582 -37.44482422 33.72387695 C-38.64941303 31.90054714 -39.86895503 30.08783649 -41.08984375 28.27539062 C-41.86547451 27.10996762 -42.64024884 25.94397406 -43.4140625 24.77734375 C-44.1045166 23.73827881 -44.7949707 22.69921387 -45.50634766 21.62866211 C-47 19 -47 19 -47 16 C-13.90977393 -4.91079832 -13.90977393 -4.91079832 0 0 Z " fill="#242122" transform="translate(636,187)"/>
<path d="M0 0 C3.64404778 2.54169477 6.32169568 5.40014597 9.0625 8.875 C12.59254713 13.27731416 16.19123584 17.60055515 19.875 21.875 C20.9023995 23.07026458 21.9297431 24.26557721 22.95703125 25.4609375 C23.46443848 26.05100586 23.9718457 26.64107422 24.49462891 27.24902344 C31.57042069 35.47925027 38.48347185 43.79183857 45.1484375 52.359375 C47.16995984 54.95340156 49.22006422 57.52180567 51.2890625 60.078125 C51.83506104 60.75375488 52.38105957 61.42938477 52.94360352 62.12548828 C53.99844371 63.42832967 55.0560901 64.72890559 56.11694336 66.02685547 C58.43836744 68.89921209 60.55527461 71.56343428 62 75 C61.12859375 75.09796875 60.2571875 75.1959375 59.359375 75.296875 C52.06849162 76.21218071 45.55544469 77.57557465 38.71875 80.29296875 C35.34455718 81.1704528 33.34651801 80.96987859 30 80 C27.4140625 78.27734375 27.4140625 78.27734375 24.625 75.9375 C18.34170267 70.83774948 11.69514651 66.38248825 4.9375 61.9375 C-6.35943003 54.4788457 -17.09438885 46.6820219 -27.52734375 38.04296875 C-29.17551259 36.68121156 -30.86029579 35.36259902 -32.578125 34.08984375 C-35.28798314 31.75149842 -36.93320047 29.41299618 -38.8125 26.375 C-39.71935547 24.93253906 -39.71935547 24.93253906 -40.64453125 23.4609375 C-42 21 -42 21 -42 19 C-40.47802734 17.7824707 -40.47802734 17.7824707 -38.3359375 16.42578125 C-37.55009277 15.92594727 -36.76424805 15.42611328 -35.95458984 14.91113281 C-35.1033252 14.38358398 -34.25206055 13.85603516 -33.375 13.3125 C-32.51213379 12.77592773 -31.64926758 12.23935547 -30.76025391 11.68652344 C-9.15194949 -1.59795943 -9.15194949 -1.59795943 0 0 Z " fill="#242021" transform="translate(576,211)"/>
<path d="M0 0 C1.59431711 0.01150819 3.18863702 0.02263198 4.78295898 0.03344727 C6.16780599 0.04313151 7.55265299 0.05281576 8.9375 0.0625 C8.95888283 1.04465233 8.95888283 1.04465233 8.98069763 2.04664612 C9.46489519 22.31905849 10.99048703 42.41664511 12.78753662 62.60656738 C13.35461489 68.99479119 13.90870565 75.38415663 14.46334648 81.77346992 C14.65592753 83.97891632 14.85183478 86.18404646 15.0483551 88.3891449 C15.16649308 89.73330158 15.28457386 91.07746329 15.40258789 92.42163086 C15.50616104 93.58738144 15.60973419 94.75313202 15.71644592 95.95420837 C15.909751 98.67231499 15.98116736 101.33923935 15.9375 104.0625 C12.16681168 104.149485 8.39638068 104.20288579 4.625 104.25 C3.55314453 104.27513672 2.48128906 104.30027344 1.37695312 104.32617188 C-0.16508789 104.34067383 -0.16508789 104.34067383 -1.73828125 104.35546875 C-3.1600769 104.37903442 -3.1600769 104.37903442 -4.6105957 104.40307617 C-7.0625 104.0625 -7.0625 104.0625 -8.77856445 102.83959961 C-10.29922278 100.73485119 -11.08772509 98.7939017 -11.9296875 96.3359375 C-12.25533691 95.39516357 -12.58098633 94.45438965 -12.91650391 93.48510742 C-13.42189697 91.97654175 -13.42189697 91.97654175 -13.9375 90.4375 C-14.29118652 89.40149658 -14.64487305 88.36549316 -15.00927734 87.2980957 C-17.26101533 80.63803284 -19.35487012 73.94752031 -21.2734375 67.18457031 C-22.45925745 63.02431865 -23.76967246 58.93371366 -25.18823242 54.84716797 C-29.3140235 42.95510285 -32.35469904 30.802265 -35.40161133 18.59594727 C-35.88771257 16.73252926 -36.45351551 14.88945347 -37.0625 13.0625 C-37.10204234 10.72950175 -37.10651732 8.39541811 -37.0625 6.0625 C-34.25236495 5.24098263 -31.43981814 4.43018438 -28.625 3.625 C-27.84189453 3.39490234 -27.05878906 3.16480469 -26.25195312 2.92773438 C-17.47514172 0.43555336 -9.08920211 -0.09093226 0 0 Z " fill="#252122" transform="translate(684.0625,179.9375)"/>
<path d="M0 0 C38.30578512 0 38.30578512 0 46 7 C45.29403365 11.12543009 44.06469909 14.91187004 42.671875 18.85546875 C42.19904805 20.20498983 41.72648301 21.5546027 41.25415039 22.90429688 C41.00811066 23.60417725 40.76207092 24.30405762 40.50857544 25.02514648 C36.22187916 37.24456765 32.16344525 49.43479546 29 62 C28.65398551 63.34513951 28.30762817 64.69019086 27.9609375 66.03515625 C24.74305664 78.63129602 21.77121271 91.29860843 19 104 C14 105 14 105 0 102 C0 68.34 0 34.68 0 0 Z " fill="#242021" transform="translate(703,184)"/>
<path d="M0 0 C4.69151971 2.79775577 8.675977 6.21380801 12.75 9.8125 C22.1516051 17.9446746 31.98596329 24.19308141 42.79980469 30.29443359 C48.90428472 33.75465166 54.90482007 37.33810687 60.8125 41.125 C61.54154541 41.58616211 62.27059082 42.04732422 63.02172852 42.52246094 C64.71918552 43.62519605 66.36611071 44.805098 68 46 C68 46.66 68 47.32 68 48 C67.45174561 48.21615967 66.90349121 48.43231934 66.33862305 48.6550293 C63.78709121 49.66295264 61.2371777 50.67489566 58.6875 51.6875 C57.77210449 52.049646 56.85670898 52.41179199 55.91357422 52.78491211 C50.23999498 55.04720027 44.70532037 57.45022529 39.2890625 60.28515625 C34.14383701 61.89194168 29.64338257 59.54578135 25 57.375 C11.39625435 51.28847565 -3.17800195 47.19258217 -17.65893555 43.77319336 C-23.91218272 42.23670524 -29.66429259 40.10213667 -34.5 35.75 C-36.51672068 32.05267875 -37.08308827 29.03901666 -36 25 C-34.09315448 21.88255847 -31.64013623 19.50744307 -29 17 C-28.14277344 16.16984375 -27.28554688 15.3396875 -26.40234375 14.484375 C-9.947562 -0.97525118 -9.947562 -0.97525118 0 0 Z " fill="#242021" transform="translate(530,246)"/>
<path d="M0 0 C1.98 0.495 1.98 0.495 4 1 C0.90593978 6.70918729 -2.68288744 11.86114503 -6.5625 17.0625 C-7.49122925 18.31377686 -7.49122925 18.31377686 -8.4387207 19.59033203 C-25.06080973 41.89999469 -42.69019491 63.96862646 -64 82 C-64.89589844 82.78503906 -65.79179688 83.57007813 -66.71484375 84.37890625 C-74.62174091 91.26064566 -82.9451731 97.47415865 -91.4140625 103.64453125 C-95.27675439 106.46005039 -99.09335333 109.32678186 -102.875 112.25 C-103.89722656 113.03632813 -104.91945313 113.82265625 -105.97265625 114.6328125 C-108.04460729 116.25294454 -110.08950089 117.8862174 -112.12109375 119.5546875 C-119.40075798 125.46815281 -126.92756846 129.81550523 -135.41503906 133.77441406 C-138.38761586 135.18377707 -141.32976287 136.64842292 -144.2734375 138.1171875 C-191.81086413 161.69684862 -242.24610672 178.79294322 -293 194 C-293 192.33333333 -293 190.66666667 -293 189 C-291.9584375 188.69707031 -290.916875 188.39414062 -289.84375 188.08203125 C-281.17867443 185.55297542 -272.54016549 182.95594092 -263.93359375 180.234375 C-261.38953721 179.43079109 -258.84200256 178.65418373 -256.28515625 177.890625 C-232.36067985 170.68118526 -209.94884024 161.01710267 -188.30419922 148.53930664 C-183.3805746 145.71746887 -178.36130309 143.12366113 -173.30151367 140.55493164 C-150.33552887 128.86100732 -128.92975592 114.99868674 -108 100 C-107.16968262 99.40525879 -106.33936523 98.81051758 -105.48388672 98.19775391 C-101.67707175 95.46546171 -97.8792011 92.72129005 -94.08984375 89.96484375 C-90.83911042 87.60157822 -87.56723909 85.27037637 -84.28515625 82.95092773 C-78.01092185 78.51039668 -71.91689466 73.90957057 -66 69 C-64.99453125 68.16855469 -63.9890625 67.33710938 -62.953125 66.48046875 C-45.35846786 51.82402088 -28.09950229 36.08625812 -14 18 C-12.87294605 16.61201599 -11.74245012 15.22682303 -10.609375 13.84375 C-10.01350586 13.11615479 -9.41763672 12.38855957 -8.80371094 11.63891602 C-7.61972982 10.19387572 -6.43549336 8.74904459 -5.25097656 7.30444336 C-4.44611816 6.3164978 -4.44611816 6.3164978 -3.625 5.30859375 C-3.14289063 4.71876709 -2.66078125 4.12894043 -2.1640625 3.52124023 C-0.91629764 1.98958051 -0.91629764 1.98958051 0 0 Z " fill="#F6F6F6" transform="translate(730,320)"/>
<path d="M0 0 C0.99 0.33 1.98 0.66 3 1 C-10.47910287 27.839968 -30.59892222 53.42405591 -50.75390625 75.53515625 C-52.25179512 77.17892647 -53.73883167 78.83265156 -55.21484375 80.49609375 C-83.1305752 111.94422004 -118.15313571 134.93405361 -155.09375 154.45654297 C-157.85424435 155.9225918 -160.60035445 157.41241333 -163.34375 158.91015625 C-176.20237827 165.87317676 -189.40495236 171.63081663 -203 177 C-203.7724707 177.30808594 -204.54494141 177.61617187 -205.34082031 177.93359375 C-213.94023921 181.34662329 -222.64322935 184.19993687 -231.54296875 186.71875 C-234.60423417 187.58661705 -237.642777 188.50680605 -240.67578125 189.46875 C-250.01297924 192.41020731 -259.35206434 194.86876288 -268.9375 196.875 C-269.96238525 197.09027344 -270.98727051 197.30554688 -272.04321289 197.52734375 C-276.45090942 198.41720711 -280.48802858 199.11392085 -285 199 C-282.57518298 196.57518298 -281.09397869 196.36766203 -277.77734375 195.58984375 C-276.69533691 195.32768066 -275.61333008 195.06551758 -274.49853516 194.79541016 C-272.73582275 194.37074463 -272.73582275 194.37074463 -270.9375 193.9375 C-235.42066875 184.95639388 -201.67941679 169.27528625 -170 151 C-169.11989761 150.49830795 -169.11989761 150.49830795 -168.22201538 149.98648071 C-156.69092107 143.40399761 -145.57605145 136.26894305 -134.54223633 128.88696289 C-131.80992024 127.06077578 -129.07035181 125.24585876 -126.33007812 123.43164062 C-117.26610909 117.40187217 -108.41349381 111.24464221 -99.95336914 104.38793945 C-96.88468122 101.90675928 -93.7674911 99.51173118 -90.625 97.125 C-75.51828572 85.66911264 -75.51828572 85.66911264 -61.703125 72.73828125 C-59.96917197 70.96853562 -58.1508193 69.40037954 -56.25 67.8125 C-47.67068285 60.41304965 -40.28491529 51.55273745 -33.2109375 42.7421875 C-30.84877406 39.81243708 -28.42756068 36.93822573 -26 34.0625 C-17.92418846 24.38404679 -9.74244864 14.22260374 -3.4296875 3.27734375 C-2 1 -2 1 0 0 Z " fill="#F6F6F6" transform="translate(757,349)"/>
<path d="M0 0 C0.66 0 1.32 0 2 0 C2.08690094 0.63193771 2.17380188 1.26387543 2.26333618 1.91496277 C7.41185752 39.69627105 7.41185752 39.69627105 13.25 77.375 C13.37221924 78.11277679 13.49443848 78.85055359 13.62036133 79.61068726 C14.09172971 82.45261563 14.56357403 85.29446404 15.03656006 88.13612366 C17.23894464 101.41681079 19.1663619 114.74390874 20.95703125 128.0859375 C22.76750939 141.56484761 24.79109209 154.96905432 27.14648438 168.36401367 C31.17186915 191.28070156 34.36391229 214.32528852 37.6328125 237.359375 C37.75222198 238.20040268 37.87163147 239.04143036 37.99465942 239.90794373 C38.51283292 243.55926401 39.02961148 247.210757 39.54272461 250.86279297 C40.70988569 259.13187173 41.98163256 267.38073539 43.3125 275.625 C43.47049576 276.61031708 43.47049576 276.61031708 43.63168335 277.61553955 C44.82746402 285.06507966 46.07410975 292.50103081 47.4375 299.921875 C47.66783936 301.17661621 47.89817871 302.43135742 48.13549805 303.72412109 C48.57477868 306.09303655 49.02113794 308.46065446 49.47583008 310.82666016 C50.6247755 317.00403484 51.2315105 322.71614359 51 329 C50.67 329 50.34 329 50 329 C49.81937012 328.11666992 49.63874023 327.23333984 49.45263672 326.32324219 C46.29805139 310.91101037 43.13221274 295.50266871 39.8125 280.125 C37.59279674 269.83974333 35.45719173 259.5417403 33.4387207 249.21508789 C33.12932162 247.65294106 32.81200335 246.09235251 32.48901367 244.53295898 C31.37821218 239.14037212 30.51833743 233.77086162 29.8125 228.3125 C28.8607764 221.24583733 27.70339593 214.23375492 26.390625 207.2265625 C23.09849392 189.62334462 20.24277703 172.14635047 18.42260742 154.32714844 C16.96533515 140.10762049 14.94055405 125.99184183 12.8527832 111.85327148 C11.1476009 100.25774551 9.70039098 88.63702292 8.36810303 76.99383545 C7.00356287 65.1007871 5.53355835 53.23111292 3.875 41.375 C3.70790527 40.1780249 3.54081055 38.9810498 3.36865234 37.74780273 C2.79234811 33.63113708 2.21439686 29.51471096 1.63183594 25.39892578 C0.43926363 16.8960632 -0.29320293 8.60061918 0 0 Z " fill="#EFEFEF" transform="translate(1536,1125)"/>
<path d="M0 0 C0.66 0 1.32 0 2 0 C2.08912155 0.64748199 2.1782431 1.29496399 2.27006531 1.96206665 C3.31144893 9.52100351 4.35887453 17.07909093 5.41078568 24.63656998 C5.68611546 26.61505087 5.96108537 28.59358184 6.23605347 30.57211304 C8.48477357 46.71601034 10.77336374 62.83734919 13.71557617 78.87158203 C13.99751831 80.44528564 13.99751831 80.44528564 14.28515625 82.05078125 C14.44894775 82.92387939 14.61273926 83.79697754 14.78149414 84.6965332 C15.00739228 87.07792871 14.72895433 88.73733361 14 91 C12.68 91 11.36 91 10 91 C9.89977539 90.12190674 9.79955078 89.24381348 9.69628906 88.33911133 C7.89947785 72.66386883 6.06191251 57.00144612 3.875 41.375 C3.70806641 40.1792334 3.54113281 38.9834668 3.36914062 37.75146484 C2.79269401 33.6335756 2.21456945 29.51593032 1.63183594 25.39892578 C0.43926363 16.8960632 -0.29320293 8.60061918 0 0 Z " fill="#E1E1E1" transform="translate(1536,1125)"/>
<path d="M0 0 C3 1 3 1 4.1315918 2.7578125 C5.06136941 5.15845282 5.51844109 7.32871243 5.89453125 9.875 C6.0430957 10.84695313 6.19166016 11.81890625 6.34472656 12.8203125 C6.4990918 13.86960937 6.65345703 14.91890625 6.8125 16 C8.46874021 26.88294537 10.35141113 37.70811678 12.42504883 48.51953125 C13.58888191 54.79975186 14.24358664 60.61261709 14 67 C13.67 67 13.34 67 13 67 C12.81937012 66.11666992 12.63874023 65.23333984 12.45263672 64.32324219 C11.75272862 60.9037291 11.05186001 57.48441625 10.35012817 54.0652771 C10.03390244 52.52432409 9.71788206 50.98332892 9.40206909 49.44229126 C7.70792272 41.18052037 5.99832831 32.92322269 4.19921875 24.68359375 C3.78470459 22.7804541 3.78470459 22.7804541 3.36181641 20.83886719 C2.83869613 18.44919496 2.31119774 16.0604759 1.77880859 13.67285156 C1.54371582 12.59874023 1.30862305 11.52462891 1.06640625 10.41796875 C0.85959229 9.48750732 0.65277832 8.5570459 0.43969727 7.59838867 C0.00205523 5.01214534 -0.08071301 2.61740765 0 0 Z " fill="#EBEAEB" transform="translate(1573,1387)"/>
<path d="M0 0 C1.05095276 3.2247222 0.92184179 5.22771081 0.03125 8.48046875 C-0.20698486 9.38176514 -0.44521973 10.28306152 -0.69067383 11.21166992 C-0.95775146 12.19369385 -1.2248291 13.17571777 -1.5 14.1875 C-4.23378111 24.63219771 -6.5994309 35.12320752 -8.8125 45.6875 C-8.96493164 46.4132724 -9.11736328 47.1390448 -9.27441406 47.8868103 C-10.54023232 53.91969534 -11.79903004 59.95381117 -13 66 C-14.5090332 64.78198242 -14.5090332 64.78198242 -16 63 C-16.55472496 56.0936341 -14.11606154 48.78818102 -12.3125 42.1875 C-12.04848389 41.19991699 -11.78446777 40.21233398 -11.51245117 39.19482422 C-7.97378061 26.04341109 -4.40689956 12.89061553 0 0 Z " fill="#EBEBEB" transform="translate(336,888)"/>
<path d="M0 0 C0 0.66 0 1.32 0 2 C-10.89 5.63 -21.78 9.26 -33 13 C-33.66 12.34 -34.32 11.68 -35 11 C-34.67 10.01 -34.34 9.02 -34 8 C-31.40105571 7.03597299 -28.92049324 6.26428145 -26.25 5.5625 C-24.69890995 5.13523403 -23.14813144 4.70683557 -21.59765625 4.27734375 C-20.43580811 3.95999268 -20.43580811 3.95999268 -19.25048828 3.63623047 C-17.18932552 3.05352379 -15.1556386 2.42286332 -13.12109375 1.75390625 C-11.98800781 1.38136719 -10.85492188 1.00882812 -9.6875 0.625 C-8.68074219 0.28726562 -7.67398437 -0.05046875 -6.63671875 -0.3984375 C-3.94299381 -1.01300586 -2.56211786 -0.93721176 0 0 Z " fill="#EDEDED" transform="translate(471,501)"/>
<path d="M0 0 C2.93424043 2.93424043 2.44559552 6.14618776 2.59765625 10.09375 C2.63684677 10.91387573 2.67603729 11.73400146 2.71641541 12.57897949 C2.84065984 15.21899815 2.95189173 17.85937821 3.0625 20.5 C3.14039099 22.21748828 3.21915799 23.93493708 3.29882812 25.65234375 C3.41731248 28.21387146 3.5348972 30.775413 3.64859009 33.3371582 C4.02939169 41.89542627 4.50604406 50.44761706 5 59 C4.67 59 4.34 59 4 59 C4 57.35 4 55.7 4 54 C3.01 53.67 2.02 53.34 1 53 C0.67 35.51 0.34 18.02 0 0 Z " fill="#EBEBEB" transform="translate(1442,753)"/>
<path d="M0 0 C-2.53402018 3.80103028 -3.7645714 3.69265204 -8.14453125 4.60546875 C-9.37880859 4.86650391 -10.61308594 5.12753906 -11.88476562 5.39648438 C-12.52969971 5.52627686 -13.17463379 5.65606934 -13.83911133 5.78979492 C-15.79717012 6.18441051 -17.75117486 6.59896988 -19.70507812 7.01367188 C-30.11655386 9.17618037 -30.11655386 9.17618037 -35 9 C-32.43880747 6.43880747 -30.47586566 6.18358748 -26.96875 5.30859375 C-25.76605469 5.00373047 -24.56335938 4.69886719 -23.32421875 4.38476562 C-22.06222656 4.07216797 -20.80023438 3.75957031 -19.5 3.4375 C-17.00994433 2.81307848 -14.52033638 2.18686796 -12.03125 1.55859375 C-10.92330078 1.28329834 -9.81535156 1.00800293 -8.67382812 0.72436523 C-2.84713559 -0.85414068 -2.84713559 -0.85414068 0 0 Z " fill="#DFDEDF" transform="translate(507,539)"/>
<path d="M0 0 C2.74800568 4.91002898 3.2326576 10.19794173 4.125 15.6875 C4.30675781 16.73873047 4.48851562 17.78996094 4.67578125 18.87304688 C5.69078015 25.00501393 6.19519473 30.7863012 6 37 C5.67 37 5.34 37 5 37 C4.1103983 33.01998101 3.23832367 29.03654367 2.3815918 25.04931641 C2.08841314 23.6964073 1.79065065 22.34448239 1.48803711 20.99365234 C-1.60153077 7.17485784 -1.60153077 7.17485784 0 0 Z " fill="#E0DFDF" transform="translate(1581,1417)"/>
<path d="M0 0 C0.66 0 1.32 0 2 0 C2.53350857 3.41481264 3.04958186 6.83203896 3.5625 10.25 C3.71396484 11.21808594 3.86542969 12.18617187 4.02148438 13.18359375 C4.16005859 14.11816406 4.29863281 15.05273438 4.44140625 16.015625 C4.57232666 16.87446289 4.70324707 17.73330078 4.83813477 18.61816406 C5.11258925 22.65674311 4.25105981 24.62341029 2 28 C0.66581407 18.61304896 -0.32417212 9.50904899 0 0 Z " fill="#C2C1C2" transform="translate(1536,1125)"/>
<path d="M0 0 C0.84228458 3.56044445 1.67223903 7.12365344 2.5 10.6875 C2.73847656 11.69490234 2.97695312 12.70230469 3.22265625 13.74023438 C3.44824219 14.71669922 3.67382812 15.69316406 3.90625 16.69921875 C4.11572266 17.59471436 4.32519531 18.49020996 4.54101562 19.4128418 C4.99994512 21.99969065 5.08261971 24.37888974 5 27 C2.79714252 23.69571378 1.99582922 20.6019465 1.0625 16.8125 C-0.32102911 11.3923749 -1.88500878 6.18172849 -4 1 C-2 0 -2 0 0 0 Z " fill="#D9D8D8" transform="translate(1491,1450)"/>
<path d="M0 0 C-4.8714996 2.15458024 -9.75455692 4.02165009 -14.8125 5.6875 C-15.47958984 5.91244141 -16.14667969 6.13738281 -16.83398438 6.36914062 C-21.74639058 8 -21.74639058 8 -24 8 C-24 7.34 -24 6.68 -24 6 C-24.66 5.67 -25.32 5.34 -26 5 C-24.84242188 4.73445313 -23.68484375 4.46890625 -22.4921875 4.1953125 C-20.95309007 3.83869236 -19.41402952 3.48191309 -17.875 3.125 C-17.11445313 2.95097656 -16.35390625 2.77695312 -15.5703125 2.59765625 C-12.17045412 1.8063099 -8.92862464 0.97466258 -5.6328125 -0.1953125 C-3 -1 -3 -1 0 0 Z " fill="#DFDEDE" transform="translate(459,454)"/>
<path d="M0 0 C1.25414522 3.58752521 0.73271684 6.00508642 -0.21484375 9.640625 C-0.48876953 10.71054687 -0.76269531 11.78046875 -1.04492188 12.8828125 C-1.33947266 13.99398437 -1.63402344 15.10515625 -1.9375 16.25 C-2.22818359 17.37664063 -2.51886719 18.50328125 -2.81835938 19.6640625 C-3.53716405 22.44501174 -4.26465981 25.22338584 -5 28 C-5.66 27.34 -6.32 26.68 -7 26 C-6.8984375 24.14453125 -6.8984375 24.14453125 -6.375 21.8125 C-6.17777344 20.93335938 -5.98054688 20.05421875 -5.77734375 19.1484375 C-4.85317509 15.40532223 -3.9132533 11.66751046 -2.9375 7.9375 C-2.76331543 7.27016846 -2.58913086 6.60283691 -2.40966797 5.9152832 C-1.1214861 1.1214861 -1.1214861 1.1214861 0 0 Z " fill="#C8C6C7" transform="translate(336,888)"/>
<path d="M0 0 C3.43752007 1.5277867 6.18953688 3.50181056 9 6 C9 6.66 9 7.32 9 8 C7.37276701 7.54965877 5.74826336 7.08944646 4.125 6.625 C3.22007813 6.36976562 2.31515625 6.11453125 1.3828125 5.8515625 C-1 5 -1 5 -3 3 C-2.01 2.01 -1.02 1.02 0 0 Z " fill="#E7E7E7" transform="translate(1260,1162)"/>
<path d="M0 0 C3.11227851 4.66841777 3.11824029 8.17597138 3.0625 13.75 C3.05347656 14.92046875 3.04445313 16.0909375 3.03515625 17.296875 C3.02355469 18.18890625 3.01195312 19.0809375 3 20 C-0.0103245 16.9896755 0.02180327 14.77096379 -0.09765625 10.546875 C-0.08605469 9.29390625 -0.07445312 8.0409375 -0.0625 6.75 C-0.05347656 5.48671875 -0.04445313 4.2234375 -0.03515625 2.921875 C-0.02355469 1.95765625 -0.01195312 0.9934375 0 0 Z " fill="#E5E5E5" transform="translate(1539,1147)"/>
<path d="M0 0 C0.33 0 0.66 0 1 0 C1.21824777 6.0018137 0.5056904 11.19233704 -1 17 C-1.99 16.34 -2.98 15.68 -4 15 C-3.50341703 9.33895411 -2.45489316 5.12325529 0 0 Z " fill="#D9D8D8" transform="translate(329,914)"/>
<path d="M0 0 C0.625 1.8125 0.625 1.8125 1 4 C0.01 5.485 0.01 5.485 -1 7 C-0.67 7.99 -0.34 8.98 0 10 C-0.99 10 -1.98 10 -3 10 C-3.268125 10.61875 -3.53625 11.2375 -3.8125 11.875 C-5 14 -5 14 -8 16 C-8 12.19252091 -6.80244177 11.02865366 -4.5625 8 C-2.53912864 5.25312009 -1.08236661 3.24709982 0 0 Z " fill="#302D2E" transform="translate(1166,641)"/>
<path d="M0 0 C0.33 0 0.66 0 1 0 C2.28297723 7.41148455 3.25515919 14.47280398 3 22 C2.67 22 2.34 22 2 22 C1.46775449 19.27261765 0.94892004 16.54379566 0.4375 13.8125 C0.21030273 12.65911133 0.21030273 12.65911133 -0.02148438 11.48242188 C-0.78168763 7.363181 -1.24229918 4.10534631 0 0 Z " fill="#D7D6D6" transform="translate(1584,1432)"/>
<path d="M0 0 C1.125 3.75 1.125 3.75 0 6 C-0.66 6 -1.32 6 -2 6 C-2.226875 6.556875 -2.45375 7.11375 -2.6875 7.6875 C-4.35896766 10.63246684 -6.55276352 12.68156544 -9 15 C-9.66 14.67 -10.32 14.34 -11 14 C-10.28972656 13.15695312 -9.57945312 12.31390625 -8.84765625 11.4453125 C-7.91916721 10.3386286 -6.99078746 9.23185299 -6.0625 8.125 C-5.59392578 7.56941406 -5.12535156 7.01382812 -4.64257812 6.44140625 C-2.05933481 3.39938165 -2.05933481 3.39938165 0 0 Z " fill="#302E2E" transform="translate(727,398)"/>
<path d="M0 0 C1.12894876 0.93274109 2.25300876 1.87140122 3.375 2.8125 C4.00148438 3.33457031 4.62796875 3.85664062 5.2734375 4.39453125 C7 6 7 6 9 9 C4.69235185 7.43358249 0.93828536 5.31663844 -3 3 C-2.01 2.01 -1.02 1.02 0 0 Z " fill="#F1F0F1" transform="translate(1245,1234)"/>
<path d="M0 0 C0.33 0 0.66 0 1 0 C1.33 4.29 1.66 8.58 2 13 C1.34 13 0.68 13 0 13 C-0.33 13.99 -0.66 14.98 -1 16 C-1.22281874 14.08496326 -1.42771076 12.16783494 -1.625 10.25 C-1.74101563 9.18265625 -1.85703125 8.1153125 -1.9765625 7.015625 C-2.00029475 3.96207601 -1.61420985 2.53837579 0 0 Z " fill="#C4C3C3" transform="translate(1542,1161)"/>
<path d="M0 0 C0.99 0 1.98 0 3 0 C3.07654536 4.51617599 3.10228696 8.59085217 2 13 C0.48046875 11.82421875 0.48046875 11.82421875 -1 10 C-1.07421875 7.51953125 -1.07421875 7.51953125 -0.6875 4.8125 C-0.56761719 3.91144531 -0.44773437 3.01039063 -0.32421875 2.08203125 C-0.21722656 1.39496094 -0.11023438 0.70789063 0 0 Z " fill="#E2E1E1" transform="translate(321,941)"/>
<path d="M0 0 C0.66 0.99 1.32 1.98 2 3 C1.67 3.99 1.34 4.98 1 6 C1.66 6.33 2.32 6.66 3 7 C0.69 8.98 -1.62 10.96 -4 13 C-3.52140759 11.39566191 -3.04210442 9.79153584 -2.5625 8.1875 C-2.29566406 7.29417969 -2.02882813 6.40085937 -1.75390625 5.48046875 C-1.19612127 3.64526945 -0.60655425 1.81966274 0 0 Z " fill="#353233" transform="translate(452,792)"/>
<path d="M0 0 C0.66 0.33 1.32 0.66 2 1 C1.34 1.66 0.68 2.32 0 3 C0 3.99 0 4.98 0 6 C-0.61875 6.2475 -1.2375 6.495 -1.875 6.75 C-4.35068687 8.20628639 -4.95125002 9.37812506 -6 12 C-8 11 -8 11 -9 9 C-8.34 9 -7.68 9 -7 9 C-6.6596875 8.1646875 -6.6596875 8.1646875 -6.3125 7.3125 C-4.64103234 4.36753316 -2.44723648 2.31843456 0 0 Z " fill="#333031" transform="translate(720,480)"/>
<path d="M0 0 C0.66 0 1.32 0 2 0 C3.26237731 2.52475462 3.09856404 4.31200466 3.0625 7.125 C3.05347656 8.03507812 3.04445313 8.94515625 3.03515625 9.8828125 C3.02355469 10.58148437 3.01195312 11.28015625 3 12 C2.34 12 1.68 12 1 12 C-0.3271261 8.0186217 -0.06915913 4.14954773 0 0 Z " fill="#EFEFEF" transform="translate(1542,1174)"/>
<path d="M0 0 C2.31 0.33 4.62 0.66 7 1 C6.01 1.33 5.02 1.66 4 2 C4 2.66 4 3.32 4 4 C2.68 4.33 1.36 4.66 0 5 C0 5.99 0 6.98 0 8 C-0.66 8 -1.32 8 -2 8 C-1.34 5.36 -0.68 2.72 0 0 Z " fill="#322F30" transform="translate(515,653)"/>
<path d="M0 0 C2.46800047 1.15173355 4.04783565 2.04783565 6 4 C4.02 4 2.04 4 0 4 C0 4.66 0 5.32 0 6 C-1.32 6 -2.64 6 -4 6 C-2.84826645 3.53199953 -1.95216435 1.95216435 0 0 Z " fill="#2F2C2D" transform="translate(443,568)"/>
<path d="M0 0 C0.66 0.33 1.32 0.66 2 1 C2 1.66 2 2.32 2 3 C0.46875 4.5078125 0.46875 4.5078125 -1.5 6.125 C-2.1496875 6.66382813 -2.799375 7.20265625 -3.46875 7.7578125 C-3.9740625 8.16773438 -4.479375 8.57765625 -5 9 C-5.66 8.34 -6.32 7.68 -7 7 C-4.69 4.69 -2.38 2.38 0 0 Z " fill="#2F2C2D" transform="translate(708,492)"/>
<path d="M0 0 C0.66 0.66 1.32 1.32 2 2 C1.195625 2.61875 0.39125 3.2375 -0.4375 3.875 C-3.03874519 5.74164041 -3.03874519 5.74164041 -4 8 C-4.99 8.33 -5.98 8.66 -7 9 C-7.66 9.66 -8.32 10.32 -9 11 C-9 8 -9 8 -7.03125 5.95703125 C-6.1959375 5.24933594 -5.360625 4.54164063 -4.5 3.8125 C-3.6646875 3.09707031 -2.829375 2.38164062 -1.96875 1.64453125 C-1.3190625 1.10183594 -0.669375 0.55914062 0 0 Z " fill="#2C292A" transform="translate(458,388)"/>
<path d="M0 0 C0.99 0.33 1.98 0.66 3 1 C2.01 2.98 1.02 4.96 0 7 C-1.32 6.67 -2.64 6.34 -4 6 C-2.25 1.125 -2.25 1.125 0 0 Z " fill="#ECECEC" transform="translate(757,349)"/>
<path d="M0 0 C0.33 0 0.66 0 1 0 C0.54177532 3.46941546 0.10868317 6.67395049 -1 10 C-3.0625 10.6875 -3.0625 10.6875 -5 11 C-3.55049545 7.2089881 -1.84827434 3.6125362 0 0 Z " fill="#2E2C2D" transform="translate(487,721)"/>
<path d="M0 0 C1 4 1 4 0.00390625 5.703125 C-1.33072917 7.13541667 -2.66536458 8.56770833 -4 10 C-4.99 9.67 -5.98 9.34 -7 9 C-4.69 6.03 -2.38 3.06 0 0 Z " fill="#323031" transform="translate(714,348)"/>
<path d="M0 0 C2.97 0.33 5.94 0.66 9 1 C8.34 2.65 7.68 4.3 7 6 C1.125 2.25 1.125 2.25 0 0 Z " fill="#282526" transform="translate(1453,1520)"/>
<path d="M0 0 C0.99 0 1.98 0 3 0 C3.66 3.3 4.32 6.6 5 10 C0 3.33333333 0 3.33333333 0 0 Z " fill="#2D2B2C" transform="translate(1218,1284)"/>
<path d="M0 0 C2.25 0.25 2.25 0.25 4 1 C3.01 2.485 3.01 2.485 2 4 C-1.125 4.1875 -1.125 4.1875 -4 4 C-2.25 1.9375 -2.25 1.9375 0 0 Z " fill="#E7E6E6" transform="translate(503,538)"/>
<path d="M0 0 C0.33 0.66 0.66 1.32 1 2 C-1.31 2.33 -3.62 2.66 -6 3 C-6 2.34 -6 1.68 -6 1 C-6.66 0.67 -7.32 0.34 -8 0 C-4.97878489 -0.97110486 -2.99536737 -1.13617383 0 0 Z " fill="#D2D1D2" transform="translate(500,541)"/>
<path d="M0 0 C0.99 0.33 1.98 0.66 3 1 C2 4 2 4 0.125 5.1875 C-2 6 -2 6 -5 6 C-3.35 4.02 -1.7 2.04 0 0 Z " fill="#2A2728" transform="translate(443,402)"/>
<path d="M0 0 C3.08089673 2.77280706 4.68775452 5.06326356 6 9 C4.68 8.67 3.36 8.34 2 8 C1.34 5.36 0.68 2.72 0 0 Z " fill="#2C292A" transform="translate(651,238)"/>
<path d="M0 0 C0.33 2.31 0.66 4.62 1 7 C0.01 7 -0.98 7 -2 7 C-2.66 5.02 -3.32 3.04 -4 1 C-2 0 -2 0 0 0 Z " fill="#E8E7E8" transform="translate(1491,1450)"/>
<path d="M0 0 C0.33 0.66 0.66 1.32 1 2 C-5.0546875 2.9765625 -5.0546875 2.9765625 -7 3 C-7.66 2.34 -8.32 1.68 -9 1 C-5.8035914 -0.06546953 -3.34252724 -0.07427838 0 0 Z " fill="#3F3C3D" transform="translate(530,246)"/>
<path d="M0 0 C0.33 0 0.66 0 1 0 C1.33 3.96 1.66 7.92 2 12 C1.01 11.34 0.02 10.68 -1 10 C-0.67 6.7 -0.34 3.4 0 0 Z " fill="#525051" transform="translate(397,1261)"/>
<path d="M0 0 C-1.32 1.65 -2.64 3.3 -4 5 C-4.66 3.35 -5.32 1.7 -6 0 C-3.50907189 -1.24546405 -2.58919267 -0.7767578 0 0 Z " fill="#363434" transform="translate(1130,1159)"/>
<path d="M0 0 C0.66 0 1.32 0 2 0 C2.66 2.31 3.32 4.62 4 7 C3.01 7.33 2.02 7.66 1 8 C0.01 7.34 -0.98 6.68 -2 6 C-1.01 6 -0.02 6 1 6 C0.67 4.02 0.34 2.04 0 0 Z " fill="#3A3738" transform="translate(749,445)"/>
<path d="M0 0 C-0.66 1.65 -1.32 3.3 -2 5 C-3.65 4.67 -5.3 4.34 -7 4 C-3.375 0 -3.375 0 0 0 Z " fill="#2F2B2C" transform="translate(836,1233)"/>
<path d="M0 0 C-1.15173355 2.46800047 -2.04783565 4.04783565 -4 6 C-4.99 5.67 -5.98 5.34 -7 5 C-2.25 0 -2.25 0 0 0 Z " fill="#393637" transform="translate(1325,1084)"/>
<path d="M0 0 C1.23076923 4.92307692 1.23076923 4.92307692 0 8 C-0.99 8.66 -1.98 9.32 -3 10 C-2.01 6.7 -1.02 3.4 0 0 Z " fill="#3E3A3B" transform="translate(287,850)"/>
<path d="M0 0 C0.66 0.33 1.32 0.66 2 1 C0.125 5.75 0.125 5.75 -1 8 C-1.66 8 -2.32 8 -3 8 C-1.125 2.25 -1.125 2.25 0 0 Z " fill="#333031" transform="translate(304,811)"/>
<path d="M0 0 C0.66 0.33 1.32 0.66 2 1 C1.34 2.65 0.68 4.3 0 6 C-0.66 6 -1.32 6 -2 6 C-2 6.66 -2 7.32 -2 8 C-2.66 7.67 -3.32 7.34 -4 7 C-2.68 4.69 -1.36 2.38 0 0 Z " fill="#2E2C2D" transform="translate(373,677)"/>
<path d="M0 0 C-0.33 0.99 -0.66 1.98 -1 3 C-3.31 3.33 -5.62 3.66 -8 4 C-4.5 0 -4.5 0 0 0 Z " fill="#2E2B2C" transform="translate(647,419)"/>
<path d="M0 0 C1.65 0 3.3 0 5 0 C4.67 1.32 4.34 2.64 4 4 C2.35 3.67 0.7 3.34 -1 3 C-0.67 2.01 -0.34 1.02 0 0 Z " fill="#302C2D" transform="translate(502,283)"/>
</svg>
