<svg xmlns="http://www.w3.org/2000/svg" xmlns:xlink="http://www.w3.org/1999/xlink" width="60" zoomAndPan="magnify" viewBox="0 0 45 44.999999" height="60" preserveAspectRatio="xMidYMid meet" version="1.0"><defs><clipPath id="e874676f7c"><path d="M 0 3.195312 L 45 3.195312 L 45 42.945312 L 0 42.945312 Z M 0 3.195312 " clip-rule="nonzero"/></clipPath></defs><rect x="-4.5" width="54" fill="#ffffff" y="-4.5" height="53.999999" fill-opacity="1"/><rect x="-4.5" width="54" fill="#ed1173" y="-4.5" height="53.999999" fill-opacity="1"/><g clip-path="url(#e874676f7c)"><path fill="#ffffff" d="M 17.449219 26.648438 C 18.574219 25.28125 19.664062 23.820312 20.398438 22.21875 C 18.699219 24.015625 16.234375 24.753906 13.863281 25.195312 C 10.007812 25.808594 5.933594 25.007812 2.808594 22.609375 C 2.382812 22.3125 -0.214844 20.035156 0.125 19.675781 C 0.355469 19.480469 0.695312 20.183594 0.863281 20.320312 C 1.355469 20.929688 1.917969 21.476562 2.53125 21.957031 C 5.746094 24.695312 10.203125 25.601562 14.296875 24.785156 C 16.679688 24.289062 19.355469 23.382812 20.699219 21.21875 C 17.128906 23.070312 12.75 22.605469 9.359375 20.550781 C 9.171875 20.449219 9.324219 20.160156 9.519531 20.273438 C 10.074219 20.582031 10.648438 20.863281 11.234375 21.105469 C 12.542969 21.632812 13.929688 22 15.34375 22.042969 C 16.828125 22.121094 18.339844 21.902344 19.707031 21.300781 C 19.910156 21.148438 20.753906 20.96875 20.65625 20.699219 C 20.585938 20.492188 20.75 20.089844 20.480469 20.019531 C 18.847656 19.5625 17.210938 19.058594 15.734375 18.214844 C 10.457031 15.367188 7.351562 9.605469 6.648438 3.777344 C 6.652344 3.589844 6.507812 3.222656 6.777344 3.199219 C 6.878906 3.195312 6.914062 3.253906 6.929688 3.355469 C 7.089844 4.542969 7.28125 5.730469 7.613281 6.886719 C 9.054688 12.472656 13.167969 17.445312 18.761719 19.164062 C 18.257812 18.628906 17.835938 17.484375 18.746094 17.136719 C 19.769531 17.058594 20.417969 18.671875 22.125 17.851562 C 22.628906 17.621094 23.464844 17.375 23.824219 17.953125 C 23.859375 18.019531 23.910156 18.027344 23.953125 17.980469 C 24.175781 17.761719 24.4375 17.761719 24.71875 17.808594 C 25.347656 17.871094 25.492188 18.625 26.132812 18.675781 C 26.550781 18.742188 26.792969 19.082031 26.722656 19.496094 C 30.972656 17.765625 34.253906 14.167969 36.238281 10.09375 C 36.734375 9.007812 37.214844 7.914062 37.609375 6.789062 C 37.75 6.382812 37.859375 5.96875 37.980469 5.558594 C 38.105469 5.324219 38.042969 4.761719 38.390625 4.804688 C 38.5 4.84375 38.5 4.949219 38.476562 5.03125 C 38.167969 6.148438 37.800781 7.25 37.394531 8.332031 C 35.507812 13.089844 32.113281 17.46875 27.351562 19.585938 C 26.523438 19.933594 25.679688 20.269531 24.808594 20.496094 C 24.75 20.515625 24.667969 20.539062 24.699219 20.628906 C 24.742188 20.804688 24.878906 20.835938 25.042969 20.828125 C 25.492188 20.886719 25.945312 20.890625 26.398438 20.828125 C 27.882812 20.761719 29.316406 20.308594 30.683594 19.746094 C 31.019531 19.605469 31.339844 19.425781 31.671875 19.261719 C 31.777344 19.207031 31.875 19.195312 31.945312 19.304688 C 32.023438 19.40625 31.949219 19.480469 31.875 19.523438 C 31.308594 19.851562 30.695312 20.089844 30.089844 20.328125 C 28.945312 20.78125 27.746094 21.070312 26.519531 21.164062 C 26.179688 21.203125 25.847656 21.210938 25.511719 21.140625 C 25.476562 21.132812 25.429688 21.175781 25.386719 21.195312 C 29.496094 22.285156 33.628906 20.015625 36.863281 17.640625 C 37.097656 17.542969 37.550781 16.871094 37.742188 17.195312 C 37.855469 17.402344 37.242188 17.71875 37.109375 17.863281 C 33.71875 20.433594 29.277344 22.796875 24.945312 21.417969 C 27.269531 23.222656 30.464844 23.691406 33.351562 23.457031 C 34.488281 23.328125 35.621094 23.167969 36.722656 22.847656 C 37.007812 22.835938 38.234375 22.257812 38.28125 22.582031 C 38.332031 22.894531 37.066406 23.074219 36.800781 23.179688 C 35.582031 23.496094 34.339844 23.726562 33.078125 23.789062 C 30.792969 23.988281 28.472656 23.621094 26.382812 22.664062 C 25.734375 22.390625 25.148438 22.007812 24.582031 21.59375 C 24.484375 21.511719 24.125 21.546875 24.289062 21.730469 C 25.503906 23.035156 27.050781 23.992188 28.734375 24.5625 C 32.582031 25.894531 36.746094 25.492188 40.683594 24.808594 C 42.34375 24.46875 44.007812 24.039062 45.554688 23.347656 C 46.335938 23.015625 47.058594 22.574219 47.773438 22.117188 C 47.960938 22.007812 48.105469 21.75 48.347656 21.777344 C 48.777344 21.925781 47.707031 22.539062 47.582031 22.648438 C 44.625 24.515625 41.101562 25.175781 37.675781 25.570312 C 32.925781 26.121094 27.453125 25.644531 24.027344 21.933594 C 24.15625 25.691406 25.222656 32.484375 27.585938 35.4375 C 28.449219 36.367188 29.34375 37.269531 30.230469 38.175781 C 31.175781 39.125 31.050781 39.773438 29.675781 39.984375 C 29.363281 40.015625 29.054688 40.054688 28.746094 40.09375 C 28.675781 40.105469 28.605469 40.132812 28.648438 40.25 C 28.796875 40.664062 29 41.21875 28.585938 41.554688 C 27.53125 42.296875 26.242188 42.765625 24.945312 42.746094 C 23.972656 42.78125 23.25 42.074219 22.316406 41.9375 C 21.488281 41.804688 20.824219 42.402344 20.039062 42.433594 C 18.8125 42.226562 17.253906 41.324219 16.53125 40.304688 C 16.3125 39.949219 16.734375 39.753906 16.949219 39.546875 C 17.460938 39.035156 17.976562 38.457031 18.265625 37.800781 C 16.964844 38.699219 14.5 39.21875 13.21875 38.066406 C 13.054688 37.863281 12.914062 37.644531 12.675781 37.515625 C 12.410156 37.371094 12.460938 38.003906 11.851562 37.773438 C 10.964844 37.476562 10.117188 37.0625 9.246094 36.71875 C 7.332031 36.019531 5.269531 35.351562 3.214844 35.65625 C 2.261719 35.800781 1.328125 36.105469 0.507812 36.613281 C 0.0898438 36.886719 -0.324219 37.167969 -0.738281 37.445312 C -0.886719 37.613281 -1.238281 37.539062 -1.144531 37.277344 C 0.9375 31.953125 11.914062 33.589844 17.449219 26.648438 M 24.210938 42 C 24.183594 42.046875 24.074219 42.007812 24.066406 42.050781 C 24.101562 42.046875 24.136719 42.039062 24.183594 42.027344 C 24.195312 42.019531 24.210938 42.011719 24.238281 42 C 24.492188 41.800781 24.28125 41.355469 23.964844 41.421875 C 23.773438 41.4375 23.601562 41.59375 23.558594 41.808594 C 23.5 42.082031 23.824219 42.210938 24.035156 42.300781 C 24.574219 42.480469 24.8125 41.835938 24.550781 41.488281 C 24.359375 41.308594 24.332031 41.449219 24.460938 41.617188 C 24.710938 42.273438 23.664062 42.460938 23.722656 41.769531 C 23.824219 41.277344 24.527344 41.613281 24.210938 42 M 22.675781 41.40625 C 22.671875 41.386719 22.667969 41.363281 22.667969 41.34375 C 22.660156 41.34375 22.65625 41.347656 22.648438 41.351562 C 22.769531 41.929688 23.609375 41.296875 23.042969 40.890625 C 22.511719 40.574219 21.949219 41.582031 22.648438 41.65625 C 22.496094 41.457031 22.390625 41.285156 22.570312 41.070312 C 22.640625 40.972656 22.8125 40.910156 22.949219 40.976562 C 23.34375 41.164062 23.042969 41.726562 22.675781 41.40625 M 19.714844 40.824219 C 19.703125 40.824219 19.695312 40.824219 19.6875 40.824219 C 20.011719 41.117188 19.925781 41.753906 19.410156 41.699219 C 18.957031 41.660156 18.875 41.113281 19.308594 40.980469 C 19.632812 40.925781 19.8125 41.386719 19.472656 41.527344 C 19.800781 41.5625 19.816406 41.050781 19.5625 40.921875 C 19.390625 40.8125 19.128906 40.867188 18.984375 41.054688 C 18.851562 41.226562 18.859375 41.507812 19.003906 41.667969 C 19.570312 42.351562 20.652344 41.238281 19.714844 40.824219 M 25.222656 41.65625 C 25.222656 41.628906 25.214844 41.601562 25.222656 41.574219 C 25.230469 41.542969 25.246094 41.511719 25.257812 41.476562 C 25.28125 41.574219 25.375 41.621094 25.460938 41.636719 C 25.660156 41.550781 25.476562 41.269531 25.257812 41.375 C 25.109375 41.574219 25.257812 41.90625 25.554688 41.800781 C 25.976562 41.648438 25.691406 40.933594 25.273438 41.078125 C 24.957031 41.230469 24.796875 41.386719 24.945312 41.734375 C 25.011719 41.871094 25.0625 42.027344 25.238281 42.09375 C 25.949219 42.359375 26.488281 41.355469 25.730469 41.035156 C 26.332031 41.867188 25.230469 42.332031 25.027344 41.601562 C 24.976562 41.351562 25.339844 41.050781 25.554688 41.269531 C 25.863281 41.472656 25.539062 41.964844 25.222656 41.65625 M 18.800781 32.078125 C 19.277344 31.023438 19.617188 29.914062 19.792969 28.769531 C 19.855469 28.132812 19.921875 27.496094 20.046875 26.867188 C 20.253906 25.675781 20.683594 24.542969 21.101562 23.414062 C 21.183594 23.089844 21.707031 22.359375 21.601562 22.101562 C 21.5 22.042969 21.058594 21.488281 21.015625 21.726562 C 20.632812 22.550781 20.195312 23.351562 19.714844 24.121094 C 18.980469 25.324219 18.105469 26.433594 17.164062 27.476562 C 14.976562 29.863281 12 31.304688 8.953125 32.265625 C 6.871094 33.003906 4.648438 33.433594 2.644531 34.332031 C 2.710938 34.339844 2.789062 34.371094 2.847656 34.351562 C 3.53125 34.136719 4.253906 34.15625 4.957031 34.199219 C 7.203125 34.410156 9.367188 35.195312 11.421875 36.105469 C 11.660156 36.160156 12.339844 36.613281 12.488281 36.359375 C 12.644531 36.074219 13.058594 36.0625 13.261719 36.257812 C 13.429688 36.539062 14.570312 35.617188 14.851562 35.496094 C 15.6875 34.933594 16.472656 34.25 17.015625 33.386719 C 17.074219 33.300781 17.136719 33.289062 17.207031 33.339844 C 17.589844 33.472656 16.75 34.292969 16.613281 34.449219 C 15.792969 35.332031 14.785156 35.960938 13.75 36.546875 C 13.664062 36.597656 13.644531 36.664062 13.707031 36.726562 C 14.265625 37.308594 14.328125 37.109375 14.910156 36.71875 C 16.589844 35.550781 17.9375 33.933594 18.800781 32.078125 M 24.777344 29.53125 C 24.574219 28.390625 24.496094 29.167969 23.085938 29.296875 C 22.519531 29.359375 21.960938 29.488281 21.390625 29.386719 C 21.339844 29.386719 21.261719 29.382812 21.253906 29.480469 C 21.035156 31.5 21.1875 33.539062 21.015625 35.558594 C 20.929688 37.007812 20.796875 38.457031 20.625 39.902344 C 20.621094 39.960938 20.597656 40.015625 20.722656 39.988281 C 21.007812 39.9375 21.289062 39.847656 21.59375 39.890625 C 22.15625 39.929688 22.648438 40.183594 23.140625 40.433594 C 23.476562 40.605469 23.84375 40.65625 24.207031 40.699219 C 24.34375 40.6875 24.304688 40.546875 24.289062 40.453125 C 23.902344 37.722656 23.53125 34.980469 22.839844 32.308594 C 22.714844 31.792969 22.585938 31.277344 22.453125 30.765625 C 22.429688 30.636719 22.542969 30.625 22.621094 30.601562 C 22.828125 30.425781 23.035156 31.921875 23.117188 32.09375 C 23.710938 34.460938 24.128906 36.863281 24.445312 39.277344 C 24.488281 39.699219 24.578125 40.109375 24.636719 40.527344 C 24.652344 40.640625 24.691406 40.6875 24.796875 40.671875 C 25.546875 40.648438 26.226562 40.355469 26.921875 40.089844 C 27.179688 39.976562 26.867188 39.671875 26.828125 39.496094 C 26.359375 38.425781 25.855469 37.371094 25.363281 36.3125 C 25.125 35.789062 24.910156 35.253906 24.683594 34.726562 C 24.636719 34.621094 24.679688 34.554688 24.777344 34.515625 C 25.050781 34.339844 25.222656 35.304688 25.359375 35.492188 C 25.945312 36.875 26.636719 38.210938 27.242188 39.585938 C 27.332031 39.804688 27.304688 39.890625 27.578125 39.703125 C 27.746094 39.585938 27.921875 39.460938 27.875 39.21875 C 27.253906 37.5625 28.289062 38.296875 29.402344 37.863281 C 28.832031 37.164062 28.109375 36.578125 27.53125 35.878906 C 25.96875 34.117188 25.355469 31.769531 24.777344 29.53125 M 18.039062 38.820312 C 17.222656 39.824219 17.300781 39.378906 18.695312 40.195312 C 19.199219 40.480469 19.667969 40.417969 20.175781 40.191406 C 20.40625 40.082031 20.378906 38.867188 20.433594 38.574219 C 20.859375 35.550781 20.746094 32.5 20.925781 29.464844 C 20.835938 29.214844 20.433594 29.273438 20.226562 29.15625 C 20.117188 29.113281 20.101562 29.148438 20.101562 29.242188 C 20.085938 30.570312 20.027344 31.902344 19.902344 33.222656 C 19.667969 35.199219 19.171875 37.148438 18.039062 38.820312 M 0.808594 36.0625 C 3.617188 34.601562 6.769531 35.378906 9.558594 36.496094 C 10.324219 36.800781 11.078125 37.140625 11.847656 37.441406 C 12.238281 37.648438 12.242188 37.066406 12.691406 37.175781 C 13.738281 37.617188 13.101562 38.277344 15.175781 38.402344 C 16.308594 38.421875 17.378906 38.023438 18.296875 37.375 C 18.589844 37.207031 18.738281 36.917969 18.816406 36.605469 C 17.753906 37.292969 16.484375 37.753906 15.195312 37.632812 C 14.109375 37.582031 13.730469 37.300781 13.046875 36.515625 C 12.78125 36.277344 12.6875 36.949219 12.210938 36.753906 C 11.066406 36.367188 9.980469 35.828125 8.847656 35.417969 C 7.003906 34.820312 5.03125 34.277344 3.089844 34.59375 C 1.671875 34.890625 0.113281 35.625 -0.601562 36.925781 C -0.136719 36.625 0.289062 36.304688 0.808594 36.0625 M 22.09375 23.886719 C 21.808594 24.933594 21.65625 26 21.484375 27.066406 C 21.5 27.304688 21.195312 27.960938 21.613281 27.914062 C 22.5 27.914062 23.371094 27.789062 24.175781 27.390625 C 24.265625 27.355469 24.296875 27.292969 24.28125 27.203125 C 24.03125 25.847656 23.863281 24.476562 23.753906 23.105469 C 23.734375 22.75 23.710938 22.390625 23.703125 22.035156 C 23.671875 21.855469 23.789062 21.644531 23.671875 21.492188 C 23.40625 21.863281 23.671875 23.4375 23.671875 23.976562 C 23.644531 24.132812 23.863281 25.097656 23.683594 25.027344 C 23.449219 25.007812 23.441406 23.457031 23.394531 23.179688 C 23.378906 22.867188 23.375 22.550781 23.363281 22.234375 C 23.328125 22.128906 23.128906 22.347656 23.125 22.386719 C 22.964844 23.289062 23 24.222656 23.054688 25.128906 C 22.570312 25.78125 22.949219 22.496094 22.878906 22.378906 C 22.847656 22.417969 22.789062 22.449219 22.785156 22.503906 C 22.648438 23.242188 22.433594 23.960938 22.402344 24.710938 C 22.390625 24.785156 22.375 24.816406 22.296875 24.816406 C 21.964844 24.804688 22.601562 22.878906 22.550781 22.628906 C 22.285156 22.984375 22.253906 23.453125 22.09375 23.886719 M 15.535156 36.671875 C 15.304688 36.90625 14.949219 37 14.761719 37.261719 C 15.105469 37.355469 15.496094 37.261719 15.855469 37.300781 C 16.578125 37.308594 17.261719 37.03125 17.914062 36.746094 C 18.257812 36.535156 18.917969 36.25 19.058594 35.863281 C 19.503906 34.144531 19.75 32.324219 19.75 30.570312 C 18.988281 32.9375 17.550781 35.148438 15.535156 36.671875 M 21.25 19.195312 C 21.976562 18.921875 22.117188 19.46875 22.554688 19.433594 C 22.761719 19.261719 22.988281 19.175781 23.261719 19.246094 C 23.3125 19.261719 23.394531 19.285156 23.425781 19.179688 C 23.613281 18.75 23.816406 17.894531 23.085938 17.921875 C 21.980469 18.136719 21.261719 18.769531 20.089844 18.113281 C 19.742188 17.988281 19.085938 17.300781 18.761719 17.484375 C 18.402344 17.710938 18.523438 18.191406 18.695312 18.5 C 19.042969 19.214844 19.78125 19.496094 20.511719 19.667969 C 20.835938 19.757812 20.972656 19.339844 21.25 19.195312 M 20.542969 26.15625 C 20.523438 26.347656 20.089844 27.710938 20.300781 27.691406 C 20.457031 27.695312 21.011719 27.921875 21.066406 27.761719 C 21.15625 26.976562 21.285156 26.203125 21.414062 25.425781 C 21.546875 24.804688 21.695312 24.183594 21.863281 23.566406 C 21.960938 23.242188 22.089844 22.921875 22.203125 22.601562 C 22.269531 22.40625 22.210938 22.320312 22.011719 22.355469 C 21.960938 22.367188 21.898438 22.433594 21.875 22.492188 C 21.324219 23.683594 20.875 24.875 20.542969 26.15625 M 22.078125 19.609375 C 21.535156 19.1875 20.933594 19.671875 20.933594 20.277344 C 20.917969 21.078125 21.574219 21.917969 22.363281 22.070312 C 22.277344 21.796875 22.054688 21.578125 21.898438 21.34375 C 21.707031 21.03125 21.25 20.75 21.21875 20.386719 C 21.59375 20.425781 22.058594 21.296875 22.339844 21.597656 C 22.476562 21.75 22.492188 22.074219 22.742188 22.066406 C 22.945312 22.027344 22.570312 21.304688 22.492188 21.183594 C 22.300781 20.878906 22.082031 20.59375 21.789062 20.371094 C 21.679688 20.289062 21.554688 20.214844 21.578125 20.054688 C 21.71875 20.007812 21.800781 20.109375 21.902344 20.183594 C 22.46875 20.601562 22.8125 21.21875 23 21.882812 C 23.039062 21.988281 23.078125 21.949219 23.121094 21.914062 C 23.757812 21.25 22.601562 20.050781 22.078125 19.609375 M 24.074219 18.363281 C 23.976562 18.636719 23.878906 18.910156 23.777344 19.183594 C 23.730469 19.308594 23.722656 19.40625 23.882812 19.449219 C 24.175781 19.578125 24.472656 19.742188 24.582031 20.070312 C 24.699219 20.300781 24.976562 20.074219 25.160156 20.050781 C 25.820312 19.917969 27.199219 19.222656 25.78125 18.921875 C 25.335938 18.824219 25.191406 18.324219 24.785156 18.164062 C 24.503906 18.058594 24.226562 18.085938 24.074219 18.363281 M 24.003906 21.257812 C 24.539062 21.386719 24.328125 20.695312 24.332031 20.386719 C 24.289062 19.882812 23.703125 19.777344 23.324219 19.589844 C 23.160156 19.488281 22.667969 19.574219 22.816406 19.847656 C 22.894531 19.945312 22.988281 20.042969 23.054688 20.148438 C 23.210938 20.394531 23.386719 20.628906 23.496094 20.890625 C 23.605469 21.171875 23.726562 21.230469 24.003906 21.257812 M 28.859375 38.320312 C 28.664062 38.386719 27.917969 38.246094 28.019531 38.570312 C 28.257812 39.203125 28.105469 38.96875 28.65625 38.941406 C 28.953125 39.050781 28.851562 38.398438 29.335938 38.324219 C 30.121094 38.21875 30.195312 39.542969 29.335938 39.265625 C 28.953125 39.121094 29.226562 38.363281 29.648438 38.660156 C 29.808594 38.816406 29.765625 39.027344 29.550781 39.121094 C 29.609375 39.167969 29.65625 39.140625 29.710938 39.101562 C 29.859375 39.011719 29.820312 38.863281 29.8125 38.734375 C 29.808594 38.640625 29.628906 38.5 29.523438 38.484375 C 29.042969 38.394531 28.828125 39.121094 29.203125 39.34375 C 29.753906 39.777344 30.535156 38.945312 30.007812 38.4375 C 29.867188 38.285156 29.675781 38.335938 29.515625 38.230469 C 29.609375 38.160156 29.734375 38.207031 29.816406 38.125 C 29.496094 38.085938 29.199219 38.269531 28.859375 38.320312 M 21.679688 40.546875 C 21.40625 40.289062 21.074219 40.25 20.792969 40.597656 C 20.367188 41.171875 21.050781 41.835938 21.625 41.648438 C 22.054688 41.527344 22.382812 41.03125 22.097656 40.632812 C 21.972656 40.4375 21.792969 40.210938 21.539062 40.246094 C 22.582031 40.917969 21.214844 42.101562 20.847656 41.023438 C 20.769531 40.644531 21.285156 40.320312 21.554688 40.621094 C 21.777344 40.839844 21.589844 41.273438 21.269531 41.191406 C 21.097656 41.117188 21.015625 40.929688 21.128906 40.785156 C 21.195312 40.878906 21.15625 41.058594 21.300781 41.058594 C 21.449219 41.074219 21.558594 40.914062 21.496094 40.792969 C 21.335938 40.554688 21.023438 40.664062 20.984375 40.9375 C 21.109375 41.65625 22.082031 41.203125 21.679688 40.546875 M 27.324219 40.851562 C 27.273438 40.824219 27.222656 40.785156 27.167969 40.757812 C 27.148438 40.746094 27.125 40.746094 27.101562 40.742188 C 27.304688 41.039062 27.398438 41.316406 27.089844 41.554688 C 26.921875 41.714844 26.652344 41.695312 26.496094 41.519531 C 26.339844 41.335938 26.328125 41.1875 26.515625 40.972656 C 26.957031 40.671875 27.28125 41.261719 26.769531 41.488281 C 27.289062 41.558594 27.246094 40.707031 26.699219 40.785156 C 26.414062 40.785156 26.179688 41.117188 26.257812 41.394531 C 26.542969 42.257812 27.9375 41.609375 27.324219 40.851562 M 26.285156 41.753906 C 26.28125 41.738281 26.273438 41.722656 26.265625 41.707031 C 26.027344 42.148438 25.773438 42.335938 25.25 42.273438 C 25.316406 42.589844 26.078125 42.246094 26.328125 42.234375 C 26.632812 42.09375 27.628906 42.042969 27.527344 41.589844 C 27.195312 41.941406 26.699219 42.132812 26.285156 41.753906 M 21.609375 28.855469 C 21.363281 28.445312 21.90625 28.09375 22.109375 28.574219 C 22.152344 28.527344 22.152344 28.476562 22.121094 28.425781 C 21.878906 27.945312 21.25 28.417969 21.429688 28.769531 C 21.585938 29.328125 22.488281 29.167969 22.367188 28.589844 C 22.335938 28.464844 22.230469 28.492188 22.257812 28.605469 C 22.242188 28.988281 21.871094 29.054688 21.609375 28.855469 M 18.261719 41.144531 C 18.050781 41.074219 17.96875 40.910156 18.03125 40.707031 C 18.109375 40.453125 18.496094 40.496094 18.550781 40.757812 C 18.664062 40.195312 17.617188 40.394531 17.910156 41.039062 C 18.078125 41.582031 19.136719 41.222656 18.742188 40.699219 C 18.664062 40.960938 18.609375 41.230469 18.261719 41.144531 M 20.585938 41.972656 C 20.738281 41.929688 20.894531 41.882812 21.050781 41.835938 C 21.070312 41.828125 21.082031 41.804688 21.097656 41.789062 C 20.5625 41.480469 20.691406 41.476562 20.449219 40.976562 C 20.398438 41.289062 20.425781 41.613281 20.367188 41.925781 C 20.339844 42.109375 20.496094 42.023438 20.585938 41.972656 M 30.121094 39.550781 C 30.546875 39.292969 30.652344 39.230469 30.351562 38.769531 C 30.285156 38.964844 30.316406 39.183594 30.144531 39.332031 C 29.851562 39.65625 29.480469 39.609375 29.097656 39.53125 C 29.09375 39.609375 29.015625 39.738281 29.152344 39.730469 C 29.488281 39.699219 29.804688 39.722656 30.121094 39.550781 M 23.296875 28.796875 C 23.09375 28.96875 22.734375 28.902344 22.703125 28.605469 C 22.722656 28.226562 23.0625 28.148438 23.273438 28.464844 C 23.304688 28.070312 22.707031 28.066406 22.59375 28.425781 C 22.457031 28.6875 22.71875 29.074219 23.019531 29.019531 C 23.109375 29.003906 23.199219 28.988281 23.289062 28.964844 C 23.492188 28.917969 23.683594 28.496094 23.398438 28.4375 C 23.386719 28.570312 23.429688 28.695312 23.296875 28.796875 M 20.515625 28.8125 C 19.71875 28.65625 20.617188 27.675781 20.753906 28.519531 C 20.96875 28.015625 20.066406 27.84375 20.097656 28.542969 C 20.046875 28.828125 20.332031 28.863281 20.53125 28.941406 C 20.878906 29.070312 21.117188 28.621094 20.988281 28.332031 C 20.976562 28.300781 20.992188 28.257812 20.996094 28.21875 C 20.796875 28.464844 21.015625 28.808594 20.515625 28.8125 M 28.433594 40.632812 C 28.355469 40.378906 28.359375 40.023438 28.015625 40.015625 C 27.847656 40.039062 27.398438 40 27.496094 40.28125 C 27.605469 40.265625 27.621094 40.132812 27.714844 40.089844 C 27.761719 40.164062 27.710938 40.242188 27.816406 40.175781 C 28.246094 39.988281 28.515625 40.726562 28.082031 40.835938 C 27.855469 40.90625 27.554688 40.582031 27.796875 40.40625 C 27.8125 40.398438 27.8125 40.371094 27.816406 40.351562 C 27.679688 40.359375 27.617188 40.472656 27.628906 40.59375 C 27.636719 41.054688 28.316406 41.070312 28.433594 40.632812 M 24.363281 28.203125 C 24.363281 27.417969 23.300781 27.914062 23.730469 28.511719 C 23.976562 28.769531 24.160156 28.730469 24.425781 28.597656 C 24.46875 28.578125 24.570312 28.347656 24.480469 28.300781 C 24.339844 28.542969 24.023438 28.683594 23.808594 28.398438 C 23.570312 27.933594 24.265625 27.640625 24.328125 28.265625 C 24.335938 28.25 24.34375 28.234375 24.363281 28.203125 M 27.007812 40.589844 C 27.074219 40.609375 27.148438 40.628906 27.214844 40.644531 C 27.246094 40.652344 27.269531 40.65625 27.296875 40.660156 C 27.273438 40.238281 27.070312 40.375 26.789062 40.480469 C 26.4375 40.605469 26.097656 40.789062 25.726562 40.839844 C 25.699219 40.851562 25.683594 40.890625 25.664062 40.914062 C 25.753906 40.980469 25.894531 40.964844 25.972656 41.03125 C 26.226562 41.269531 26.03125 40.585938 27.007812 40.589844 M 28.058594 41.089844 C 28.054688 41.09375 28.050781 41.097656 28.046875 41.097656 C 27.96875 41.085938 27.894531 41.074219 27.816406 41.058594 C 27.816406 41.144531 27.816406 41.230469 27.824219 41.3125 C 27.832031 41.402344 27.859375 41.496094 27.875 41.585938 C 28.179688 41.476562 28.566406 41.25 28.53125 40.871094 C 28.507812 40.886719 28.480469 40.898438 28.453125 40.914062 C 28.335938 40.984375 28.242188 41.101562 28.058594 41.089844 M 23.1875 41.835938 C 23.671875 41.675781 23.695312 40.945312 23.214844 40.8125 C 23.476562 41.203125 23.460938 41.636719 22.921875 41.695312 C 22.941406 41.726562 22.953125 41.765625 22.976562 41.777344 C 23.035156 41.804688 23.097656 41.820312 23.1875 41.835938 M 23.671875 41.074219 C 23.730469 41.171875 23.691406 41.339844 23.855469 41.289062 C 24.054688 41.261719 24.265625 41.265625 24.472656 41.269531 C 24.507812 40.960938 23.835938 40.96875 23.617188 40.960938 C 23.636719 40.992188 23.65625 41.019531 23.671875 41.074219 M 22.191406 40.480469 C 22.535156 40.992188 22.125 40.9375 22.8125 40.671875 C 22.609375 40.46875 22.285156 40.382812 22.019531 40.292969 C 22.078125 40.359375 22.117188 40.414062 22.191406 40.480469 M 16.929688 40.339844 C 17.015625 40.1875 17.042969 39.992188 17.242188 39.957031 C 17.347656 39.925781 17.433594 39.992188 17.492188 40.074219 C 17.53125 40.125 17.496094 40.21875 17.558594 40.257812 C 17.695312 39.871094 17.113281 39.703125 16.921875 40.023438 C 16.867188 40.121094 16.804688 40.230469 16.929688 40.339844 M 17.71875 40.273438 C 17.648438 40.457031 17.566406 40.621094 17.320312 40.59375 C 17.300781 40.589844 17.257812 40.621094 17.257812 40.636719 C 17.273438 40.746094 17.433594 40.738281 17.507812 40.726562 C 17.816406 40.636719 17.863281 40.347656 17.757812 40.066406 C 17.746094 40.128906 17.734375 40.1875 17.71875 40.273438 M 28.695312 39.207031 C 28.8125 39.320312 28.832031 39.546875 28.742188 39.683594 C 28.730469 39.707031 28.722656 39.730469 28.714844 39.75 C 29.15625 39.769531 28.964844 38.980469 28.574219 39.078125 C 28.601562 39.144531 28.625 39.164062 28.695312 39.207031 M 20.183594 40.824219 C 20.179688 40.746094 20.285156 40.53125 20.132812 40.5625 C 19.992188 40.613281 19.808594 40.59375 19.714844 40.71875 C 20.003906 40.8125 19.949219 40.804688 20.152344 41.023438 C 20.164062 40.964844 20.171875 40.910156 20.183594 40.824219 M 20.074219 41.792969 C 20.011719 41.703125 19.726562 41.972656 19.636719 42.011719 C 19.546875 42.078125 19.695312 42.039062 19.675781 42.085938 C 19.980469 42.109375 20.011719 42.113281 20.074219 41.792969 M 24.667969 42.238281 C 24.648438 42.257812 24.632812 42.277344 24.613281 42.296875 C 24.585938 42.324219 24.558594 42.351562 24.535156 42.378906 C 24.890625 42.476562 25.03125 42.4375 24.785156 42.085938 C 24.746094 42.132812 24.714844 42.179688 24.667969 42.238281 M 22.910156 41.117188 C 22.851562 41.121094 22.789062 41.125 22.734375 41.125 C 22.753906 41.203125 22.761719 41.289062 22.800781 41.355469 C 22.941406 41.429688 23.113281 41.292969 22.910156 41.117188 M 26.632812 41.101562 C 26.640625 41.144531 26.652344 41.1875 26.660156 41.230469 C 26.695312 41.382812 26.90625 41.320312 26.902344 41.195312 C 26.878906 41.03125 26.761719 41.003906 26.632812 41.101562 M 29.609375 38.789062 C 29.570312 38.773438 29.535156 38.746094 29.496094 38.738281 C 29.417969 38.722656 29.289062 38.824219 29.324219 38.859375 C 29.382812 38.921875 29.46875 38.960938 29.542969 39.011719 C 29.570312 38.960938 29.597656 38.914062 29.621094 38.859375 C 29.628906 38.847656 29.621094 38.824219 29.609375 38.789062 M 20.652344 40.546875 C 20.691406 40.503906 20.726562 40.460938 20.757812 40.414062 C 20.796875 40.375 20.828125 40.328125 20.863281 40.289062 C 20.566406 40.289062 20.523438 40.433594 20.539062 40.699219 C 20.570312 40.65625 20.605469 40.609375 20.652344 40.546875 M 19.519531 41.269531 C 19.53125 41.191406 19.503906 41.132812 19.417969 41.140625 C 19.367188 41.144531 19.320312 41.164062 19.269531 41.179688 C 19.304688 41.25 19.324219 41.34375 19.378906 41.386719 C 19.417969 41.421875 19.523438 41.40625 19.519531 41.269531 M 19.089844 40.644531 C 18.992188 40.675781 18.855469 40.546875 18.820312 40.679688 C 18.886719 40.882812 19.128906 40.785156 19.269531 40.695312 C 19.195312 40.683594 19.164062 40.679688 19.089844 40.644531 M 18.59375 41.558594 C 18.660156 41.585938 18.726562 41.609375 18.792969 41.640625 C 18.757812 41.554688 18.789062 41.386719 18.667969 41.375 C 18.515625 41.402344 18.367188 41.453125 18.59375 41.558594 M 24.140625 41.738281 C 24.019531 41.539062 23.730469 41.789062 24.082031 41.917969 C 24.105469 41.863281 24.128906 41.808594 24.140625 41.738281 M 28.183594 39.636719 C 28.15625 39.632812 28.128906 39.628906 28.097656 39.625 C 28.140625 39.789062 28.214844 39.894531 28.386719 39.921875 C 28.402344 39.929688 28.433594 39.894531 28.460938 39.878906 C 28.441406 39.855469 28.421875 39.835938 28.402344 39.816406 C 28.332031 39.757812 28.265625 39.703125 28.183594 39.636719 M 22.273438 28.300781 C 22.421875 28.476562 22.472656 28.46875 22.535156 28.234375 C 22.488281 28.164062 22.355469 28.238281 22.28125 28.21875 C 22.183594 28.214844 22.285156 28.269531 22.273438 28.300781 M 23.253906 28.039062 C 23.253906 28.175781 23.398438 28.171875 23.492188 28.214844 C 23.59375 28.046875 23.394531 27.992188 23.253906 28.039062 M 17.277344 40.105469 C 17.261719 40.121094 17.234375 40.136719 17.230469 40.15625 C 17.21875 40.207031 17.214844 40.261719 17.207031 40.316406 C 17.414062 40.347656 17.480469 40.1875 17.277344 40.105469 M 28.320312 39.496094 C 28.367188 39.5625 28.503906 39.664062 28.535156 39.542969 C 28.554688 39.417969 28.3125 39.246094 28.320312 39.496094 M 20.53125 28.550781 C 20.644531 28.53125 20.585938 28.4375 20.59375 28.375 C 20.59375 28.363281 20.515625 28.324219 20.484375 28.332031 C 20.359375 28.339844 20.378906 28.679688 20.53125 28.550781 M 24.890625 40.992188 C 24.851562 41.023438 24.804688 41.042969 24.78125 41.082031 C 24.765625 41.109375 24.785156 41.15625 24.789062 41.199219 C 24.898438 41.144531 24.992188 41.070312 25.078125 40.988281 C 25.019531 40.984375 24.960938 40.980469 24.890625 40.992188 M 28.003906 40.453125 C 27.914062 40.445312 27.835938 40.472656 27.855469 40.574219 C 27.933594 40.691406 28.195312 40.65625 28.003906 40.453125 M 18.21875 40.796875 C 18.234375 40.832031 18.25 40.863281 18.265625 40.894531 C 18.316406 40.867188 18.390625 40.847656 18.402344 40.804688 C 18.417969 40.773438 18.359375 40.714844 18.335938 40.664062 C 18.296875 40.699219 18.257812 40.738281 18.21875 40.796875 M 21.816406 28.507812 C 21.800781 28.570312 21.785156 28.628906 21.773438 28.683594 C 21.8125 28.695312 21.875 28.722656 21.886719 28.707031 C 21.964844 28.609375 21.984375 28.515625 21.816406 28.507812 M 23.046875 28.410156 C 23.007812 28.433594 22.941406 28.445312 22.929688 28.476562 C 22.914062 28.519531 22.945312 28.574219 22.957031 28.625 C 23 28.617188 23.054688 28.617188 23.085938 28.589844 C 23.15625 28.53125 23.117188 28.476562 23.046875 28.410156 M 23.988281 28.246094 C 24.042969 28.238281 24.101562 28.242188 24.144531 28.21875 C 24.191406 28.15625 24.140625 28.070312 24.054688 28.050781 C 24.027344 28.105469 24 28.152344 23.976562 28.207031 C 23.972656 28.210938 23.976562 28.222656 23.988281 28.246094 M 22.550781 28.910156 C 22.523438 28.898438 22.496094 28.886719 22.472656 28.878906 C 22.363281 29.128906 22.402344 29.078125 22.632812 29.046875 C 22.609375 29.011719 22.585938 28.976562 22.5625 28.9375 C 22.5625 28.933594 22.5625 28.929688 22.550781 28.910156 M 18.109375 40.273438 C 18.035156 40.261719 17.929688 40.171875 17.871094 40.226562 C 17.921875 40.421875 17.992188 40.359375 18.109375 40.273438 M 23.851562 28.796875 C 23.683594 28.636719 23.683594 28.570312 23.617188 28.835938 C 23.667969 28.835938 23.722656 28.832031 23.773438 28.828125 C 23.796875 28.828125 23.816406 28.816406 23.851562 28.796875 M 21.261719 28.980469 C 21.269531 29.074219 21.335938 29.085938 21.410156 29.074219 C 21.398438 29.027344 21.394531 28.976562 21.371094 28.933594 C 21.347656 28.894531 21.304688 28.863281 21.269531 28.832031 C 21.269531 28.875 21.265625 28.914062 21.261719 28.980469 M 22.203125 41.488281 C 22.1875 41.46875 22.171875 41.449219 22.15625 41.425781 C 22.132812 41.484375 22.015625 41.550781 22.050781 41.613281 C 22.148438 41.613281 22.238281 41.632812 22.203125 41.488281 M 17.664062 40.964844 C 17.691406 40.957031 17.746094 40.941406 17.746094 40.9375 C 17.742188 40.816406 17.691406 40.792969 17.582031 40.832031 C 17.605469 40.871094 17.628906 40.910156 17.664062 40.964844 M 27.890625 39.925781 C 27.933594 39.929688 27.976562 39.929688 28.015625 39.933594 C 28.015625 39.902344 28.03125 39.84375 28.015625 39.835938 C 27.929688 39.78125 27.902344 39.847656 27.890625 39.925781 M 28.390625 39.179688 C 28.355469 39.1875 28.320312 39.191406 28.292969 39.207031 C 28.261719 39.226562 28.238281 39.253906 28.210938 39.273438 C 28.300781 39.253906 28.414062 39.265625 28.488281 39.199219 C 28.464844 39.195312 28.441406 39.1875 28.390625 39.179688 M 21.316406 28.257812 C 21.328125 28.292969 21.339844 28.324219 21.351562 28.355469 C 21.382812 28.316406 21.417969 28.277344 21.449219 28.238281 C 21.453125 28.230469 21.445312 28.210938 21.445312 28.191406 C 21.40625 28.210938 21.367188 28.230469 21.316406 28.257812 M 24.40625 27.691406 C 24.375 27.691406 24.347656 27.691406 24.320312 27.691406 C 24.300781 27.691406 24.28125 27.695312 24.261719 27.695312 C 24.269531 27.714844 24.269531 27.753906 24.277344 27.757812 C 24.332031 27.769531 24.421875 27.855469 24.40625 27.691406 M 26.605469 41.40625 C 26.628906 41.421875 26.644531 41.433594 26.667969 41.449219 C 26.667969 41.4375 26.671875 41.417969 26.664062 41.414062 C 26.640625 41.40625 26.617188 41.402344 26.605469 41.40625 M 23.367188 41.960938 C 23.375 41.972656 23.386719 41.980469 23.394531 41.988281 C 23.398438 41.957031 23.40625 41.925781 23.414062 41.894531 C 23.398438 41.910156 23.382812 41.921875 23.367188 41.960938 M 29.441406 39.121094 C 29.4375 39.113281 29.433594 39.105469 29.429688 39.09375 C 29.421875 39.105469 29.417969 39.113281 29.441406 39.121094 M 19.296875 41.488281 C 19.292969 41.488281 19.285156 41.484375 19.28125 41.476562 C 19.28125 41.488281 19.285156 41.496094 19.296875 41.488281 " fill-opacity="1" fill-rule="nonzero"/></g><path fill="#ffffff" d="M 34.9375 21.019531 C 35.8125 20.632812 36.625 20.144531 37.433594 19.636719 C 37.796875 19.40625 38.148438 19.152344 38.503906 18.910156 C 38.59375 18.816406 38.769531 18.738281 38.863281 18.832031 C 38.964844 19.125 38.554688 19.253906 38.382812 19.414062 C 36.835938 20.460938 35.199219 21.40625 33.417969 21.996094 C 31.78125 22.546875 30.007812 22.898438 28.28125 22.625 C 28.113281 22.550781 27.667969 22.597656 27.773438 22.332031 C 27.816406 22.128906 28.816406 22.414062 29.042969 22.375 C 31.09375 22.464844 33.074219 21.820312 34.9375 21.019531 " fill-opacity="1" fill-rule="nonzero"/><path fill="#ffffff" d="M 37.683594 15.1875 C 38.039062 15.214844 37.984375 15.671875 37.675781 15.617188 C 37.453125 15.570312 37.453125 15.230469 37.683594 15.1875 " fill-opacity="1" fill-rule="nonzero"/><path fill="#ffffff" d="M 36.546875 21.695312 C 36.355469 21.902344 36.074219 21.667969 36.210938 21.453125 C 36.378906 21.214844 36.722656 21.457031 36.546875 21.695312 " fill-opacity="1" fill-rule="nonzero"/><path fill="#ffffff" d="M 40.835938 10.648438 C 40.710938 10.84375 40.503906 10.71875 40.457031 10.550781 C 40.402344 10.1875 41.089844 10.324219 40.835938 10.648438 " fill-opacity="1" fill-rule="nonzero"/><path fill="#ffffff" d="M 42.582031 18.898438 C 42.816406 18.734375 43.09375 18.976562 42.902344 19.1875 C 42.699219 19.398438 42.425781 19.113281 42.582031 18.898438 " fill-opacity="1" fill-rule="nonzero"/><path fill="#ffffff" d="M 33.710938 22.511719 C 33.828125 22.265625 34.167969 22.445312 34.101562 22.671875 C 33.996094 22.953125 33.570312 22.804688 33.710938 22.511719 " fill-opacity="1" fill-rule="nonzero"/><path fill="#ffffff" d="M 36.339844 13.640625 C 36.609375 13.773438 36.484375 14.085938 36.226562 14.046875 C 35.949219 14.011719 36.058594 13.535156 36.339844 13.640625 " fill-opacity="1" fill-rule="nonzero"/><path fill="#ffffff" d="M 34.125 16.046875 C 34.414062 16.28125 33.949219 16.613281 33.828125 16.324219 C 33.773438 16.101562 33.894531 15.917969 34.125 16.046875 " fill-opacity="1" fill-rule="nonzero"/><path fill="#ffffff" d="M 43.894531 17.75 C 43.679688 17.996094 43.453125 17.667969 43.578125 17.488281 C 43.757812 17.265625 44.078125 17.492188 43.894531 17.75 " fill-opacity="1" fill-rule="nonzero"/><path fill="#ffffff" d="M 35.546875 17.089844 C 35.613281 16.855469 35.941406 16.878906 35.960938 17.121094 C 35.996094 17.425781 35.488281 17.425781 35.546875 17.089844 " fill-opacity="1" fill-rule="nonzero"/><path fill="#ffffff" d="M 39.800781 14.414062 C 39.960938 14.574219 39.808594 14.867188 39.582031 14.78125 C 39.285156 14.628906 39.507812 14.25 39.800781 14.414062 " fill-opacity="1" fill-rule="nonzero"/><path fill="#ffffff" d="M 39.144531 20.855469 C 39.429688 21.066406 39.113281 21.414062 38.90625 21.203125 C 38.746094 21.078125 38.929688 20.730469 39.144531 20.855469 " fill-opacity="1" fill-rule="nonzero"/><path fill="#ffffff" d="M 42.714844 15.429688 C 42.710938 15.738281 42.292969 15.703125 42.296875 15.429688 C 42.304688 15.191406 42.742188 15.148438 42.714844 15.429688 " fill-opacity="1" fill-rule="nonzero"/><path fill="#ffffff" d="M 41.183594 13.613281 C 40.992188 13.492188 41.0625 13.203125 41.292969 13.214844 C 41.632812 13.261719 41.507812 13.742188 41.183594 13.613281 " fill-opacity="1" fill-rule="nonzero"/><path fill="#ffffff" d="M 39.011719 11.550781 C 39.222656 11.847656 38.964844 11.957031 38.734375 11.871094 C 38.523438 11.722656 38.761719 11.402344 39.011719 11.550781 " fill-opacity="1" fill-rule="nonzero"/><path fill="#ffffff" d="M 40.359375 21.628906 C 40.21875 21.382812 40.613281 21.203125 40.730469 21.4375 C 40.875 21.679688 40.496094 21.878906 40.359375 21.628906 " fill-opacity="1" fill-rule="nonzero"/><path fill="#ffffff" d="M 40.105469 17.652344 C 40.332031 17.78125 40.140625 18.089844 39.925781 18.027344 C 39.632812 17.921875 39.820312 17.488281 40.105469 17.652344 " fill-opacity="1" fill-rule="nonzero"/><path fill="#ffffff" d="M 30.371094 18.417969 C 30.460938 18.226562 30.777344 18.238281 30.785156 18.476562 C 30.78125 18.808594 30.304688 18.730469 30.371094 18.417969 " fill-opacity="1" fill-rule="nonzero"/><path fill="#ffffff" d="M 33.085938 18.71875 C 32.910156 18.40625 33.425781 18.242188 33.476562 18.589844 C 33.476562 18.808594 33.210938 18.902344 33.085938 18.71875 " fill-opacity="1" fill-rule="nonzero"/><path fill="#ffffff" d="M 36.65625 19.132812 C 36.351562 18.929688 36.867188 18.59375 36.984375 18.898438 C 37.066406 19.109375 36.835938 19.222656 36.65625 19.132812 " fill-opacity="1" fill-rule="nonzero"/><path fill="#ffffff" d="M 38.175781 24.648438 C 37.910156 24.699219 37.824219 24.328125 38.046875 24.242188 C 38.296875 24.152344 38.492188 24.5 38.175781 24.648438 " fill-opacity="1" fill-rule="nonzero"/><path fill="#ffffff" d="M 30.554688 22.027344 C 30.316406 22.046875 30.300781 21.65625 30.523438 21.632812 C 30.84375 21.558594 30.878906 22.066406 30.554688 22.027344 " fill-opacity="1" fill-rule="nonzero"/><path fill="#ffffff" d="M 43.792969 21.464844 C 43.632812 21.136719 44.09375 21.046875 44.179688 21.292969 C 44.203125 21.519531 43.960938 21.667969 43.792969 21.464844 " fill-opacity="1" fill-rule="nonzero"/><path fill="#ffffff" d="M 31.503906 24.675781 C 31.503906 24.4375 31.542969 24.378906 31.683594 24.371094 C 31.773438 24.367188 31.859375 24.390625 31.878906 24.488281 C 31.945312 24.761719 31.6875 24.910156 31.503906 24.675781 " fill-opacity="1" fill-rule="nonzero"/><path fill="#ffffff" d="M 39.910156 23.203125 C 40.152344 23.109375 40.246094 23.492188 40.046875 23.585938 C 39.78125 23.726562 39.589844 23.289062 39.910156 23.203125 " fill-opacity="1" fill-rule="nonzero"/><path fill="#ffffff" d="M 15.871094 31.019531 C 16.757812 30.09375 17.535156 29.082031 18.097656 27.933594 C 18.242188 27.753906 18.222656 27.234375 18.515625 27.285156 C 18.625 27.320312 18.667969 27.410156 18.613281 27.527344 C 17.449219 30.402344 15.03125 32.558594 12.453125 34.171875 C 12.328125 34.25 12.265625 34.171875 12.226562 34.078125 C 12.066406 33.859375 13.492188 33.144531 13.699219 32.914062 C 14.480469 32.347656 15.1875 31.707031 15.871094 31.019531 " fill-opacity="1" fill-rule="nonzero"/><path fill="#ffffff" d="M 6.207031 33.835938 C 6.28125 33.515625 6.652344 33.632812 6.640625 33.882812 C 6.609375 34.136719 6.210938 34.109375 6.207031 33.835938 " fill-opacity="1" fill-rule="nonzero"/><path fill="#ffffff" d="M 15.21875 33.527344 C 15.316406 33.277344 15.632812 33.40625 15.613281 33.632812 C 15.585938 33.957031 15.09375 33.855469 15.21875 33.527344 " fill-opacity="1" fill-rule="nonzero"/><path fill="#ffffff" d="M 11.59375 31.988281 C 11.761719 32.046875 11.800781 32.292969 11.660156 32.386719 C 11.277344 32.539062 11.179688 32.019531 11.59375 31.988281 " fill-opacity="1" fill-rule="nonzero"/><path fill="#ffffff" d="M 16.050781 29.472656 C 15.910156 29.292969 16.113281 29.066406 16.304688 29.140625 C 16.457031 29.1875 16.46875 29.5 16.320312 29.539062 C 16.238281 29.5625 16.125 29.582031 16.050781 29.472656 " fill-opacity="1" fill-rule="nonzero"/><path fill="#ffffff" d="M 19.59375 27.367188 C 19.789062 27.503906 19.667969 27.839844 19.441406 27.773438 C 19.128906 27.691406 19.285156 27.269531 19.59375 27.367188 " fill-opacity="1" fill-rule="nonzero"/><path fill="#ffffff" d="M 12.882812 32.765625 C 12.792969 33.007812 12.53125 32.902344 12.464844 32.710938 C 12.453125 32.402344 13 32.40625 12.882812 32.765625 " fill-opacity="1" fill-rule="nonzero"/><path fill="#ffffff" d="M 11.164062 33.320312 C 11.417969 33.253906 11.609375 33.472656 11.414062 33.679688 C 11.191406 33.839844 10.90625 33.488281 11.164062 33.320312 " fill-opacity="1" fill-rule="nonzero"/><path fill="#ffffff" d="M 9.226562 33.261719 C 9.554688 33.269531 9.542969 33.636719 9.304688 33.699219 C 9.226562 33.722656 9.070312 33.625 9.070312 33.523438 C 9.082031 33.4375 9.136719 33.304688 9.226562 33.261719 " fill-opacity="1" fill-rule="nonzero"/><path fill="#ffffff" d="M 13.65625 31.4375 C 13.921875 31.410156 14.015625 31.808594 13.730469 31.847656 C 13.449219 31.914062 13.390625 31.503906 13.65625 31.4375 " fill-opacity="1" fill-rule="nonzero"/><path fill="#ffffff" d="M 14.371094 34.777344 C 14.179688 35.105469 13.820312 34.765625 14.027344 34.554688 C 14.191406 34.375 14.433594 34.5625 14.371094 34.777344 " fill-opacity="1" fill-rule="nonzero"/><path fill="#ffffff" d="M 17.304688 28.550781 C 16.96875 28.597656 16.941406 28.210938 17.179688 28.140625 C 17.4375 28.050781 17.515625 28.445312 17.304688 28.550781 " fill-opacity="1" fill-rule="nonzero"/><path fill="#ffffff" d="M 18.109375 30.597656 C 17.886719 30.65625 17.742188 30.367188 17.910156 30.234375 C 18.183594 30.082031 18.421875 30.402344 18.109375 30.597656 " fill-opacity="1" fill-rule="nonzero"/><path fill="#ffffff" d="M 15.316406 30.773438 C 15.617188 30.761719 15.675781 31.089844 15.433594 31.183594 C 15.164062 31.292969 15.058594 30.859375 15.316406 30.773438 " fill-opacity="1" fill-rule="nonzero"/><path fill="#ffffff" d="M 18.800781 29.433594 C 18.59375 29.492188 18.394531 29.273438 18.546875 29.09375 C 18.792969 28.894531 19.105469 29.269531 18.800781 29.433594 " fill-opacity="1" fill-rule="nonzero"/><path fill="#ffffff" d="M 17.171875 31.988281 C 16.945312 32.160156 16.699219 31.839844 16.921875 31.660156 C 17.125 31.503906 17.382812 31.828125 17.171875 31.988281 " fill-opacity="1" fill-rule="nonzero"/><path fill="#ffffff" d="M 19.289062 25.722656 C 19.480469 25.609375 19.699219 25.609375 19.65625 25.917969 C 19.589844 26.1875 19.152344 26.078125 19.289062 25.722656 " fill-opacity="1" fill-rule="nonzero"/><path fill="#ffffff" d="M 11.828125 34.925781 C 12.035156 34.804688 12.273438 34.941406 12.160156 35.175781 C 12 35.429688 11.640625 35.199219 11.828125 34.925781 " fill-opacity="1" fill-rule="nonzero"/><path fill="#ffffff" d="M 22.417969 26.578125 C 22.15625 26.808594 21.855469 26.414062 22.144531 26.257812 C 22.351562 26.1875 22.542969 26.367188 22.417969 26.578125 " fill-opacity="1" fill-rule="nonzero"/><path fill="#ffffff" d="M 23.414062 26.605469 C 23.632812 26.480469 23.84375 26.703125 23.722656 26.90625 C 23.515625 27.117188 23.179688 26.84375 23.414062 26.605469 " fill-opacity="1" fill-rule="nonzero"/><path fill="#ffffff" d="M 18.527344 35.671875 C 18.316406 35.769531 18.148438 35.464844 18.316406 35.324219 C 18.527344 35.09375 18.847656 35.578125 18.527344 35.671875 " fill-opacity="1" fill-rule="nonzero"/></svg>