<svg xmlns="http://www.w3.org/2000/svg" xmlns:xlink="http://www.w3.org/1999/xlink" width="60" zoomAndPan="magnify" viewBox="0 0 45 44.999999" height="60" preserveAspectRatio="xMidYMid meet" version="1.0"><defs><clipPath id="7a61c20009"><path d="M 3.652344 2.765625 L 41.152344 2.765625 L 41.152344 42.515625 L 3.652344 42.515625 Z M 3.652344 2.765625 " clip-rule="nonzero"/></clipPath></defs><rect x="-4.5" width="54" fill="#ffffff" y="-4.5" height="53.999999" fill-opacity="1"/><rect x="-4.5" width="54" fill="#ed1173" y="-4.5" height="53.999999" fill-opacity="1"/><g clip-path="url(#7a61c20009)"><path fill="#ffffff" d="M 8.570312 20.664062 C 8.53125 20.722656 8.492188 20.777344 8.453125 20.832031 C 8.382812 20.929688 8.308594 21.027344 8.207031 21.097656 C 8.050781 21.199219 7.90625 21.136719 7.863281 20.957031 C 7.84375 20.867188 7.835938 20.773438 7.839844 20.679688 C 7.859375 19.933594 8.0625 19.25 8.480469 18.632812 C 8.570312 18.503906 8.667969 18.378906 8.789062 18.273438 C 8.835938 18.230469 8.832031 18.199219 8.800781 18.152344 C 8.738281 18.054688 8.660156 18 8.539062 18 C 8.222656 18 8.101562 17.808594 8.136719 17.515625 C 8.15625 17.3125 8.214844 17.125 8.304688 16.945312 C 8.410156 16.730469 8.582031 16.59375 8.8125 16.523438 C 8.839844 16.519531 8.871094 16.519531 8.898438 16.488281 C 8.882812 16.453125 8.847656 16.433594 8.820312 16.40625 C 8.511719 16.101562 8.558594 15.597656 8.921875 15.347656 C 9.0625 15.253906 9.210938 15.261719 9.363281 15.324219 C 9.449219 15.363281 9.519531 15.335938 9.566406 15.253906 C 9.617188 15.160156 9.671875 15.070312 9.742188 14.992188 C 9.851562 14.867188 9.984375 14.777344 10.15625 14.757812 C 10.214844 14.753906 10.246094 14.726562 10.273438 14.675781 C 10.410156 14.429688 10.570312 14.210938 10.804688 14.050781 C 10.835938 14.027344 10.851562 14.007812 10.820312 13.972656 C 10.777344 13.921875 10.75 13.855469 10.71875 13.796875 C 10.675781 13.792969 10.660156 13.824219 10.636719 13.84375 C 10.546875 13.921875 10.449219 13.984375 10.335938 14.027344 C 10.097656 14.117188 9.890625 14.066406 9.722656 13.875 C 9.691406 13.839844 9.660156 13.796875 9.628906 13.761719 C 9.597656 13.726562 9.578125 13.6875 9.527344 13.675781 C 9.492188 13.695312 9.484375 13.738281 9.46875 13.765625 C 9.253906 14.167969 9.046875 14.578125 8.8125 14.96875 C 8.765625 15.050781 8.71875 15.132812 8.660156 15.207031 C 8.582031 15.304688 8.546875 15.414062 8.519531 15.535156 C 8.441406 15.914062 8.363281 16.289062 8.277344 16.664062 C 8.1875 17.074219 8.03125 17.460938 7.820312 17.824219 C 7.644531 18.132812 7.441406 18.425781 7.214844 18.703125 C 7.15625 18.773438 7.097656 18.847656 7.015625 18.898438 C 6.898438 18.972656 6.785156 18.933594 6.730469 18.804688 C 6.710938 18.75 6.703125 18.695312 6.699219 18.636719 C 6.6875 18.503906 6.6875 18.371094 6.699219 18.238281 C 6.71875 17.925781 6.761719 17.617188 6.828125 17.3125 C 6.933594 16.796875 7.167969 16.347656 7.515625 15.953125 C 7.652344 15.796875 7.796875 15.648438 7.945312 15.503906 C 8.226562 15.234375 8.4375 14.914062 8.625 14.578125 C 8.632812 14.570312 8.632812 14.558594 8.640625 14.535156 C 8.589844 14.550781 8.558594 14.585938 8.527344 14.609375 C 8.101562 14.929688 7.632812 15.148438 7.109375 15.238281 C 6.914062 15.273438 6.71875 15.292969 6.519531 15.257812 C 6.488281 15.25 6.453125 15.246094 6.425781 15.234375 C 6.28125 15.179688 6.238281 15.066406 6.308594 14.933594 C 6.328125 14.898438 6.351562 14.863281 6.378906 14.832031 C 6.777344 14.375 7.238281 14 7.816406 13.785156 C 8.144531 13.660156 8.488281 13.605469 8.839844 13.671875 C 8.90625 13.683594 8.972656 13.699219 9.039062 13.722656 C 9.128906 13.757812 9.199219 13.722656 9.253906 13.628906 C 9.160156 13.621094 9.074219 13.613281 8.988281 13.601562 C 8.882812 13.589844 8.785156 13.558594 8.695312 13.5 C 8.542969 13.402344 8.476562 13.25 8.507812 13.070312 C 8.507812 13.0625 8.511719 13.046875 8.519531 13.035156 C 8.644531 12.671875 8.757812 12.304688 8.972656 11.980469 C 8.976562 11.96875 8.980469 11.957031 8.988281 11.941406 C 8.953125 11.929688 8.925781 11.949219 8.898438 11.957031 C 8.792969 11.996094 8.691406 12.019531 8.578125 12.019531 C 8.28125 12.019531 8.082031 11.851562 8.042969 11.550781 C 8.011719 11.347656 8.046875 11.15625 8.144531 10.976562 C 8.195312 10.878906 8.242188 10.78125 8.253906 10.667969 C 8.261719 10.589844 8.253906 10.585938 8.179688 10.589844 C 7.664062 10.636719 7.203125 10.492188 6.761719 10.246094 C 6.714844 10.222656 6.675781 10.1875 6.636719 10.148438 C 6.511719 10.027344 6.488281 9.875 6.558594 9.714844 C 6.589844 9.652344 6.628906 9.597656 6.675781 9.542969 C 7.074219 9.101562 7.859375 9.035156 8.324219 9.414062 C 8.367188 9.445312 8.402344 9.484375 8.4375 9.523438 C 8.464844 9.550781 8.492188 9.554688 8.523438 9.527344 C 8.589844 9.472656 8.667969 9.441406 8.742188 9.414062 C 8.746094 9.386719 8.738281 9.375 8.722656 9.363281 C 8.488281 9.1875 8.3125 8.953125 8.160156 8.703125 C 7.894531 8.261719 7.710938 7.789062 7.558594 7.300781 C 7.539062 7.242188 7.527344 7.183594 7.53125 7.121094 C 7.53125 6.976562 7.613281 6.875 7.757812 6.847656 C 7.839844 6.832031 7.925781 6.835938 8.007812 6.859375 C 8.175781 6.90625 8.3125 7.003906 8.4375 7.128906 C 8.699219 7.386719 8.867188 7.699219 8.988281 8.046875 C 9.113281 8.398438 9.160156 8.757812 9.144531 9.132812 C 9.144531 9.167969 9.144531 9.203125 9.144531 9.242188 C 9.144531 9.351562 9.203125 9.414062 9.324219 9.433594 C 9.3125 9.355469 9.304688 9.273438 9.296875 9.195312 C 9.273438 9.011719 9.296875 8.828125 9.339844 8.652344 C 9.394531 8.429688 9.574219 8.300781 9.808594 8.308594 C 9.847656 8.308594 9.886719 8.328125 9.925781 8.308594 C 9.941406 8.289062 9.9375 8.269531 9.933594 8.25 C 9.910156 7.691406 10.035156 7.164062 10.28125 6.664062 C 10.382812 6.453125 10.527344 6.269531 10.703125 6.105469 C 10.867188 5.953125 11.035156 5.984375 11.136719 6.183594 C 11.207031 6.320312 11.238281 6.46875 11.246094 6.617188 C 11.285156 7.121094 11.164062 7.589844 10.882812 8.011719 C 10.777344 8.167969 10.644531 8.296875 10.484375 8.398438 C 10.464844 8.414062 10.429688 8.417969 10.421875 8.457031 C 10.511719 8.507812 10.601562 8.515625 10.691406 8.457031 C 10.875 8.335938 11.078125 8.328125 11.289062 8.320312 C 11.363281 8.320312 11.429688 8.347656 11.492188 8.390625 C 11.546875 8.429688 11.597656 8.421875 11.640625 8.367188 C 11.84375 8.117188 12.0625 7.886719 12.296875 7.667969 C 13.300781 6.710938 14.453125 5.988281 15.730469 5.460938 C 16.875 4.988281 18.0625 4.679688 19.289062 4.53125 C 19.65625 4.488281 20.023438 4.453125 20.390625 4.5 C 20.453125 4.507812 20.5 4.472656 20.554688 4.453125 C 20.589844 4.441406 20.632812 4.441406 20.671875 4.410156 C 20.664062 4.371094 20.628906 4.347656 20.605469 4.316406 C 20.398438 4.035156 20.324219 3.722656 20.40625 3.378906 C 20.417969 3.328125 20.4375 3.277344 20.457031 3.230469 C 20.613281 2.890625 20.953125 2.777344 21.277344 2.964844 C 21.546875 3.121094 21.71875 3.363281 21.820312 3.65625 C 21.839844 3.710938 21.855469 3.773438 21.867188 3.832031 C 21.871094 3.867188 21.886719 3.890625 21.925781 3.898438 C 22.34375 3.992188 22.59375 4.253906 22.691406 4.667969 C 22.691406 4.679688 22.703125 4.6875 22.710938 4.703125 C 22.738281 4.648438 22.738281 4.589844 22.757812 4.535156 C 22.929688 3.988281 23.238281 3.53125 23.671875 3.15625 C 23.761719 3.078125 23.867188 3.015625 23.984375 2.972656 C 24.21875 2.894531 24.402344 2.984375 24.480469 3.21875 C 24.5 3.273438 24.507812 3.328125 24.523438 3.382812 C 24.546875 3.464844 24.566406 3.550781 24.59375 3.628906 C 24.648438 3.789062 24.664062 3.796875 24.828125 3.789062 C 24.9375 3.78125 25.046875 3.773438 25.15625 3.804688 C 25.375 3.859375 25.511719 4.011719 25.542969 4.238281 C 25.5625 4.371094 25.539062 4.5 25.496094 4.632812 C 25.480469 4.675781 25.488281 4.699219 25.542969 4.699219 C 26.113281 4.6875 26.660156 4.824219 27.199219 4.992188 C 28.074219 5.261719 28.894531 5.652344 29.703125 6.074219 C 29.894531 6.175781 30.085938 6.28125 30.273438 6.394531 C 30.832031 6.722656 31.386719 7.058594 31.832031 7.554688 C 31.855469 7.523438 31.839844 7.496094 31.835938 7.472656 C 31.804688 7.332031 31.78125 7.191406 31.773438 7.050781 C 31.773438 7.011719 31.769531 6.972656 31.773438 6.933594 C 31.792969 6.753906 31.914062 6.679688 32.082031 6.734375 C 32.164062 6.761719 32.238281 6.808594 32.308594 6.855469 C 32.507812 6.996094 32.675781 7.171875 32.824219 7.363281 C 33.03125 7.625 33.199219 7.910156 33.355469 8.207031 C 33.375 8.246094 33.386719 8.289062 33.433594 8.328125 C 33.414062 8.164062 33.390625 8.015625 33.378906 7.863281 C 33.351562 7.609375 33.34375 7.355469 33.390625 7.101562 C 33.421875 6.921875 33.484375 6.761719 33.59375 6.613281 C 33.636719 6.554688 33.6875 6.5 33.746094 6.457031 C 33.90625 6.339844 34.066406 6.347656 34.203125 6.488281 C 34.277344 6.5625 34.328125 6.648438 34.375 6.738281 C 34.558594 7.089844 34.640625 7.460938 34.621094 7.851562 C 34.601562 8.238281 34.503906 8.601562 34.34375 8.953125 C 34.289062 9.0625 34.226562 9.164062 34.140625 9.273438 C 34.382812 9.339844 34.523438 9.515625 34.640625 9.742188 C 34.667969 9.65625 34.667969 9.59375 34.671875 9.53125 C 34.679688 9.320312 34.699219 9.113281 34.75 8.90625 C 34.777344 8.808594 34.808594 8.710938 34.859375 8.625 C 34.953125 8.46875 35.089844 8.386719 35.273438 8.398438 C 35.300781 8.398438 35.332031 8.398438 35.355469 8.402344 C 35.527344 8.453125 35.671875 8.402344 35.808594 8.300781 C 35.871094 8.25 35.9375 8.214844 36.007812 8.183594 C 36.28125 8.0625 36.558594 8.140625 36.726562 8.386719 C 36.832031 8.535156 36.875 8.707031 36.886719 8.890625 C 36.894531 9.027344 36.886719 9.164062 36.851562 9.300781 C 36.839844 9.332031 36.835938 9.371094 36.828125 9.40625 C 36.875 9.417969 36.902344 9.398438 36.933594 9.386719 C 37.453125 9.207031 37.941406 9.285156 38.402344 9.566406 C 38.636719 9.710938 38.625 9.898438 38.375 10.023438 C 37.875 10.265625 37.34375 10.363281 36.78125 10.277344 C 36.671875 10.261719 36.570312 10.230469 36.472656 10.175781 C 36.441406 10.152344 36.417969 10.148438 36.390625 10.1875 C 36.324219 10.28125 36.253906 10.375 36.183594 10.472656 C 36.230469 10.496094 36.265625 10.472656 36.296875 10.460938 C 36.484375 10.417969 36.667969 10.429688 36.847656 10.496094 C 37.09375 10.589844 37.300781 10.742188 37.472656 10.941406 C 37.519531 11 37.558594 11.0625 37.59375 11.125 C 37.722656 11.386719 37.683594 11.628906 37.476562 11.835938 C 37.433594 11.878906 37.386719 11.921875 37.339844 11.953125 C 37.25 12.015625 37.210938 12.097656 37.203125 12.203125 C 37.199219 12.261719 37.191406 12.320312 37.179688 12.382812 C 37.175781 12.417969 37.171875 12.457031 37.160156 12.488281 C 37.101562 12.675781 36.957031 12.765625 36.765625 12.722656 C 36.636719 12.695312 36.523438 12.628906 36.414062 12.5625 C 36.292969 12.484375 36.179688 12.390625 36.0625 12.289062 C 36.050781 12.328125 36.066406 12.351562 36.078125 12.375 C 36.265625 12.773438 36.289062 13.183594 36.125 13.597656 C 36.101562 13.65625 36.113281 13.683594 36.164062 13.710938 C 36.390625 13.839844 36.570312 14.023438 36.714844 14.234375 C 37.007812 14.667969 37.203125 15.148438 37.351562 15.644531 C 37.386719 15.753906 37.410156 15.867188 37.433594 15.972656 C 37.445312 16.023438 37.453125 16.070312 37.457031 16.117188 C 37.46875 16.304688 37.355469 16.390625 37.175781 16.320312 C 36.933594 16.222656 36.742188 16.058594 36.570312 15.863281 C 36.523438 15.804688 36.472656 15.746094 36.417969 15.675781 C 36.398438 15.714844 36.417969 15.738281 36.417969 15.761719 C 36.507812 16.195312 36.597656 16.632812 36.691406 17.066406 C 36.742188 17.308594 36.816406 17.546875 36.898438 17.777344 C 36.917969 17.820312 36.933594 17.855469 36.988281 17.859375 C 37.519531 17.914062 37.921875 18.203125 38.269531 18.585938 C 38.597656 18.941406 38.789062 19.375 38.890625 19.84375 C 38.90625 19.902344 38.914062 19.964844 38.90625 20.027344 C 38.894531 20.140625 38.820312 20.199219 38.707031 20.183594 C 38.664062 20.179688 38.621094 20.164062 38.582031 20.148438 C 38.289062 20.035156 38.007812 19.898438 37.765625 19.699219 C 37.753906 19.6875 37.738281 19.679688 37.726562 19.671875 C 37.710938 19.710938 37.734375 19.734375 37.75 19.761719 C 37.785156 19.84375 37.824219 19.925781 37.859375 20.003906 C 37.894531 20.09375 37.925781 20.167969 38.039062 20.167969 C 38.0625 20.167969 38.085938 20.183594 38.105469 20.195312 C 38.359375 20.324219 38.605469 20.464844 38.839844 20.625 C 39.476562 21.054688 39.925781 21.636719 40.222656 22.339844 C 40.25 22.402344 40.273438 22.46875 40.289062 22.535156 C 40.3125 22.667969 40.21875 22.753906 40.085938 22.714844 C 40.066406 22.710938 40.046875 22.703125 40.027344 22.691406 C 39.824219 22.582031 39.609375 22.503906 39.394531 22.417969 C 39.179688 22.332031 38.992188 22.210938 38.824219 22.054688 C 38.800781 22.03125 38.78125 21.992188 38.738281 21.992188 C 38.722656 22.027344 38.738281 22.058594 38.742188 22.089844 C 38.835938 22.5 38.871094 22.914062 38.863281 23.332031 C 38.855469 23.523438 38.835938 23.710938 38.78125 23.894531 C 38.75 23.996094 38.707031 24.089844 38.640625 24.175781 C 38.570312 24.273438 38.476562 24.34375 38.363281 24.378906 C 38.207031 24.425781 38.09375 24.378906 38.019531 24.230469 C 37.976562 24.140625 37.953125 24.042969 37.933594 23.941406 C 37.855469 23.550781 37.851562 23.152344 37.871094 22.757812 C 37.882812 22.503906 37.90625 22.253906 37.921875 22.003906 C 37.941406 21.664062 37.890625 21.328125 37.824219 20.992188 C 37.703125 20.390625 37.457031 19.835938 37.191406 19.289062 C 37.09375 19.089844 36.996094 18.890625 36.894531 18.691406 C 36.613281 18.125 36.402344 17.535156 36.277344 16.917969 C 36.273438 16.878906 36.269531 16.839844 36.242188 16.796875 C 36.222656 16.828125 36.230469 16.859375 36.230469 16.890625 C 36.234375 17.277344 36.257812 17.660156 36.3125 18.039062 C 36.355469 18.375 36.480469 18.691406 36.601562 19 C 36.664062 19.15625 36.734375 19.304688 36.820312 19.449219 C 36.96875 19.707031 37.101562 19.976562 37.257812 20.234375 C 37.550781 20.730469 37.679688 21.273438 37.664062 21.847656 C 37.65625 22.101562 37.601562 22.34375 37.484375 22.574219 C 37.433594 22.679688 37.363281 22.777344 37.269531 22.847656 C 37.046875 23.007812 36.8125 22.929688 36.738281 22.667969 C 36.6875 22.492188 36.671875 22.308594 36.667969 22.128906 C 36.652344 21.765625 36.691406 21.410156 36.75 21.050781 C 36.78125 20.835938 36.816406 20.621094 36.816406 20.398438 C 36.816406 20.179688 36.78125 20.0625 36.707031 19.90625 C 36.640625 19.761719 36.566406 19.617188 36.496094 19.476562 C 36.484375 19.476562 36.476562 19.476562 36.46875 19.480469 C 36.464844 19.535156 36.457031 19.589844 36.457031 19.644531 C 36.429688 20.195312 36.402344 20.75 36.375 21.304688 C 36.355469 21.808594 36.386719 22.308594 36.410156 22.808594 C 36.4375 23.496094 36.46875 24.175781 36.496094 24.863281 C 36.523438 25.558594 36.558594 26.253906 36.609375 26.949219 C 36.65625 27.625 36.710938 28.304688 36.78125 28.980469 C 36.847656 29.605469 36.917969 30.230469 36.984375 30.855469 C 37.050781 31.472656 37.105469 32.089844 37.171875 32.703125 C 37.265625 33.582031 37.332031 34.460938 37.441406 35.335938 C 37.570312 36.359375 37.792969 37.355469 38.183594 38.308594 C 38.261719 38.5 38.351562 38.6875 38.453125 38.867188 C 38.558594 39.066406 38.667969 39.265625 38.769531 39.46875 C 38.851562 39.628906 38.960938 39.746094 39.136719 39.816406 C 39.457031 39.941406 39.765625 40.09375 40.082031 40.226562 C 40.421875 40.378906 40.722656 40.585938 40.984375 40.851562 C 41.050781 40.917969 41.113281 40.988281 41.164062 41.066406 C 41.339844 41.332031 41.289062 41.59375 40.996094 41.777344 C 40.878906 41.847656 40.75 41.878906 40.617188 41.90625 C 40.289062 41.972656 39.953125 41.980469 39.613281 41.988281 C 38.996094 42.003906 38.375 41.984375 37.753906 41.976562 C 37.359375 41.972656 36.960938 41.992188 36.566406 41.984375 C 36.136719 41.976562 35.726562 41.902344 35.332031 41.738281 C 35.1875 41.675781 35.039062 41.625 34.894531 41.558594 C 34.808594 41.519531 34.722656 41.507812 34.625 41.511719 C 34.261719 41.546875 33.902344 41.605469 33.542969 41.671875 C 33.238281 41.726562 32.933594 41.785156 32.617188 41.78125 C 31.582031 41.78125 30.738281 41.035156 30.527344 40.058594 C 30.511719 39.980469 30.503906 39.898438 30.507812 39.820312 C 30.519531 39.539062 30.675781 39.359375 30.953125 39.308594 C 31.230469 39.261719 31.085938 39.285156 31.105469 39.152344 C 31.195312 38.492188 31.261719 37.832031 31.269531 37.167969 C 31.28125 36.546875 31.285156 35.929688 31.300781 35.308594 C 31.359375 32.980469 31.351562 30.652344 31.378906 28.320312 C 31.386719 27.261719 31.40625 26.199219 31.421875 25.140625 C 31.445312 23.777344 31.546875 22.421875 31.703125 21.070312 C 31.84375 19.863281 31.976562 18.65625 32.042969 17.441406 C 32.074219 16.855469 32.097656 16.269531 32.121094 15.683594 C 32.140625 15.234375 32.152344 14.785156 32.183594 14.335938 C 32.183594 14.296875 32.207031 14.25 32.136719 14.246094 C 32.066406 14.242188 32.050781 14.253906 32.0625 14.324219 C 32.15625 14.835938 32.078125 15.324219 31.902344 15.804688 C 31.882812 15.855469 31.863281 15.910156 31.832031 15.957031 C 31.753906 16.074219 31.632812 16.070312 31.554688 15.957031 C 31.476562 15.84375 31.496094 15.832031 31.46875 15.769531 C 31.453125 15.734375 31.449219 15.691406 31.417969 15.652344 C 31.386719 15.667969 31.382812 15.703125 31.371094 15.730469 C 31.261719 15.984375 31.136719 16.226562 30.988281 16.460938 C 30.929688 16.550781 30.863281 16.640625 30.789062 16.71875 C 30.75 16.761719 30.707031 16.800781 30.660156 16.828125 C 30.519531 16.902344 30.382812 16.859375 30.3125 16.714844 C 30.269531 16.617188 30.257812 16.515625 30.25 16.40625 C 30.222656 15.941406 30.332031 15.5 30.507812 15.070312 C 30.652344 14.722656 30.832031 14.390625 31.046875 14.082031 C 31.082031 14.035156 31.097656 13.984375 31.105469 13.925781 C 31.125 13.804688 31.148438 13.6875 31.171875 13.558594 C 31.117188 13.578125 31.101562 13.621094 31.078125 13.65625 C 30.820312 14 30.539062 14.324219 30.222656 14.617188 C 30.097656 14.734375 29.960938 14.84375 29.8125 14.9375 C 29.734375 14.988281 29.652344 15.03125 29.5625 15.058594 C 29.332031 15.125 29.167969 15.007812 29.152344 14.765625 C 29.144531 14.648438 29.171875 14.53125 29.207031 14.417969 C 29.324219 14.027344 29.539062 13.695312 29.824219 13.402344 C 30.105469 13.117188 30.421875 12.882812 30.78125 12.707031 C 31.042969 12.578125 31.253906 12.378906 31.5 12.199219 C 31.449219 12.179688 31.421875 12.195312 31.394531 12.199219 C 31.171875 12.25 30.949219 12.285156 30.71875 12.277344 C 30.597656 12.269531 30.476562 12.261719 30.367188 12.195312 C 30.335938 12.175781 30.300781 12.175781 30.265625 12.1875 C 29.570312 12.359375 28.886719 12.28125 28.210938 12.09375 C 27.476562 11.886719 26.804688 11.542969 26.183594 11.097656 C 25.257812 10.433594 24.492188 9.617188 23.914062 8.628906 C 23.777344 8.390625 23.65625 8.144531 23.578125 7.878906 C 23.570312 7.839844 23.558594 7.808594 23.527344 7.785156 C 23.351562 7.664062 23.207031 7.511719 23.082031 7.339844 C 23.078125 7.335938 23.070312 7.332031 23.054688 7.324219 C 23.027344 7.359375 23.027344 7.402344 23.015625 7.445312 C 22.9375 7.75 22.773438 7.996094 22.515625 8.179688 C 22.484375 8.203125 22.453125 8.222656 22.421875 8.242188 C 22.164062 8.390625 21.996094 8.378906 21.765625 8.199219 C 21.722656 8.210938 21.71875 8.253906 21.710938 8.285156 C 21.539062 8.738281 21.289062 9.144531 20.976562 9.507812 C 20.515625 10.039062 20.035156 10.546875 19.484375 10.984375 C 18.664062 11.644531 17.726562 12.023438 16.6875 12.15625 C 15.726562 12.28125 14.78125 12.230469 13.84375 11.988281 C 13.605469 11.925781 13.371094 11.847656 13.144531 11.746094 C 13.121094 11.738281 13.101562 11.726562 13.070312 11.714844 C 13.070312 11.753906 13.089844 11.773438 13.101562 11.796875 C 13.324219 12.109375 13.316406 12.4375 13.085938 12.75 C 13.046875 12.800781 13.078125 12.824219 13.101562 12.851562 C 13.289062 13.0625 13.4375 13.300781 13.558594 13.554688 C 13.734375 13.933594 13.84375 14.335938 13.898438 14.753906 C 13.90625 14.8125 13.90625 14.875 13.902344 14.933594 C 13.890625 15.109375 13.757812 15.191406 13.59375 15.121094 C 13.523438 15.085938 13.460938 15.042969 13.398438 14.996094 C 13.144531 14.796875 12.945312 14.546875 12.789062 14.265625 C 12.769531 14.230469 12.757812 14.191406 12.714844 14.160156 C 12.695312 14.207031 12.707031 14.25 12.710938 14.292969 C 12.753906 14.835938 12.800781 15.382812 12.839844 15.925781 C 12.878906 16.496094 12.917969 17.066406 12.957031 17.636719 C 13.027344 18.761719 13.074219 19.890625 13.117188 21.019531 C 13.15625 21.957031 13.1875 22.890625 13.226562 23.824219 C 13.261719 24.707031 13.285156 25.589844 13.339844 26.472656 C 13.375 27.128906 13.449219 27.78125 13.527344 28.429688 C 13.695312 29.855469 13.8125 31.285156 13.816406 32.71875 C 13.816406 33.65625 13.824219 34.597656 13.859375 35.535156 C 13.890625 36.492188 14 37.441406 14.21875 38.375 C 14.332031 38.839844 14.5 39.28125 14.730469 39.699219 C 14.863281 39.9375 15 40.179688 15.117188 40.425781 C 15.183594 40.574219 15.246094 40.722656 15.273438 40.886719 C 15.324219 41.179688 15.230469 41.410156 14.988281 41.582031 C 14.832031 41.695312 14.652344 41.761719 14.472656 41.824219 C 13.988281 41.996094 13.484375 42.027344 12.976562 41.984375 C 12.414062 41.929688 11.859375 41.949219 11.300781 42.003906 C 10.914062 42.042969 10.527344 42.050781 10.140625 41.996094 C 9.761719 41.941406 9.398438 41.832031 9.027344 41.742188 C 8.945312 41.722656 8.871094 41.71875 8.789062 41.738281 C 8.417969 41.820312 8.039062 41.851562 7.65625 41.855469 C 6.957031 41.863281 6.269531 41.960938 5.589844 42.125 C 5.332031 42.183594 5.070312 42.222656 4.804688 42.1875 C 4.28125 42.117188 3.8125 41.691406 3.710938 41.167969 C 3.652344 40.871094 3.722656 40.597656 3.90625 40.355469 C 4.019531 40.207031 4.160156 40.082031 4.308594 39.972656 C 4.542969 39.800781 4.785156 39.648438 5.035156 39.503906 C 5.183594 39.417969 5.335938 39.328125 5.484375 39.238281 C 5.839844 39.027344 6.101562 38.734375 6.292969 38.371094 C 6.496094 37.984375 6.648438 37.582031 6.789062 37.171875 C 7.273438 35.738281 7.621094 34.269531 7.789062 32.761719 C 7.90625 31.71875 7.984375 30.671875 8.027344 29.625 C 8.058594 28.863281 8.109375 28.097656 8.160156 27.332031 C 8.210938 26.558594 8.25 25.78125 8.277344 25.003906 C 8.308594 24.007812 8.351562 23.015625 8.441406 22.019531 C 8.484375 21.585938 8.523438 21.152344 8.605469 20.71875 C 8.609375 20.703125 8.609375 20.679688 8.609375 20.660156 C 8.605469 20.660156 8.597656 20.65625 8.589844 20.652344 L 8.566406 20.664062 Z M 10.558594 16.539062 C 10.679688 16.585938 10.785156 16.628906 10.859375 16.71875 C 10.964844 16.855469 11.019531 17.011719 11.027344 17.179688 C 11.03125 17.347656 10.976562 17.492188 10.835938 17.589844 C 10.789062 17.621094 10.777344 17.660156 10.777344 17.714844 C 10.738281 18.789062 10.699219 19.863281 10.660156 20.941406 C 10.625 22 10.570312 23.054688 10.496094 24.105469 C 10.414062 25.242188 10.308594 26.375 10.175781 27.507812 C 10.046875 28.601562 9.898438 29.691406 9.714844 30.777344 C 9.425781 32.492188 9.039062 34.183594 8.539062 35.851562 C 8.351562 36.476562 8.144531 37.101562 7.882812 37.703125 C 7.773438 37.957031 7.652344 38.207031 7.496094 38.433594 C 7.46875 38.476562 7.441406 38.523438 7.394531 38.550781 C 7.332031 38.59375 7.257812 38.550781 7.257812 38.476562 C 7.257812 38.402344 7.28125 38.402344 7.292969 38.363281 C 7.382812 38.125 7.480469 37.886719 7.566406 37.648438 C 7.875 36.765625 8.128906 35.863281 8.363281 34.957031 C 8.699219 33.660156 8.988281 32.351562 9.21875 31.03125 C 9.414062 29.90625 9.566406 28.777344 9.691406 27.640625 C 9.847656 26.257812 9.972656 24.875 10.066406 23.492188 C 10.140625 22.375 10.199219 21.257812 10.265625 20.144531 C 10.300781 19.503906 10.363281 18.867188 10.453125 18.234375 C 10.476562 18.078125 10.5 17.921875 10.523438 17.765625 C 10.527344 17.730469 10.546875 17.6875 10.492188 17.683594 C 10.398438 17.667969 10.3125 17.636719 10.214844 17.601562 C 10.230469 17.734375 10.246094 17.847656 10.242188 17.964844 C 10.21875 18.46875 9.746094 18.875 9.226562 18.601562 C 9.210938 18.59375 9.195312 18.578125 9.175781 18.601562 C 9.171875 18.625 9.183594 18.640625 9.195312 18.65625 C 9.449219 18.996094 9.585938 19.382812 9.6875 19.785156 C 9.773438 20.136719 9.8125 20.496094 9.777344 20.859375 C 9.765625 20.96875 9.75 21.074219 9.707031 21.175781 C 9.625 21.351562 9.46875 21.398438 9.308594 21.296875 C 9.242188 21.257812 9.191406 21.210938 9.144531 21.152344 C 9.054688 21.046875 8.980469 20.929688 8.921875 20.804688 C 8.90625 20.777344 8.902344 20.746094 8.863281 20.726562 C 8.863281 20.75 8.859375 20.765625 8.859375 20.78125 C 8.839844 21.832031 8.820312 22.886719 8.804688 23.941406 C 8.789062 24.726562 8.785156 25.515625 8.75 26.304688 C 8.707031 27.316406 8.65625 28.328125 8.609375 29.339844 C 8.578125 30.074219 8.554688 30.804688 8.492188 31.535156 C 8.421875 32.378906 8.328125 33.21875 8.1875 34.054688 C 8 35.191406 7.691406 36.296875 7.335938 37.390625 C 7.195312 37.8125 7.042969 38.222656 6.847656 38.621094 C 6.59375 39.128906 6.238281 39.535156 5.75 39.824219 C 5.601562 39.914062 5.449219 40.003906 5.300781 40.09375 C 5.09375 40.214844 4.890625 40.339844 4.703125 40.484375 C 4.617188 40.546875 4.535156 40.613281 4.464844 40.691406 C 4.296875 40.871094 4.277344 41.042969 4.40625 41.253906 C 4.535156 41.46875 4.726562 41.589844 4.984375 41.59375 C 5.203125 41.59375 5.410156 41.546875 5.621094 41.5 C 6.261719 41.351562 6.90625 41.253906 7.566406 41.234375 C 7.890625 41.226562 8.214844 41.203125 8.535156 41.144531 C 9.015625 41.0625 9.445312 40.867188 9.804688 40.53125 C 9.957031 40.386719 10.089844 40.234375 10.214844 40.066406 C 10.460938 39.726562 10.648438 39.355469 10.792969 38.960938 C 11.027344 38.339844 11.242188 37.714844 11.453125 37.082031 C 11.742188 36.214844 11.910156 35.320312 11.972656 34.40625 C 12.027344 33.601562 12.019531 32.796875 12 31.992188 C 11.980469 31.003906 12 30.015625 12.050781 29.027344 C 12.054688 28.933594 12.0625 28.839844 12.09375 28.753906 C 12.105469 28.722656 12.117188 28.691406 12.132812 28.664062 C 12.15625 28.628906 12.1875 28.628906 12.214844 28.664062 C 12.25 28.714844 12.269531 28.773438 12.28125 28.832031 C 12.3125 28.976562 12.320312 29.121094 12.328125 29.265625 C 12.382812 29.992188 12.425781 30.71875 12.460938 31.449219 C 12.507812 32.390625 12.539062 33.332031 12.507812 34.277344 C 12.472656 35.289062 12.328125 36.277344 12.011719 37.238281 C 11.777344 37.945312 11.523438 38.644531 11.242188 39.335938 C 11.117188 39.648438 10.96875 39.949219 10.789062 40.238281 C 10.523438 40.664062 10.207031 41.042969 9.785156 41.328125 C 9.769531 41.339844 9.75 41.347656 9.75 41.386719 C 9.804688 41.394531 9.863281 41.40625 9.921875 41.410156 C 10.242188 41.457031 10.5625 41.429688 10.878906 41.398438 C 11.636719 41.328125 12.398438 41.285156 13.160156 41.355469 C 13.238281 41.363281 13.320312 41.363281 13.402344 41.359375 C 13.75 41.351562 14.085938 41.277344 14.402344 41.140625 C 14.609375 41.050781 14.617188 41.035156 14.523438 40.824219 C 14.425781 40.609375 14.304688 40.40625 14.1875 40.207031 C 13.8125 39.566406 13.566406 38.882812 13.417969 38.15625 C 13.238281 37.257812 13.15625 36.351562 13.148438 35.4375 C 13.140625 34.441406 13.132812 33.441406 13.15625 32.441406 C 13.183594 31.046875 13.074219 29.664062 12.902344 28.285156 C 12.816406 27.617188 12.753906 26.949219 12.738281 26.273438 C 12.710938 25.160156 12.6875 24.046875 12.644531 22.933594 C 12.59375 21.632812 12.550781 20.328125 12.503906 19.027344 C 12.476562 18.292969 12.441406 17.5625 12.417969 16.828125 C 12.382812 15.898438 12.34375 14.96875 12.351562 14.035156 C 12.351562 13.902344 12.359375 13.769531 12.363281 13.632812 C 12.363281 13.585938 12.351562 13.558594 12.292969 13.578125 C 12.191406 13.613281 12.085938 13.609375 11.984375 13.578125 C 11.925781 13.558594 11.902344 13.574219 11.890625 13.632812 C 11.863281 13.742188 11.816406 13.851562 11.738281 13.933594 C 11.683594 13.996094 11.6875 14.042969 11.722656 14.113281 C 11.839844 14.347656 11.957031 14.578125 12.050781 14.820312 C 12.070312 14.867188 12.078125 14.914062 12.089844 14.957031 C 12.097656 14.984375 12.097656 15.015625 12.070312 15.035156 C 12.035156 15.058594 12.007812 15.042969 11.980469 15.023438 C 11.972656 15.015625 11.964844 15.011719 11.960938 15.007812 C 11.738281 14.789062 11.542969 14.550781 11.476562 14.238281 C 11.472656 14.21875 11.476562 14.183594 11.4375 14.191406 C 11.425781 14.21875 11.429688 14.246094 11.429688 14.273438 C 11.421875 14.6875 11.464844 15.097656 11.539062 15.503906 C 11.554688 15.578125 11.5625 15.648438 11.574219 15.71875 C 11.578125 15.742188 11.574219 15.761719 11.550781 15.773438 C 11.53125 15.78125 11.511719 15.773438 11.496094 15.757812 C 11.46875 15.730469 11.445312 15.699219 11.421875 15.664062 C 11.269531 15.425781 11.167969 15.167969 11.125 14.886719 C 11.121094 14.859375 11.125 14.824219 11.09375 14.792969 C 11.027344 14.945312 10.964844 15.082031 10.917969 15.226562 C 10.890625 15.308594 10.890625 15.378906 10.914062 15.464844 C 11.023438 15.851562 10.9375 16.183594 10.636719 16.457031 C 10.617188 16.476562 10.597656 16.496094 10.558594 16.53125 L 10.558594 16.542969 Z M 40.699219 41.390625 C 40.6875 41.351562 40.660156 41.34375 40.644531 41.328125 C 40.109375 40.976562 39.570312 40.632812 38.996094 40.351562 C 38.71875 40.214844 38.453125 40.058594 38.203125 39.882812 C 37.601562 39.449219 37.132812 38.890625 36.742188 38.269531 C 36.347656 37.632812 36.101562 36.9375 35.902344 36.222656 C 35.777344 35.78125 35.699219 35.328125 35.617188 34.878906 C 35.457031 34.046875 35.289062 33.210938 35.160156 32.371094 C 35.035156 31.542969 34.921875 30.710938 34.78125 29.882812 C 34.664062 29.1875 34.566406 28.484375 34.503906 27.777344 C 34.441406 27.046875 34.398438 26.316406 34.355469 25.585938 C 34.304688 24.648438 34.269531 23.707031 34.246094 22.769531 C 34.226562 21.8125 34.273438 20.859375 34.351562 19.90625 C 34.375 19.601562 34.414062 19.292969 34.484375 18.996094 C 34.488281 18.96875 34.492188 18.9375 34.5 18.910156 C 34.507812 18.875 34.492188 18.855469 34.457031 18.851562 C 34.300781 18.832031 34.238281 18.726562 34.195312 18.589844 C 34.003906 17.996094 33.957031 17.394531 34.015625 16.777344 C 34.03125 16.613281 34.046875 16.449219 34.0625 16.289062 C 33.992188 16.394531 33.957031 16.515625 33.902344 16.625 C 33.839844 16.746094 33.800781 16.859375 33.835938 16.996094 C 33.847656 17.035156 33.839844 17.078125 33.839844 17.117188 C 33.820312 17.703125 33.789062 18.289062 33.753906 18.875 C 33.71875 19.429688 33.667969 19.984375 33.648438 20.535156 C 33.621094 21.28125 33.597656 22.027344 33.566406 22.769531 C 33.523438 23.75 33.484375 24.734375 33.476562 25.71875 C 33.472656 26.242188 33.464844 26.765625 33.457031 27.285156 C 33.445312 28.269531 33.394531 29.25 33.410156 30.234375 C 33.429688 31.679688 33.4375 33.117188 33.441406 34.558594 C 33.441406 35.0625 33.457031 35.5625 33.496094 36.066406 C 33.582031 37.269531 33.839844 38.445312 34.246094 39.582031 C 34.367188 39.921875 34.511719 40.25 34.691406 40.566406 C 34.800781 40.757812 34.949219 40.90625 35.15625 40.996094 C 35.332031 41.070312 35.507812 41.15625 35.6875 41.230469 C 35.878906 41.316406 36.078125 41.367188 36.285156 41.394531 C 36.617188 41.441406 36.949219 41.488281 37.28125 41.535156 C 37.480469 41.5625 37.671875 41.59375 37.875 41.582031 C 38.492188 41.546875 39.109375 41.535156 39.730469 41.507812 C 39.984375 41.496094 40.238281 41.484375 40.492188 41.445312 C 40.5625 41.433594 40.632812 41.421875 40.703125 41.390625 Z M 33.511719 17.3125 C 33.464844 17.332031 33.445312 17.367188 33.421875 17.398438 C 33.332031 17.492188 33.242188 17.578125 33.136719 17.644531 C 33.0625 17.695312 32.980469 17.730469 32.890625 17.742188 C 32.691406 17.769531 32.554688 17.636719 32.582031 17.441406 C 32.589844 17.394531 32.597656 17.347656 32.609375 17.296875 C 32.6875 16.957031 32.804688 16.632812 32.957031 16.316406 C 33.144531 15.917969 33.410156 15.582031 33.769531 15.320312 C 33.859375 15.253906 33.945312 15.175781 34.035156 15.109375 C 34.101562 15.066406 34.121094 15.015625 34.117188 14.9375 C 34.113281 14.601562 34.167969 14.277344 34.359375 13.988281 C 34.378906 13.957031 34.386719 13.933594 34.363281 13.902344 C 34.226562 13.714844 34.183594 13.5 34.167969 13.273438 C 34.167969 13.246094 34.175781 13.207031 34.136719 13.179688 C 34.097656 13.246094 34.0625 13.316406 34.015625 13.375 C 33.960938 13.445312 33.941406 13.527344 33.933594 13.613281 C 33.910156 13.824219 33.863281 14.027344 33.789062 14.226562 C 33.617188 14.699219 33.367188 15.125 33.046875 15.515625 C 32.972656 15.605469 32.894531 15.691406 32.820312 15.785156 C 32.800781 15.804688 32.777344 15.824219 32.746094 15.804688 C 32.714844 15.785156 32.722656 15.757812 32.734375 15.730469 C 32.777344 15.632812 32.835938 15.546875 32.894531 15.457031 C 33.082031 15.164062 33.246094 14.859375 33.363281 14.527344 C 33.4375 14.316406 33.488281 14.101562 33.546875 13.886719 C 33.554688 13.859375 33.570312 13.835938 33.546875 13.796875 C 33.417969 13.839844 33.285156 13.863281 33.152344 13.796875 C 33.023438 13.730469 32.96875 13.601562 32.898438 13.492188 C 32.867188 13.492188 32.863281 13.507812 32.851562 13.523438 C 32.734375 13.695312 32.632812 13.882812 32.492188 14.039062 C 32.460938 14.078125 32.46875 14.113281 32.472656 14.15625 C 32.535156 14.546875 32.550781 14.945312 32.558594 15.339844 C 32.582031 16.414062 32.542969 17.488281 32.457031 18.558594 C 32.382812 19.511719 32.265625 20.464844 32.167969 21.421875 C 32.070312 22.378906 32 23.339844 31.964844 24.304688 C 31.929688 25.253906 31.925781 26.207031 31.921875 27.160156 C 31.914062 29.664062 31.945312 32.171875 31.890625 34.675781 C 31.871094 35.578125 31.859375 36.480469 31.839844 37.382812 C 31.824219 38.03125 31.777344 38.679688 31.554688 39.296875 C 31.550781 39.308594 31.550781 39.324219 31.570312 39.335938 C 31.605469 39.355469 31.652344 39.351562 31.703125 39.355469 C 31.894531 39.367188 32.089844 39.335938 32.28125 39.292969 C 32.417969 39.265625 32.554688 39.234375 32.695312 39.203125 C 32.742188 39.191406 32.789062 39.191406 32.835938 39.207031 C 32.917969 39.238281 32.9375 39.296875 32.902344 39.371094 C 32.875 39.417969 32.835938 39.453125 32.789062 39.480469 C 32.621094 39.59375 32.445312 39.695312 32.261719 39.78125 C 32 39.902344 31.722656 39.957031 31.433594 39.925781 C 31.335938 39.914062 31.230469 39.910156 31.132812 39.902344 C 31.058594 39.898438 31.046875 39.910156 31.058594 39.984375 C 31.058594 40.011719 31.070312 40.03125 31.074219 40.054688 C 31.269531 40.671875 31.675781 41.058594 32.308594 41.203125 C 32.550781 41.257812 32.796875 41.242188 33.042969 41.214844 C 33.425781 41.171875 33.804688 41.113281 34.191406 41.121094 C 34.214844 41.121094 34.234375 41.121094 34.25 41.089844 C 34.140625 40.933594 34.042969 40.761719 33.957031 40.582031 C 33.730469 40.117188 33.570312 39.628906 33.425781 39.136719 C 33.171875 38.25 32.988281 37.351562 32.917969 36.429688 C 32.863281 35.707031 32.851562 34.980469 32.863281 34.257812 C 32.886719 33.132812 32.902344 32.007812 32.878906 30.882812 C 32.871094 30.417969 32.875 29.949219 32.890625 29.484375 C 32.929688 28.558594 32.972656 27.632812 32.996094 26.707031 C 33.027344 25.546875 33.070312 24.390625 33.167969 23.238281 C 33.253906 22.1875 33.292969 21.136719 33.359375 20.085938 C 33.414062 19.265625 33.457031 18.445312 33.507812 17.625 C 33.511719 17.523438 33.507812 17.421875 33.507812 17.316406 Z M 36.085938 20.382812 C 36.078125 20.382812 36.074219 20.382812 36.070312 20.378906 C 36.054688 20.421875 36.035156 20.460938 36.019531 20.5 C 35.976562 20.601562 35.933594 20.703125 35.859375 20.785156 C 35.734375 20.925781 35.558594 20.902344 35.472656 20.734375 C 35.433594 20.65625 35.410156 20.574219 35.394531 20.492188 C 35.195312 19.570312 35.214844 18.660156 35.5 17.757812 C 35.628906 17.34375 35.78125 16.9375 35.882812 16.515625 C 36.089844 15.675781 35.964844 14.878906 35.582031 14.113281 C 35.566406 14.082031 35.546875 14.0625 35.507812 14.058594 C 35.421875 14.054688 35.34375 14.023438 35.261719 14 C 35.191406 13.984375 35.121094 13.972656 35.046875 14 C 35.058594 14.023438 35.0625 14.039062 35.074219 14.054688 C 35.179688 14.195312 35.242188 14.359375 35.289062 14.527344 C 35.367188 14.824219 35.414062 15.128906 35.4375 15.433594 C 35.457031 15.757812 35.4375 16.082031 35.339844 16.394531 C 35.328125 16.429688 35.320312 16.464844 35.304688 16.5 C 35.242188 16.636719 35.117188 16.65625 35.019531 16.542969 C 34.996094 16.515625 34.976562 16.480469 34.953125 16.453125 C 34.824219 16.238281 34.667969 16.039062 34.5 15.851562 C 34.457031 15.800781 34.414062 15.753906 34.371094 15.699219 C 34.371094 15.75 34.386719 15.789062 34.410156 15.828125 C 34.613281 16.253906 34.785156 16.6875 34.914062 17.140625 C 34.996094 17.433594 35.058594 17.726562 35.046875 18.027344 C 35.042969 18.253906 35 18.46875 34.859375 18.65625 C 34.8125 18.71875 34.78125 18.789062 34.769531 18.863281 C 34.683594 19.34375 34.613281 19.824219 34.617188 20.3125 C 34.617188 20.964844 34.636719 21.617188 34.660156 22.265625 C 34.683594 22.933594 34.722656 23.601562 34.769531 24.269531 C 34.820312 25.027344 34.878906 25.789062 34.929688 26.546875 C 34.980469 27.289062 35.042969 28.03125 35.140625 28.769531 C 35.230469 29.5 35.34375 30.222656 35.449219 30.949219 C 35.554688 31.660156 35.65625 32.375 35.792969 33.082031 C 35.917969 33.738281 36.054688 34.390625 36.164062 35.050781 C 36.273438 35.710938 36.457031 36.34375 36.699219 36.964844 C 36.96875 37.648438 37.320312 38.273438 37.828125 38.804688 C 37.855469 38.835938 37.878906 38.871094 37.9375 38.898438 C 37.917969 38.851562 37.90625 38.828125 37.894531 38.800781 C 37.75 38.535156 37.628906 38.253906 37.53125 37.96875 C 37.226562 37.085938 37.039062 36.179688 36.925781 35.257812 C 36.820312 34.378906 36.734375 33.492188 36.664062 32.613281 C 36.554688 31.320312 36.410156 30.035156 36.304688 28.742188 C 36.246094 28.019531 36.1875 27.296875 36.148438 26.574219 C 36.113281 25.839844 36.101562 25.109375 36.101562 24.378906 C 36.101562 23.84375 36.09375 23.308594 36.078125 22.773438 C 36.058594 22.105469 36.054688 21.4375 36.085938 20.769531 C 36.09375 20.640625 36.085938 20.511719 36.085938 20.382812 Z M 21.390625 6.351562 C 21.289062 6.332031 21.179688 6.324219 21.078125 6.289062 C 21.011719 6.265625 20.953125 6.28125 20.910156 6.339844 C 20.738281 6.550781 20.570312 6.765625 20.402344 6.976562 C 19.742188 7.816406 18.964844 8.53125 18.074219 9.128906 C 17.300781 9.644531 16.480469 10.054688 15.574219 10.28125 C 15.285156 10.355469 14.988281 10.40625 14.6875 10.40625 C 14.386719 10.40625 14.527344 10.402344 14.445312 10.378906 C 14.414062 10.371094 14.382812 10.355469 14.382812 10.316406 C 14.382812 10.269531 14.425781 10.273438 14.457031 10.269531 C 14.820312 10.238281 15.164062 10.136719 15.503906 10.019531 C 16.574219 9.640625 17.527344 9.066406 18.402344 8.34375 C 18.914062 7.921875 19.371094 7.4375 19.796875 6.925781 C 20.054688 6.621094 20.320312 6.320312 20.648438 6.082031 C 20.699219 6.046875 20.703125 6.015625 20.667969 5.964844 C 20.617188 5.898438 20.621094 5.894531 20.539062 5.933594 C 20.21875 6.074219 19.925781 6.261719 19.644531 6.46875 C 19.175781 6.808594 18.714844 7.160156 18.25 7.5 C 17.605469 7.976562 16.945312 8.433594 16.230469 8.804688 C 15.59375 9.132812 14.925781 9.382812 14.214844 9.484375 C 13.996094 9.515625 13.777344 9.535156 13.558594 9.515625 C 13.484375 9.511719 13.410156 9.5 13.335938 9.472656 C 13.304688 9.460938 13.273438 9.441406 13.273438 9.40625 C 13.273438 9.371094 13.316406 9.363281 13.34375 9.359375 C 13.429688 9.34375 13.511719 9.332031 13.597656 9.316406 C 14.660156 9.121094 15.644531 8.722656 16.558594 8.148438 C 17.222656 7.734375 17.851562 7.269531 18.472656 6.796875 C 18.816406 6.539062 19.15625 6.277344 19.515625 6.042969 C 19.796875 5.859375 20.082031 5.695312 20.414062 5.621094 C 20.417969 5.621094 20.429688 5.613281 20.433594 5.613281 C 20.449219 5.609375 20.46875 5.605469 20.46875 5.582031 C 20.46875 5.558594 20.445312 5.550781 20.421875 5.550781 C 20.371094 5.554688 20.320312 5.5625 20.265625 5.570312 C 19.449219 5.707031 18.679688 5.976562 17.9375 6.347656 C 17.261719 6.691406 16.625 7.097656 15.988281 7.507812 C 15.386719 7.894531 14.804688 8.300781 14.1875 8.664062 C 13.832031 8.875 13.46875 9.066406 13.105469 9.261719 C 13.019531 9.308594 13.023438 9.304688 13.035156 9.398438 C 13.070312 9.609375 13.160156 9.773438 13.359375 9.867188 C 13.421875 9.894531 13.472656 9.941406 13.515625 9.996094 C 13.664062 10.160156 13.722656 10.351562 13.679688 10.570312 C 13.65625 10.6875 13.613281 10.800781 13.550781 10.90625 C 13.535156 10.933594 13.507812 10.953125 13.519531 10.996094 C 13.753906 11.050781 13.996094 11.074219 14.238281 11.089844 C 15.28125 11.15625 16.273438 10.953125 17.199219 10.476562 C 18.425781 9.847656 19.445312 8.964844 20.308594 7.898438 C 20.703125 7.410156 21.0625 6.894531 21.394531 6.347656 L 21.390625 6.347656 Z M 24.800781 7.085938 C 24.734375 7.238281 24.707031 7.375 24.664062 7.511719 C 24.652344 7.554688 24.679688 7.582031 24.703125 7.609375 C 24.886719 7.839844 25.066406 8.078125 25.253906 8.304688 C 25.84375 9.019531 26.550781 9.59375 27.371094 10.023438 C 28.171875 10.441406 29.03125 10.679688 29.929688 10.78125 C 30.484375 10.84375 31.042969 10.855469 31.601562 10.785156 C 31.785156 10.765625 31.964844 10.726562 32.148438 10.679688 C 32.074219 10.511719 32.046875 10.347656 32.074219 10.171875 C 32.105469 9.992188 32.21875 9.867188 32.339844 9.738281 C 32.324219 9.726562 32.316406 9.722656 32.308594 9.722656 C 31.871094 9.636719 31.546875 9.386719 31.308594 9.015625 C 31.277344 8.96875 31.242188 8.933594 31.195312 8.90625 C 31.015625 8.796875 30.847656 8.671875 30.679688 8.542969 C 30.367188 8.3125 30.058594 8.078125 29.734375 7.859375 C 28.78125 7.214844 27.769531 6.667969 26.734375 6.167969 C 26.160156 5.890625 25.570312 5.65625 24.949219 5.503906 C 24.882812 5.488281 24.828125 5.488281 24.769531 5.535156 C 24.683594 5.609375 24.585938 5.664062 24.484375 5.71875 C 24.460938 5.726562 24.425781 5.730469 24.433594 5.773438 C 24.589844 5.800781 24.746094 5.839844 24.890625 5.921875 C 24.917969 5.9375 24.953125 5.941406 24.984375 5.945312 C 25.210938 5.976562 25.421875 6.050781 25.628906 6.15625 C 25.835938 6.261719 26.03125 6.390625 26.222656 6.53125 C 26.59375 6.808594 26.964844 7.09375 27.335938 7.371094 C 27.757812 7.691406 28.199219 7.972656 28.671875 8.210938 C 29.308594 8.53125 29.96875 8.78125 30.636719 9.019531 C 30.835938 9.09375 31.039062 9.164062 31.246094 9.214844 C 31.277344 9.222656 31.316406 9.230469 31.316406 9.269531 C 31.316406 9.308594 31.28125 9.320312 31.246094 9.328125 C 31.183594 9.347656 31.121094 9.347656 31.054688 9.34375 C 30.871094 9.335938 30.6875 9.304688 30.503906 9.265625 C 29.296875 8.984375 28.1875 8.492188 27.183594 7.761719 C 26.839844 7.511719 26.503906 7.25 26.164062 6.996094 C 25.910156 6.808594 25.648438 6.621094 25.367188 6.46875 C 25.320312 6.441406 25.28125 6.410156 25.210938 6.40625 C 25.21875 6.582031 25.160156 6.734375 25.039062 6.859375 C 25.109375 6.9375 25.179688 7.007812 25.246094 7.085938 C 25.417969 7.285156 25.601562 7.472656 25.796875 7.652344 C 27.234375 8.953125 28.941406 9.679688 30.835938 9.980469 C 31.1875 10.039062 31.546875 10.0625 31.902344 10.066406 C 31.945312 10.066406 31.988281 10.054688 32.03125 10.097656 C 31.976562 10.140625 31.921875 10.164062 31.863281 10.179688 C 31.730469 10.222656 31.589844 10.242188 31.445312 10.246094 C 31.042969 10.265625 30.640625 10.234375 30.25 10.171875 C 29.085938 9.976562 28 9.570312 26.984375 8.96875 C 26.347656 8.589844 25.769531 8.136719 25.25 7.609375 C 25.09375 7.453125 24.945312 7.285156 24.800781 7.085938 Z M 11.671875 9 C 11.722656 9.011719 11.738281 8.988281 11.753906 8.976562 C 11.867188 8.894531 11.988281 8.828125 12.121094 8.785156 C 12.46875 8.667969 12.769531 8.800781 12.910156 9.054688 C 12.917969 9.0625 12.921875 9.066406 12.921875 9.074219 C 12.945312 9.117188 12.972656 9.109375 13.003906 9.085938 C 13.015625 9.078125 13.03125 9.066406 13.042969 9.058594 C 13.632812 8.648438 14.21875 8.226562 14.792969 7.796875 C 15.335938 7.390625 15.894531 7.007812 16.472656 6.65625 C 17.132812 6.257812 17.808594 5.882812 18.539062 5.621094 C 19.074219 5.425781 19.617188 5.273438 20.195312 5.28125 C 20.210938 5.28125 20.230469 5.28125 20.246094 5.253906 C 20.210938 5.183594 20.167969 5.113281 20.152344 5.03125 C 20.136719 4.945312 20.160156 4.863281 20.160156 4.78125 C 20.121094 4.773438 20.09375 4.78125 20.066406 4.789062 C 19.886719 4.816406 19.707031 4.851562 19.527344 4.878906 C 18.960938 4.960938 18.390625 5.050781 17.835938 5.207031 C 16.542969 5.566406 15.324219 6.101562 14.167969 6.785156 C 13.277344 7.3125 12.472656 7.949219 11.726562 8.65625 C 11.695312 8.6875 11.664062 8.714844 11.667969 8.769531 C 11.675781 8.847656 11.667969 8.925781 11.667969 9.003906 Z M 23.929688 8.019531 C 23.929688 8.0625 23.949219 8.078125 23.964844 8.101562 C 24.296875 8.597656 24.652344 9.078125 25.054688 9.527344 C 25.621094 10.152344 26.25 10.699219 26.984375 11.121094 C 27.617188 11.484375 28.289062 11.726562 29.015625 11.808594 C 29.421875 11.855469 29.824219 11.863281 30.230469 11.875 C 30.335938 11.875 30.410156 11.851562 30.492188 11.78125 C 30.945312 11.390625 31.464844 11.121094 32.046875 10.964844 C 32.128906 10.945312 32.210938 10.933594 32.300781 10.914062 C 32.269531 10.847656 32.230469 10.800781 32.183594 10.75 C 32.09375 10.839844 31.984375 10.878906 31.875 10.914062 C 31.746094 10.960938 31.609375 10.996094 31.476562 11.023438 C 30.777344 11.160156 30.082031 11.152344 29.382812 11.050781 C 28.003906 10.855469 26.785156 10.300781 25.726562 9.40625 C 25.265625 9.019531 24.855469 8.582031 24.519531 8.078125 C 24.492188 8.035156 24.472656 7.972656 24.433594 7.949219 C 24.382812 7.921875 24.339844 7.988281 24.292969 8.003906 C 24.210938 8.03125 24.128906 8.042969 24.042969 8.035156 C 24.007812 8.03125 23.972656 8.023438 23.929688 8.019531 Z M 20.9375 7.625 C 20.898438 7.648438 20.890625 7.679688 20.878906 7.699219 C 20.363281 8.636719 19.652344 9.398438 18.8125 10.042969 C 18.117188 10.582031 17.359375 11.011719 16.503906 11.253906 C 15.453125 11.550781 14.402344 11.597656 13.355469 11.214844 C 13.324219 11.203125 13.296875 11.195312 13.265625 11.21875 C 13.171875 11.289062 13.0625 11.328125 12.953125 11.371094 C 12.96875 11.402344 12.992188 11.40625 13.015625 11.414062 C 14.171875 11.769531 15.347656 11.902344 16.554688 11.757812 C 17.53125 11.640625 18.40625 11.289062 19.171875 10.667969 C 19.832031 10.128906 20.40625 9.511719 20.898438 8.820312 C 21.121094 8.511719 21.320312 8.195312 21.546875 7.894531 C 21.554688 7.886719 21.5625 7.875 21.570312 7.867188 C 21.578125 7.851562 21.59375 7.832031 21.582031 7.8125 C 21.570312 7.785156 21.542969 7.792969 21.519531 7.796875 C 21.457031 7.808594 21.390625 7.824219 21.328125 7.835938 C 21.179688 7.855469 21.054688 7.8125 20.96875 7.683594 C 20.957031 7.667969 20.949219 7.652344 20.933594 7.628906 L 20.9375 7.628906 Z M 32.265625 8.332031 C 32.179688 8.214844 32.113281 8.117188 32.046875 8.023438 C 32.035156 8.003906 32.019531 7.988281 32 7.992188 C 31.90625 7.996094 31.851562 7.933594 31.789062 7.882812 C 31.519531 7.671875 31.257812 7.460938 30.972656 7.269531 C 30.191406 6.738281 29.351562 6.3125 28.492188 5.917969 C 27.496094 5.464844 26.453125 5.164062 25.375 4.988281 C 25.34375 4.980469 25.3125 4.972656 25.289062 5.003906 C 25.222656 5.085938 25.160156 5.167969 25.09375 5.257812 C 25.121094 5.261719 25.136719 5.269531 25.152344 5.269531 C 25.605469 5.332031 26.03125 5.472656 26.453125 5.648438 C 27.390625 6.042969 28.285156 6.523438 29.15625 7.050781 C 29.847656 7.472656 30.511719 7.933594 31.101562 8.492188 C 31.113281 8.503906 31.128906 8.511719 31.152344 8.511719 C 31.203125 8.324219 31.355469 8.265625 31.527344 8.25 C 31.667969 8.234375 31.8125 8.242188 31.953125 8.269531 C 32.046875 8.289062 32.140625 8.308594 32.265625 8.332031 Z M 11.320312 10.980469 C 11.566406 11.011719 11.792969 11.046875 12.023438 11.066406 C 12.300781 11.089844 12.582031 11.078125 12.851562 11.003906 C 13.148438 10.921875 13.3125 10.714844 13.382812 10.429688 C 13.425781 10.277344 13.375 10.152344 13.242188 10.0625 C 13.175781 10.019531 13.109375 9.980469 13.042969 9.941406 C 12.882812 9.847656 12.777344 9.707031 12.726562 9.527344 C 12.707031 9.453125 12.691406 9.378906 12.667969 9.304688 C 12.609375 9.101562 12.460938 9.023438 12.257812 9.09375 C 12.210938 9.109375 12.167969 9.132812 12.128906 9.160156 C 12.042969 9.214844 11.964844 9.28125 11.894531 9.355469 C 11.71875 9.535156 11.539062 9.71875 11.359375 9.898438 C 11.246094 10.007812 11.148438 10.132812 11.054688 10.257812 C 11.023438 10.296875 11 10.335938 10.980469 10.386719 C 10.972656 10.410156 10.972656 10.433594 10.992188 10.449219 C 11.078125 10.503906 11.144531 10.582031 11.199219 10.65625 C 11.238281 10.640625 11.238281 10.613281 11.25 10.589844 C 11.394531 10.316406 11.625 10.1875 11.921875 10.167969 C 11.972656 10.164062 12.039062 10.152344 12.058594 10.214844 C 12.082031 10.28125 12.019531 10.304688 11.972656 10.328125 C 11.792969 10.429688 11.648438 10.566406 11.527344 10.734375 C 11.46875 10.816406 11.410156 10.898438 11.316406 10.976562 L 11.320312 10.976562 Z M 10.304688 11.625 C 10.28125 11.574219 10.242188 11.5625 10.195312 11.578125 C 10.152344 11.589844 10.105469 11.601562 10.0625 11.613281 C 9.648438 11.703125 9.34375 11.929688 9.164062 12.316406 C 9.050781 12.5625 8.980469 12.828125 8.878906 13.078125 C 8.851562 13.15625 8.863281 13.175781 8.949219 13.199219 C 9.03125 13.222656 9.117188 13.222656 9.203125 13.226562 C 9.300781 13.226562 9.398438 13.226562 9.492188 13.238281 C 9.71875 13.257812 9.878906 13.386719 10.003906 13.566406 C 10.109375 13.714844 10.160156 13.726562 10.316406 13.628906 C 10.578125 13.464844 10.746094 13.234375 10.777344 12.921875 C 10.820312 12.519531 10.730469 12.125 10.710938 11.726562 C 10.710938 11.695312 10.695312 11.683594 10.664062 11.683594 C 10.597656 11.679688 10.5625 11.710938 10.527344 11.761719 C 10.375 12.011719 10.183594 12.238281 10.019531 12.484375 C 9.992188 12.519531 9.96875 12.5625 9.914062 12.542969 C 9.867188 12.519531 9.875 12.476562 9.878906 12.433594 C 9.894531 12.113281 10.035156 11.855469 10.28125 11.652344 C 10.292969 11.644531 10.296875 11.632812 10.300781 11.625 Z M 10.214844 10.78125 C 10.242188 10.667969 10.242188 10.550781 10.203125 10.4375 C 10.183594 10.367188 10.144531 10.304688 10.085938 10.261719 C 9.84375 10.085938 9.597656 9.914062 9.324219 9.789062 C 9.226562 9.742188 9.125 9.722656 9.015625 9.726562 C 8.757812 9.730469 8.628906 9.851562 8.609375 10.109375 C 8.601562 10.230469 8.605469 10.355469 8.605469 10.472656 C 8.605469 10.707031 8.558594 10.921875 8.425781 11.117188 C 8.402344 11.152344 8.382812 11.1875 8.367188 11.222656 C 8.320312 11.320312 8.3125 11.425781 8.328125 11.53125 C 8.347656 11.679688 8.429688 11.746094 8.578125 11.742188 C 8.644531 11.742188 8.707031 11.730469 8.765625 11.710938 C 8.871094 11.683594 8.964844 11.640625 9.0625 11.597656 C 9.394531 11.460938 9.734375 11.363281 10.097656 11.390625 L 10.125 11.390625 C 10.152344 11.390625 10.167969 11.378906 10.167969 11.347656 C 10.167969 11.316406 10.164062 11.285156 10.167969 11.25 C 10.183594 11.175781 10.152344 11.132812 10.089844 11.089844 C 9.90625 10.957031 9.71875 10.835938 9.484375 10.804688 C 9.46875 10.804688 9.453125 10.800781 9.4375 10.792969 C 9.382812 10.769531 9.375 10.726562 9.421875 10.691406 C 9.46875 10.652344 9.53125 10.640625 9.589844 10.636719 C 9.765625 10.621094 9.933594 10.65625 10.097656 10.734375 C 10.132812 10.753906 10.160156 10.78125 10.210938 10.78125 Z M 25.164062 4.382812 C 25.164062 4.253906 25.113281 4.203125 24.988281 4.195312 C 24.925781 4.191406 24.859375 4.195312 24.796875 4.195312 C 24.503906 4.203125 24.339844 4.097656 24.238281 3.824219 C 24.195312 3.71875 24.179688 3.605469 24.15625 3.496094 C 24.125 3.339844 24.109375 3.335938 23.972656 3.421875 C 23.800781 3.527344 23.664062 3.671875 23.546875 3.832031 C 23.277344 4.1875 23.078125 4.585938 22.945312 5.015625 C 22.9375 5.039062 22.929688 5.0625 22.925781 5.085938 C 22.910156 5.140625 22.914062 5.183594 22.972656 5.203125 C 22.992188 5.210938 23 5.21875 23.015625 5.230469 C 23.132812 5.289062 23.132812 5.28125 23.175781 5.175781 C 23.300781 4.878906 23.515625 4.65625 23.789062 4.492188 C 23.855469 4.453125 23.925781 4.421875 24 4.40625 C 24.035156 4.398438 24.066406 4.394531 24.097656 4.402344 C 24.164062 4.421875 24.183594 4.480469 24.136719 4.535156 C 24.121094 4.550781 24.105469 4.558594 24.085938 4.570312 C 23.808594 4.804688 23.585938 5.089844 23.367188 5.375 C 23.367188 5.375 23.363281 5.382812 23.363281 5.382812 C 23.316406 5.441406 23.375 5.480469 23.386719 5.527344 C 23.398438 5.578125 23.4375 5.566406 23.472656 5.558594 C 23.550781 5.550781 23.625 5.539062 23.703125 5.535156 C 23.953125 5.515625 24.191406 5.449219 24.410156 5.339844 C 24.71875 5.183594 24.949219 4.957031 25.09375 4.640625 C 25.132812 4.5625 25.160156 4.476562 25.15625 4.386719 Z M 33.65625 11.558594 C 33.652344 11.554688 33.648438 11.542969 33.640625 11.542969 C 33.386719 11.519531 33.164062 11.601562 32.949219 11.722656 C 32.945312 11.722656 32.941406 11.726562 32.9375 11.730469 C 32.722656 11.96875 32.5625 12.234375 32.5 12.554688 C 32.464844 12.75 32.496094 12.796875 32.679688 12.867188 C 32.691406 12.871094 32.703125 12.875 32.710938 12.878906 C 32.960938 12.949219 33.132812 13.105469 33.238281 13.34375 C 33.308594 13.5 33.347656 13.507812 33.496094 13.414062 C 33.523438 13.398438 33.550781 13.378906 33.578125 13.359375 C 33.683594 13.269531 33.765625 13.160156 33.835938 13.039062 C 33.925781 12.894531 34.007812 12.746094 34.117188 12.613281 C 34.175781 12.542969 34.207031 12.464844 34.226562 12.375 C 34.28125 12.125 34.386719 11.910156 34.605469 11.761719 C 34.613281 11.753906 34.621094 11.742188 34.613281 11.730469 C 34.582031 11.714844 34.550781 11.726562 34.519531 11.730469 C 34.328125 11.757812 34.140625 11.800781 33.953125 11.859375 C 33.738281 11.929688 33.542969 12.03125 33.402344 12.21875 C 33.378906 12.257812 33.34375 12.320312 33.296875 12.292969 C 33.242188 12.265625 33.273438 12.199219 33.285156 12.148438 C 33.332031 11.949219 33.4375 11.773438 33.585938 11.632812 C 33.613281 11.613281 33.652344 11.597656 33.65625 11.558594 Z M 34.59375 10.445312 C 34.457031 10.226562 34.375 10.003906 34.257812 9.796875 C 34.164062 9.636719 34.058594 9.59375 33.878906 9.628906 C 33.820312 9.640625 33.761719 9.65625 33.710938 9.691406 C 33.480469 9.847656 33.21875 9.921875 32.949219 9.957031 C 32.84375 9.96875 32.742188 9.996094 32.648438 10.046875 C 32.484375 10.136719 32.429688 10.285156 32.492188 10.457031 C 32.527344 10.558594 32.589844 10.644531 32.664062 10.722656 C 32.84375 10.921875 33.058594 11.066406 33.308594 11.164062 C 33.527344 11.253906 33.753906 11.300781 33.988281 11.335938 C 34.011719 11.34375 34.042969 11.355469 34.070312 11.324219 C 33.972656 11.214844 33.875 11.097656 33.777344 10.988281 C 33.707031 10.910156 33.640625 10.824219 33.609375 10.722656 C 33.589844 10.671875 33.574219 10.617188 33.621094 10.574219 C 33.675781 10.53125 33.71875 10.574219 33.761719 10.601562 C 33.808594 10.636719 33.851562 10.671875 33.898438 10.707031 C 33.953125 10.742188 34.003906 10.777344 34.0625 10.808594 C 34.152344 10.851562 34.183594 10.84375 34.234375 10.761719 C 34.324219 10.625 34.410156 10.488281 34.59375 10.441406 Z M 11.578125 11.3125 C 11.574219 11.320312 11.570312 11.328125 11.566406 11.332031 C 11.59375 11.363281 11.621094 11.390625 11.648438 11.421875 C 11.789062 11.578125 11.933594 11.730469 12.074219 11.886719 C 12.089844 11.910156 12.117188 11.933594 12.097656 11.960938 C 12.078125 11.984375 12.054688 11.984375 12.03125 11.980469 C 11.949219 11.976562 11.875 11.945312 11.800781 11.910156 C 11.601562 11.808594 11.449219 11.65625 11.3125 11.484375 C 11.289062 11.453125 11.273438 11.40625 11.226562 11.402344 C 11.203125 11.421875 11.183594 11.449219 11.160156 11.472656 C 11.140625 11.492188 11.113281 11.515625 11.085938 11.53125 C 11.03125 11.5625 11.023438 11.605469 11.035156 11.664062 C 11.144531 12.207031 11.394531 12.664062 11.824219 13.019531 C 11.886719 13.070312 11.949219 13.121094 12.023438 13.15625 C 12.144531 13.21875 12.1875 13.210938 12.273438 13.105469 C 12.289062 13.082031 12.308594 13.0625 12.324219 13.039062 C 12.425781 12.902344 12.515625 12.757812 12.632812 12.632812 C 12.667969 12.597656 12.699219 12.566406 12.746094 12.542969 C 12.910156 12.460938 12.972656 12.289062 12.902344 12.117188 C 12.871094 12.042969 12.828125 11.980469 12.78125 11.921875 C 12.660156 11.769531 12.523438 11.628906 12.390625 11.488281 C 12.355469 11.449219 12.3125 11.4375 12.261719 11.433594 C 12.097656 11.425781 11.933594 11.402344 11.769531 11.363281 C 11.707031 11.347656 11.644531 11.332031 11.582031 11.316406 L 11.578125 11.316406 Z M 34.945312 11.792969 C 34.847656 11.839844 34.777344 11.886719 34.707031 11.941406 C 34.605469 12.023438 34.523438 12.121094 34.503906 12.25 C 34.484375 12.390625 34.449219 12.535156 34.453125 12.679688 C 34.457031 12.964844 34.472656 13.246094 34.515625 13.527344 C 34.527344 13.59375 34.542969 13.660156 34.570312 13.722656 C 34.597656 13.773438 34.632812 13.796875 34.691406 13.777344 C 34.710938 13.769531 34.738281 13.765625 34.757812 13.753906 C 34.976562 13.65625 35.203125 13.609375 35.441406 13.671875 C 35.53125 13.695312 35.609375 13.65625 35.664062 13.578125 C 35.707031 13.507812 35.738281 13.4375 35.761719 13.359375 C 35.796875 13.207031 35.804688 13.054688 35.792969 12.898438 C 35.777344 12.597656 35.667969 12.316406 35.578125 12.03125 C 35.523438 11.867188 35.398438 11.792969 35.257812 11.703125 C 35.199219 11.847656 35.175781 11.984375 35.175781 12.125 C 35.171875 12.3125 35.191406 12.5 35.203125 12.683594 C 35.207031 12.738281 35.234375 12.800781 35.167969 12.835938 C 35.128906 12.859375 35.085938 12.824219 35.042969 12.730469 C 34.9375 12.496094 34.890625 12.253906 34.910156 11.996094 C 34.914062 11.933594 34.929688 11.871094 34.945312 11.789062 Z M 35.203125 10.457031 C 35.242188 10.5 35.300781 10.511719 35.347656 10.542969 C 35.398438 10.574219 35.433594 10.65625 35.488281 10.640625 C 35.550781 10.625 35.574219 10.546875 35.617188 10.5 C 35.664062 10.445312 35.710938 10.386719 35.757812 10.332031 C 35.933594 10.121094 36.078125 9.894531 36.207031 9.65625 C 36.304688 9.476562 36.386719 9.285156 36.425781 9.078125 C 36.453125 8.925781 36.449219 8.773438 36.371094 8.628906 C 36.3125 8.523438 36.238281 8.496094 36.128906 8.546875 C 36.058594 8.582031 35.988281 8.625 35.917969 8.667969 C 35.75 8.769531 35.570312 8.808594 35.371094 8.785156 C 35.164062 8.757812 35.144531 8.777344 35.074219 8.976562 C 35.070312 8.988281 35.0625 8.996094 35.0625 9.007812 C 34.945312 9.449219 34.875 9.894531 34.898438 10.351562 C 34.902344 10.433594 34.917969 10.445312 35.003906 10.4375 C 35.058594 10.433594 35.0625 10.390625 35.078125 10.355469 C 35.199219 10.0625 35.351562 9.789062 35.546875 9.539062 C 35.566406 9.511719 35.59375 9.46875 35.628906 9.484375 C 35.671875 9.5 35.648438 9.546875 35.640625 9.582031 C 35.578125 9.859375 35.453125 10.113281 35.285156 10.34375 C 35.257812 10.378906 35.222656 10.410156 35.207031 10.457031 Z M 10.507812 10.242188 C 10.492188 10.179688 10.480469 10.148438 10.472656 10.109375 C 10.4375 9.949219 10.414062 9.785156 10.460938 9.617188 C 10.484375 9.539062 10.53125 9.488281 10.578125 9.5 C 10.644531 9.511719 10.648438 9.570312 10.660156 9.621094 C 10.667969 9.671875 10.675781 9.726562 10.679688 9.777344 C 10.695312 9.898438 10.710938 10.019531 10.730469 10.136719 C 10.734375 10.164062 10.722656 10.195312 10.761719 10.214844 C 10.769531 10.207031 10.78125 10.203125 10.789062 10.191406 C 10.796875 10.179688 10.804688 10.164062 10.808594 10.148438 C 10.851562 9.976562 10.949219 9.828125 11.035156 9.679688 C 11.136719 9.503906 11.21875 9.320312 11.277344 9.125 C 11.308594 9.023438 11.324219 8.917969 11.3125 8.8125 C 11.300781 8.703125 11.261719 8.664062 11.15625 8.636719 C 11.058594 8.613281 10.972656 8.628906 10.894531 8.691406 C 10.71875 8.828125 10.535156 8.835938 10.335938 8.753906 C 10.1875 8.695312 10.039062 8.644531 9.886719 8.597656 C 9.648438 8.527344 9.480469 8.65625 9.492188 8.902344 C 9.507812 9.261719 9.636719 9.5625 9.9375 9.777344 C 10.070312 9.871094 10.195312 9.972656 10.324219 10.074219 C 10.378906 10.117188 10.429688 10.164062 10.507812 10.234375 Z M 23.507812 5.839844 C 23.492188 5.839844 23.460938 5.84375 23.433594 5.847656 C 23.390625 5.851562 23.355469 5.867188 23.339844 5.910156 C 23.324219 5.953125 23.359375 5.976562 23.386719 6 C 23.523438 6.136719 23.675781 6.257812 23.839844 6.367188 C 23.859375 6.382812 23.886719 6.394531 23.910156 6.414062 C 23.945312 6.445312 23.9375 6.488281 23.886719 6.503906 C 23.824219 6.523438 23.757812 6.511719 23.699219 6.492188 C 23.511719 6.433594 23.351562 6.332031 23.234375 6.175781 C 23.199219 6.128906 23.171875 6.109375 23.121094 6.15625 C 23.085938 6.191406 23.042969 6.214844 23 6.238281 C 22.949219 6.261719 22.9375 6.292969 22.953125 6.351562 C 23.078125 6.839844 23.347656 7.226562 23.765625 7.503906 C 23.828125 7.546875 23.898438 7.582031 23.96875 7.609375 C 24.109375 7.660156 24.160156 7.640625 24.214844 7.503906 C 24.242188 7.4375 24.261719 7.367188 24.28125 7.296875 C 24.308594 7.195312 24.335938 7.09375 24.367188 6.992188 C 24.417969 6.84375 24.507812 6.71875 24.628906 6.621094 C 24.65625 6.601562 24.679688 6.582031 24.703125 6.558594 C 24.789062 6.480469 24.800781 6.410156 24.734375 6.3125 C 24.6875 6.234375 24.613281 6.183594 24.535156 6.144531 C 24.367188 6.0625 24.1875 6.015625 24.003906 5.976562 C 23.898438 5.953125 23.785156 5.941406 23.691406 5.886719 C 23.632812 5.855469 23.578125 5.847656 23.503906 5.847656 L 23.503906 5.839844 Z M 22.21875 5.59375 C 22.273438 5.519531 22.304688 5.445312 22.363281 5.40625 C 22.496094 5.3125 22.488281 5.207031 22.441406 5.074219 C 22.398438 4.945312 22.371094 4.808594 22.316406 4.679688 C 22.238281 4.5 22.101562 4.382812 21.910156 4.324219 C 21.824219 4.300781 21.808594 4.308594 21.773438 4.394531 C 21.753906 4.445312 21.738281 4.5 21.71875 4.554688 C 21.644531 4.753906 21.535156 4.832031 21.324219 4.828125 C 21.207031 4.828125 21.082031 4.816406 20.964844 4.8125 C 20.859375 4.8125 20.761719 4.820312 20.667969 4.859375 C 20.558594 4.902344 20.542969 4.945312 20.617188 5.035156 C 20.714844 5.15625 20.792969 5.289062 20.84375 5.433594 C 20.859375 5.472656 20.878906 5.507812 20.90625 5.539062 C 21.148438 5.753906 21.414062 5.929688 21.742188 5.980469 C 21.78125 5.988281 21.824219 5.996094 21.859375 5.976562 C 21.949219 5.925781 22.039062 5.871094 22.136719 5.816406 C 22.09375 5.761719 22.039062 5.730469 21.992188 5.695312 C 21.886719 5.617188 21.777344 5.539062 21.671875 5.457031 C 21.628906 5.421875 21.589844 5.371094 21.625 5.308594 C 21.65625 5.246094 21.714844 5.246094 21.773438 5.257812 C 21.886719 5.28125 21.976562 5.335938 22.0625 5.410156 C 22.121094 5.457031 22.164062 5.519531 22.21875 5.59375 Z M 22.703125 6.699219 C 22.707031 6.621094 22.695312 6.523438 22.6875 6.425781 C 22.683594 6.375 22.667969 6.355469 22.617188 6.355469 C 22.5 6.347656 22.394531 6.316406 22.304688 6.234375 C 22.277344 6.207031 22.253906 6.203125 22.21875 6.21875 C 22.109375 6.277344 21.992188 6.304688 21.871094 6.324219 C 21.828125 6.328125 21.789062 6.347656 21.761719 6.386719 C 21.574219 6.648438 21.40625 6.917969 21.308594 7.226562 C 21.292969 7.285156 21.277344 7.34375 21.277344 7.40625 C 21.277344 7.453125 21.289062 7.472656 21.34375 7.460938 C 21.394531 7.449219 21.449219 7.433594 21.507812 7.425781 C 21.722656 7.386719 21.886719 7.472656 21.988281 7.667969 C 22.011719 7.714844 22.027344 7.765625 22.050781 7.8125 C 22.089844 7.90625 22.097656 7.914062 22.1875 7.855469 C 22.367188 7.742188 22.503906 7.582031 22.585938 7.382812 C 22.675781 7.171875 22.710938 6.949219 22.703125 6.707031 Z M 35.554688 11.464844 C 35.550781 11.484375 35.558594 11.492188 35.570312 11.5 C 35.75 11.585938 35.882812 11.722656 36.019531 11.863281 C 36.21875 12.0625 36.445312 12.234375 36.695312 12.375 C 36.839844 12.460938 36.875 12.445312 36.890625 12.273438 C 36.917969 12.007812 37.003906 11.785156 37.203125 11.601562 C 37.34375 11.46875 37.339844 11.347656 37.21875 11.191406 C 37.132812 11.074219 37.015625 10.984375 36.890625 10.910156 C 36.792969 10.851562 36.695312 10.820312 36.578125 10.839844 C 36.496094 10.851562 36.410156 10.847656 36.324219 10.851562 C 36.1875 10.855469 36.050781 10.871094 35.917969 10.90625 C 35.820312 10.925781 35.734375 10.976562 35.664062 11.039062 C 35.628906 11.066406 35.625 11.105469 35.640625 11.140625 C 35.65625 11.175781 35.691406 11.152344 35.71875 11.148438 C 36.03125 11.09375 36.292969 11.195312 36.527344 11.386719 C 36.566406 11.417969 36.628906 11.457031 36.597656 11.511719 C 36.566406 11.566406 36.507812 11.515625 36.46875 11.5 C 36.164062 11.378906 35.859375 11.402344 35.554688 11.46875 Z M 9.839844 17.308594 C 9.832031 17.359375 9.832031 17.410156 9.820312 17.464844 C 9.804688 17.527344 9.789062 17.597656 9.710938 17.609375 C 9.625 17.621094 9.609375 17.546875 9.582031 17.488281 C 9.527344 17.351562 9.488281 17.210938 9.449219 17.070312 C 9.441406 17.046875 9.449219 17.011719 9.40625 17.007812 C 9.339844 17.054688 9.277344 17.101562 9.210938 17.148438 C 9.183594 17.167969 9.152344 17.1875 9.121094 17.15625 C 9.09375 17.125 9.109375 17.09375 9.125 17.066406 C 9.160156 16.996094 9.21875 16.945312 9.277344 16.898438 C 9.308594 16.871094 9.347656 16.859375 9.363281 16.816406 C 9.308594 16.785156 9.257812 16.761719 9.210938 16.730469 C 9.171875 16.707031 9.132812 16.707031 9.09375 16.71875 C 8.75 16.808594 8.519531 17.007812 8.457031 17.367188 C 8.449219 17.410156 8.4375 17.453125 8.433594 17.5 C 8.414062 17.667969 8.421875 17.6875 8.589844 17.691406 C 8.789062 17.699219 8.945312 17.789062 9.066406 17.941406 C 9.105469 17.988281 9.144531 18.035156 9.183594 18.082031 C 9.25 18.15625 9.324219 18.222656 9.417969 18.269531 C 9.578125 18.347656 9.703125 18.320312 9.816406 18.179688 C 9.859375 18.121094 9.890625 18.054688 9.898438 17.980469 C 9.921875 17.75 9.875 17.53125 9.835938 17.308594 Z M 33.851562 9.269531 C 33.898438 9.191406 33.902344 9.105469 33.933594 9.03125 C 34.003906 8.851562 34.074219 8.675781 34.136719 8.496094 C 34.242188 8.203125 34.292969 7.902344 34.273438 7.589844 C 34.257812 7.285156 34.183594 6.996094 34.027344 6.734375 C 33.964844 6.636719 33.9375 6.636719 33.863281 6.722656 C 33.746094 6.855469 33.675781 7.011719 33.640625 7.1875 C 33.605469 7.371094 33.601562 7.554688 33.605469 7.742188 C 33.621094 8.234375 33.707031 8.714844 33.808594 9.195312 C 33.8125 9.21875 33.8125 9.246094 33.851562 9.269531 Z M 6.921875 18.65625 C 6.984375 18.628906 7.011719 18.585938 7.039062 18.546875 C 7.234375 18.285156 7.410156 18.015625 7.566406 17.734375 C 7.742188 17.425781 7.859375 17.101562 7.925781 16.757812 C 7.976562 16.480469 8.007812 16.199219 8.085938 15.925781 C 8.085938 15.921875 8.082031 15.914062 8.078125 15.90625 C 8.058594 15.902344 8.046875 15.917969 8.039062 15.929688 C 7.804688 16.167969 7.589844 16.417969 7.417969 16.703125 C 7.113281 17.214844 6.960938 17.773438 6.894531 18.355469 C 6.882812 18.453125 6.902344 18.550781 6.917969 18.660156 Z M 9.925781 16.535156 L 9.941406 16.558594 C 9.988281 16.558594 10.03125 16.53125 10.074219 16.519531 C 10.28125 16.476562 10.40625 16.355469 10.496094 16.164062 C 10.636719 15.859375 10.59375 15.492188 10.351562 15.261719 C 10.273438 15.183594 10.203125 15.175781 10.105469 15.222656 C 10.015625 15.265625 9.953125 15.339844 9.898438 15.417969 C 9.84375 15.492188 9.800781 15.566406 9.746094 15.636719 C 9.660156 15.746094 9.546875 15.785156 9.410156 15.746094 C 9.339844 15.722656 9.265625 15.695312 9.195312 15.667969 C 9.128906 15.644531 9.078125 15.660156 9.03125 15.714844 C 8.871094 15.898438 8.902344 16.171875 9.109375 16.320312 C 9.265625 16.429688 9.382812 16.378906 9.410156 16.195312 C 9.421875 16.144531 9.425781 16.09375 9.433594 16.039062 C 9.441406 15.988281 9.46875 15.949219 9.523438 15.9375 C 9.582031 15.921875 9.625 15.945312 9.660156 15.988281 C 9.707031 16.042969 9.730469 16.105469 9.75 16.171875 C 9.761719 16.207031 9.757812 16.246094 9.796875 16.269531 C 9.878906 16.242188 9.949219 16.183594 10.023438 16.136719 C 10.058594 16.113281 10.089844 16.09375 10.128906 16.074219 C 10.152344 16.0625 10.175781 16.066406 10.195312 16.082031 C 10.222656 16.101562 10.222656 16.128906 10.210938 16.15625 C 10.1875 16.195312 10.164062 16.234375 10.136719 16.269531 C 10.070312 16.359375 9.996094 16.445312 9.925781 16.53125 Z M 35.140625 16.164062 C 35.148438 16.09375 35.15625 16.035156 35.160156 15.972656 C 35.175781 15.769531 35.164062 15.5625 35.144531 15.359375 C 35.097656 14.960938 35.035156 14.5625 34.894531 14.1875 C 34.859375 14.101562 34.796875 14.058594 34.707031 14.0625 C 34.683594 14.0625 34.65625 14.0625 34.636719 14.0625 C 34.585938 14.054688 34.5625 14.078125 34.550781 14.125 C 34.46875 14.40625 34.410156 14.6875 34.421875 14.984375 C 34.425781 15.183594 34.472656 15.378906 34.613281 15.53125 C 34.796875 15.726562 34.976562 15.921875 35.113281 16.152344 C 35.113281 16.152344 35.117188 16.152344 35.140625 16.164062 Z M 37.042969 18.121094 C 37.035156 18.167969 37.050781 18.191406 37.0625 18.214844 C 37.175781 18.46875 37.289062 18.726562 37.402344 18.980469 C 37.429688 19.039062 37.46875 19.082031 37.511719 19.128906 C 37.761719 19.386719 38.050781 19.589844 38.375 19.746094 C 38.457031 19.785156 38.539062 19.820312 38.625 19.863281 C 38.644531 19.816406 38.625 19.78125 38.617188 19.746094 C 38.519531 19.398438 38.355469 19.085938 38.101562 18.824219 C 37.804688 18.515625 37.429688 18.3125 37.042969 18.121094 Z M 33.222656 9.511719 C 33.21875 9.5 33.214844 9.488281 33.207031 9.480469 C 33.054688 9.316406 32.902344 9.152344 32.734375 9.007812 C 32.417969 8.742188 32.050781 8.613281 31.640625 8.59375 C 31.582031 8.589844 31.5 8.566406 31.46875 8.613281 C 31.433594 8.667969 31.5 8.730469 31.53125 8.785156 C 31.789062 9.210938 32.171875 9.457031 32.648438 9.582031 C 32.675781 9.585938 32.707031 9.585938 32.734375 9.582031 C 32.851562 9.558594 32.972656 9.546875 33.097656 9.542969 C 33.140625 9.539062 33.1875 9.546875 33.222656 9.511719 Z M 32.042969 7.050781 C 32.035156 7.066406 32.027344 7.078125 32.03125 7.089844 C 32.054688 7.371094 32.097656 7.644531 32.242188 7.890625 C 32.425781 8.191406 32.636719 8.472656 32.914062 8.695312 C 32.992188 8.757812 33.066406 8.828125 33.132812 8.90625 C 33.257812 9.050781 33.363281 9.207031 33.4375 9.386719 C 33.445312 9.402344 33.457031 9.425781 33.480469 9.414062 C 33.503906 9.40625 33.503906 9.382812 33.496094 9.363281 C 33.453125 9.253906 33.410156 9.144531 33.371094 9.035156 C 33.242188 8.65625 33.070312 8.300781 32.863281 7.964844 C 32.667969 7.652344 32.445312 7.367188 32.160156 7.132812 C 32.125 7.105469 32.089844 7.066406 32.042969 7.054688 Z M 7.582031 9.515625 C 7.382812 9.523438 7.167969 9.585938 6.984375 9.730469 C 6.847656 9.84375 6.851562 9.878906 7.003906 9.960938 C 7.371094 10.148438 7.765625 10.273438 8.167969 10.375 C 8.238281 10.394531 8.242188 10.390625 8.242188 10.316406 C 8.242188 10.175781 8.25 10.039062 8.277344 9.90625 C 8.289062 9.847656 8.351562 9.785156 8.308594 9.738281 C 8.277344 9.695312 8.207031 9.679688 8.152344 9.65625 C 8.089844 9.628906 8.03125 9.601562 7.972656 9.582031 C 7.855469 9.539062 7.738281 9.515625 7.582031 9.515625 Z M 31.160156 12.835938 C 30.90625 12.910156 30.6875 13.035156 30.496094 13.203125 C 30.1875 13.472656 29.929688 13.78125 29.722656 14.132812 C 29.625 14.292969 29.546875 14.464844 29.496094 14.652344 C 29.492188 14.683594 29.46875 14.710938 29.503906 14.746094 C 29.578125 14.71875 29.644531 14.667969 29.707031 14.621094 C 29.871094 14.492188 30.015625 14.347656 30.152344 14.195312 C 30.464844 13.851562 30.738281 13.472656 30.992188 13.085938 C 31.046875 13 31.101562 12.917969 31.160156 12.835938 Z M 8.886719 13.894531 C 8.578125 13.878906 8.292969 13.9375 8.015625 14.050781 C 7.507812 14.253906 7.070312 14.578125 6.65625 14.933594 C 6.644531 14.945312 6.632812 14.957031 6.640625 14.972656 C 6.664062 14.988281 6.6875 14.980469 6.710938 14.980469 C 6.984375 14.945312 7.25 14.871094 7.503906 14.765625 C 8.007812 14.558594 8.441406 14.242188 8.875 13.925781 C 8.878906 13.925781 8.878906 13.917969 8.886719 13.898438 Z M 39.867188 22.203125 C 39.867188 22.195312 39.867188 22.1875 39.863281 22.179688 C 39.847656 22.152344 39.832031 22.125 39.816406 22.097656 C 39.636719 21.800781 39.414062 21.539062 39.148438 21.3125 C 38.992188 21.179688 38.824219 21.058594 38.65625 20.941406 C 38.460938 20.800781 38.269531 20.648438 38.09375 20.480469 C 38.082031 20.46875 38.074219 20.445312 38.046875 20.460938 C 38.046875 20.492188 38.058594 20.515625 38.070312 20.539062 C 38.117188 20.648438 38.175781 20.75 38.234375 20.851562 C 38.625 21.484375 39.113281 22.003906 39.867188 22.203125 Z M 8.914062 9.257812 C 8.882812 9.136719 8.859375 9.042969 8.835938 8.949219 C 8.777344 8.710938 8.734375 8.46875 8.660156 8.230469 C 8.578125 7.964844 8.46875 7.714844 8.289062 7.5 C 8.195312 7.382812 8.082031 7.285156 7.941406 7.21875 C 7.910156 7.203125 7.875 7.191406 7.839844 7.183594 C 7.816406 7.179688 7.800781 7.191406 7.804688 7.21875 C 7.8125 7.253906 7.820312 7.289062 7.828125 7.324219 C 7.882812 7.5 7.949219 7.667969 8.023438 7.835938 C 8.222656 8.296875 8.460938 8.738281 8.777344 9.132812 C 8.808594 9.171875 8.84375 9.214844 8.910156 9.261719 L 8.914062 9.261719 Z M 32.195312 12.179688 C 32.175781 12.191406 32.167969 12.207031 32.160156 12.230469 C 32.003906 12.625 31.863281 13.023438 31.765625 13.441406 C 31.761719 13.472656 31.75 13.503906 31.761719 13.535156 C 31.804688 13.671875 31.859375 13.800781 31.957031 13.90625 C 32.046875 14.003906 32.125 14 32.214844 13.898438 C 32.273438 13.828125 32.324219 13.746094 32.371094 13.667969 C 32.453125 13.535156 32.539062 13.414062 32.660156 13.308594 C 32.679688 13.289062 32.707031 13.28125 32.703125 13.238281 C 32.613281 13.199219 32.519531 13.164062 32.425781 13.121094 C 32.253906 13.039062 32.160156 12.902344 32.136719 12.714844 C 32.117188 12.574219 32.136719 12.433594 32.175781 12.296875 C 32.1875 12.261719 32.21875 12.222656 32.199219 12.179688 Z M 20.722656 3.738281 C 20.722656 3.957031 20.796875 4.1875 20.902344 4.332031 C 20.929688 4.371094 20.957031 4.414062 21.011719 4.414062 C 21.09375 4.421875 21.175781 4.429688 21.253906 4.441406 C 21.316406 4.449219 21.351562 4.429688 21.363281 4.367188 C 21.390625 4.242188 21.429688 4.121094 21.511719 4.027344 C 21.535156 4 21.53125 3.976562 21.515625 3.949219 C 21.441406 3.804688 21.382812 3.652344 21.289062 3.523438 C 21.238281 3.453125 21.179688 3.390625 21.109375 3.34375 C 20.964844 3.25 20.859375 3.28125 20.785156 3.433594 C 20.738281 3.535156 20.726562 3.640625 20.722656 3.738281 Z M 8.140625 20.757812 C 8.199219 20.734375 8.21875 20.6875 8.242188 20.652344 C 8.332031 20.519531 8.40625 20.375 8.46875 20.226562 C 8.714844 19.652344 8.789062 19.03125 8.949219 18.433594 C 8.957031 18.410156 8.957031 18.382812 8.933594 18.367188 C 8.90625 18.351562 8.890625 18.378906 8.878906 18.398438 C 8.863281 18.417969 8.851562 18.4375 8.835938 18.457031 C 8.46875 18.996094 8.257812 19.59375 8.175781 20.238281 C 8.152344 20.40625 8.140625 20.574219 8.140625 20.757812 Z M 37.136719 16.011719 C 36.929688 15.214844 36.585938 14.5 35.960938 13.933594 C 35.945312 13.980469 35.972656 14.007812 35.980469 14.035156 C 36.023438 14.179688 36.078125 14.320312 36.113281 14.464844 C 36.171875 14.6875 36.261719 14.890625 36.378906 15.085938 C 36.527344 15.335938 36.683594 15.582031 36.878906 15.800781 C 36.953125 15.882812 37.03125 15.964844 37.136719 16.011719 Z M 34.332031 16.351562 C 34.3125 16.382812 34.304688 16.394531 34.304688 16.40625 C 34.210938 17.113281 34.304688 17.8125 34.460938 18.5 C 34.476562 18.574219 34.519531 18.585938 34.582031 18.535156 C 34.648438 18.480469 34.675781 18.40625 34.699219 18.328125 C 34.761719 18.132812 34.753906 17.9375 34.722656 17.738281 C 34.652344 17.269531 34.480469 16.828125 34.332031 16.347656 Z M 32.84375 17.449219 C 32.960938 17.433594 33.027344 17.375 33.089844 17.316406 C 33.3125 17.125 33.46875 16.886719 33.585938 16.621094 C 33.742188 16.277344 33.832031 15.910156 33.933594 15.546875 C 33.933594 15.535156 33.933594 15.527344 33.933594 15.5 C 33.675781 15.734375 33.46875 15.996094 33.3125 16.292969 C 33.117188 16.65625 32.96875 17.039062 32.847656 17.449219 Z M 30.566406 16.449219 C 30.902344 16.191406 31.390625 14.683594 31.265625 14.304688 C 31.257812 14.308594 31.25 14.316406 31.246094 14.320312 C 31.230469 14.34375 31.214844 14.363281 31.199219 14.390625 C 30.988281 14.726562 30.816406 15.082031 30.695312 15.460938 C 30.605469 15.742188 30.550781 16.023438 30.554688 16.320312 C 30.554688 16.363281 30.554688 16.40625 30.566406 16.449219 Z M 35.914062 17.546875 C 35.660156 18.003906 35.535156 19.90625 35.738281 20.230469 C 35.765625 20.199219 35.769531 20.15625 35.78125 20.117188 C 35.917969 19.660156 35.972656 19.191406 35.964844 18.714844 C 35.960938 18.34375 35.945312 17.972656 35.929688 17.601562 C 35.929688 17.582031 35.933594 17.558594 35.914062 17.546875 Z M 9.449219 20.992188 C 9.546875 20.578125 9.339844 19.40625 9.117188 19.078125 C 9.101562 19.097656 9.101562 19.125 9.097656 19.144531 C 9.0625 19.304688 9.042969 19.464844 8.984375 19.617188 C 8.914062 19.792969 8.933594 19.957031 9 20.132812 C 9.089844 20.375 9.179688 20.617188 9.320312 20.835938 C 9.351562 20.890625 9.382812 20.949219 9.449219 20.992188 Z M 38.238281 9.785156 C 38.144531 9.722656 38.066406 9.699219 37.988281 9.671875 C 37.574219 9.53125 37.160156 9.574219 36.742188 9.660156 C 36.722656 9.664062 36.703125 9.667969 36.691406 9.6875 C 36.632812 9.785156 36.574219 9.886719 36.507812 10.007812 C 37.105469 10.066406 37.664062 9.984375 38.234375 9.785156 Z M 10.125 8.3125 C 10.128906 8.316406 10.140625 8.320312 10.144531 8.324219 C 10.277344 8.144531 10.410156 7.96875 10.539062 7.785156 C 10.605469 7.691406 10.664062 7.585938 10.710938 7.480469 C 10.835938 7.214844 10.886719 6.933594 10.847656 6.640625 C 10.84375 6.597656 10.84375 6.550781 10.800781 6.496094 C 10.367188 7.035156 10.238281 7.671875 10.125 8.3125 Z M 34.960938 11.492188 C 35.167969 11.492188 35.328125 11.335938 35.332031 11.125 C 35.332031 10.898438 35.136719 10.703125 34.90625 10.707031 C 34.726562 10.707031 34.558594 10.898438 34.558594 11.105469 C 34.558594 11.316406 34.746094 11.492188 34.960938 11.492188 Z M 11.125 12.824219 C 11.117188 12.835938 11.113281 12.84375 11.109375 12.855469 C 11.078125 13.113281 11.015625 13.355469 10.871094 13.574219 C 10.847656 13.605469 10.855469 13.632812 10.878906 13.660156 C 10.945312 13.726562 11.015625 13.785156 11.101562 13.824219 C 11.25 13.890625 11.363281 13.867188 11.472656 13.746094 C 11.539062 13.675781 11.589844 13.589844 11.636719 13.507812 C 11.683594 13.429688 11.683594 13.429688 11.617188 13.371094 C 11.453125 13.230469 11.3125 13.070312 11.1875 12.894531 C 11.171875 12.867188 11.160156 12.832031 11.125 12.824219 Z M 32.601562 11.179688 C 32.539062 11.085938 32.46875 11.09375 32.386719 11.117188 C 31.820312 11.273438 31.3125 11.539062 30.832031 11.871094 C 30.820312 11.882812 30.804688 11.890625 30.816406 11.921875 C 31.492188 11.871094 32.0625 11.578125 32.601562 11.175781 Z M 12.816406 13.042969 C 12.746094 13.136719 12.691406 13.21875 12.636719 13.292969 C 12.601562 13.339844 12.621094 13.375 12.640625 13.417969 C 12.726562 13.5625 12.808594 13.714844 12.894531 13.859375 C 13.042969 14.105469 13.199219 14.34375 13.390625 14.558594 C 13.421875 14.589844 13.441406 14.632812 13.5 14.648438 C 13.375 14.070312 13.113281 13.558594 12.816406 13.042969 Z M 38.292969 24.046875 C 38.390625 23.953125 38.414062 23.839844 38.429688 23.722656 C 38.496094 23.082031 38.417969 22.449219 38.25 21.828125 C 38.246094 21.808594 38.242188 21.789062 38.210938 21.777344 C 38.222656 21.960938 38.222656 22.140625 38.21875 22.324219 C 38.214844 22.503906 38.207031 22.6875 38.203125 22.871094 C 38.199219 23.222656 38.203125 23.570312 38.25 23.921875 C 38.257812 23.960938 38.25 24.003906 38.292969 24.046875 Z M 10.351562 17.367188 L 10.351562 17.363281 C 10.414062 17.363281 10.480469 17.367188 10.546875 17.363281 C 10.691406 17.34375 10.738281 17.269531 10.707031 17.125 C 10.667969 16.929688 10.527344 16.832031 10.355469 16.761719 C 10.253906 16.71875 10.167969 16.753906 10.078125 16.796875 C 9.988281 16.84375 10.046875 16.832031 10.054688 16.859375 C 10.089844 17 10.101562 17.144531 10.117188 17.289062 C 10.121094 17.335938 10.140625 17.363281 10.195312 17.363281 C 10.246094 17.363281 10.296875 17.367188 10.351562 17.367188 Z M 10.453125 11.097656 C 10.453125 11.125 10.449219 11.183594 10.453125 11.238281 C 10.457031 11.339844 10.480469 11.363281 10.578125 11.355469 C 10.703125 11.339844 10.816406 11.300781 10.921875 11.242188 C 10.96875 11.21875 10.996094 11.179688 11.011719 11.132812 C 11.054688 10.996094 10.976562 10.773438 10.863281 10.695312 C 10.714844 10.589844 10.464844 10.679688 10.46875 10.867188 C 10.46875 10.933594 10.457031 11.003906 10.453125 11.097656 Z M 37.132812 20.898438 C 37.007812 21.304688 36.992188 22.328125 37.101562 22.511719 C 37.121094 22.507812 37.132812 22.492188 37.144531 22.476562 C 37.226562 22.355469 37.261719 22.21875 37.285156 22.078125 C 37.34375 21.679688 37.269531 21.296875 37.15625 20.917969 C 37.152344 20.90625 37.144531 20.898438 37.132812 20.898438 Z M 31.703125 14.121094 L 31.675781 14.121094 C 31.675781 14.164062 31.667969 14.210938 31.667969 14.253906 C 31.652344 14.574219 31.640625 14.894531 31.539062 15.203125 C 31.476562 15.386719 31.578125 15.511719 31.648438 15.65625 C 31.835938 15.148438 31.84375 14.636719 31.703125 14.125 Z M 23.078125 5.632812 C 23.078125 5.582031 22.953125 5.4375 22.886719 5.421875 C 22.871094 5.421875 22.855469 5.421875 22.839844 5.425781 C 22.699219 5.464844 22.535156 5.652344 22.523438 5.796875 C 22.511719 5.914062 22.578125 5.988281 22.695312 5.96875 C 22.835938 5.945312 22.953125 5.878906 23.035156 5.757812 C 23.058594 5.722656 23.074219 5.6875 23.074219 5.632812 Z M 10.738281 15.078125 C 10.753906 15.042969 10.761719 15.03125 10.765625 15.015625 C 10.835938 14.742188 10.914062 14.472656 11.035156 14.214844 C 11.042969 14.207031 11.042969 14.199219 11.046875 14.191406 C 11.050781 14.175781 11.046875 14.160156 11.03125 14.152344 C 11.015625 14.140625 11 14.152344 10.992188 14.164062 C 10.984375 14.175781 10.972656 14.191406 10.964844 14.203125 C 10.851562 14.378906 10.722656 14.535156 10.582031 14.6875 C 10.554688 14.714844 10.527344 14.746094 10.5 14.773438 C 10.480469 14.796875 10.480469 14.816406 10.503906 14.835938 C 10.597656 14.898438 10.664062 14.984375 10.742188 15.078125 Z M 9.777344 16.859375 C 9.757812 16.929688 9.789062 16.96875 9.816406 17.007812 C 9.8125 16.964844 9.824219 16.914062 9.777344 16.859375 Z M 9.777344 16.859375 " fill-opacity="1" fill-rule="nonzero"/></g><path fill="#ffffff" d="M 11.910156 21.597656 C 11.875 22.882812 11.84375 24.167969 11.789062 25.445312 C 11.730469 26.929688 11.597656 28.402344 11.390625 29.875 C 11.214844 31.136719 11.027344 32.398438 10.824219 33.65625 C 10.679688 34.535156 10.511719 35.40625 10.238281 36.261719 C 9.9375 37.199219 9.539062 38.089844 8.988281 38.910156 C 8.769531 39.238281 8.527344 39.546875 8.238281 39.816406 C 7.863281 40.167969 7.445312 40.441406 6.945312 40.578125 C 6.835938 40.609375 6.722656 40.628906 6.609375 40.632812 C 6.546875 40.632812 6.488281 40.632812 6.429688 40.605469 C 6.378906 40.582031 6.339844 40.546875 6.347656 40.484375 C 6.351562 40.425781 6.394531 40.40625 6.445312 40.394531 C 6.691406 40.335938 6.921875 40.238281 7.144531 40.117188 C 7.558594 39.894531 7.898438 39.589844 8.195312 39.230469 C 8.589844 38.757812 8.898438 38.230469 9.175781 37.683594 C 9.644531 36.765625 9.957031 35.792969 10.167969 34.785156 C 10.324219 34.035156 10.4375 33.273438 10.558594 32.511719 C 10.691406 31.648438 10.828125 30.785156 10.960938 29.921875 C 11.089844 29.074219 11.195312 28.21875 11.265625 27.367188 C 11.347656 26.382812 11.386719 25.402344 11.414062 24.417969 C 11.4375 23.640625 11.464844 22.863281 11.488281 22.085938 C 11.527344 20.820312 11.566406 19.554688 11.609375 18.285156 C 11.628906 17.6875 11.65625 17.089844 11.679688 16.492188 C 11.6875 16.332031 11.707031 16.175781 11.75 16.023438 C 11.753906 15.996094 11.761719 15.96875 11.777344 15.945312 C 11.796875 15.910156 11.824219 15.914062 11.835938 15.949219 C 11.851562 15.984375 11.859375 16.019531 11.867188 16.054688 C 11.894531 16.191406 11.914062 16.332031 11.914062 16.476562 C 11.945312 17.824219 11.960938 19.171875 11.9375 20.519531 C 11.933594 20.878906 11.917969 21.242188 11.910156 21.601562 Z M 11.910156 21.597656 " fill-opacity="1" fill-rule="nonzero"/><path fill="#ffffff" d="M 11.523438 40.636719 C 11.464844 40.636719 11.378906 40.628906 11.296875 40.582031 C 11.246094 40.550781 11.210938 40.511719 11.210938 40.449219 C 11.210938 40.382812 11.257812 40.351562 11.3125 40.328125 C 11.34375 40.316406 11.375 40.304688 11.40625 40.296875 C 11.691406 40.214844 11.953125 40.082031 12.203125 39.925781 C 12.3125 39.859375 12.417969 39.792969 12.527344 39.730469 C 12.570312 39.703125 12.617188 39.679688 12.671875 39.671875 C 12.78125 39.65625 12.835938 39.71875 12.796875 39.820312 C 12.789062 39.847656 12.773438 39.878906 12.75 39.902344 C 12.535156 40.152344 12.296875 40.378906 12 40.527344 C 11.863281 40.597656 11.714844 40.636719 11.527344 40.636719 Z M 11.523438 40.636719 " fill-opacity="1" fill-rule="nonzero"/><path fill="#ffffff" d="M 34.058594 28.859375 C 34.058594 29.515625 34.074219 30.171875 34.105469 30.828125 C 34.140625 31.398438 34.214844 31.964844 34.28125 32.53125 C 34.394531 33.488281 34.640625 34.421875 34.847656 35.363281 C 35.03125 36.21875 35.300781 37.042969 35.65625 37.84375 C 35.90625 38.410156 36.191406 38.960938 36.554688 39.464844 C 36.726562 39.703125 36.921875 39.917969 37.132812 40.121094 C 37.34375 40.320312 37.585938 40.453125 37.878906 40.503906 C 38.285156 40.578125 38.679688 40.707031 39.066406 40.851562 C 39.117188 40.871094 39.171875 40.890625 39.210938 40.933594 C 39.253906 40.988281 39.246094 41.03125 39.183594 41.0625 C 39.125 41.089844 39.066406 41.082031 39.003906 41.078125 C 38.726562 41.058594 38.445312 41.03125 38.171875 40.996094 C 38.023438 40.976562 37.878906 40.960938 37.738281 40.9375 C 37.480469 40.898438 37.25 40.796875 37.042969 40.636719 C 36.8125 40.460938 36.617188 40.253906 36.4375 40.03125 C 36.019531 39.523438 35.691406 38.960938 35.398438 38.378906 C 35.035156 37.648438 34.765625 36.886719 34.578125 36.097656 C 34.367188 35.21875 34.164062 34.339844 33.976562 33.457031 C 33.816406 32.714844 33.746094 31.960938 33.710938 31.203125 C 33.675781 30.363281 33.683594 29.527344 33.742188 28.691406 C 33.78125 28.144531 33.832031 27.601562 33.960938 27.070312 C 33.980469 26.988281 34.003906 26.910156 34.035156 26.835938 C 34.050781 26.808594 34.066406 26.769531 34.105469 26.777344 C 34.144531 26.789062 34.136719 26.832031 34.132812 26.859375 C 34.121094 27.105469 34.105469 27.355469 34.097656 27.597656 C 34.085938 28.019531 34.074219 28.441406 34.0625 28.863281 L 34.058594 28.863281 Z M 34.058594 28.859375 " fill-opacity="1" fill-rule="nonzero"/></svg>