<svg xmlns="http://www.w3.org/2000/svg" xmlns:xlink="http://www.w3.org/1999/xlink" width="60" zoomAndPan="magnify" viewBox="0 0 45 44.999999" height="60" preserveAspectRatio="xMidYMid meet" version="1.0"><defs><clipPath id="2efe1e1e97"><path d="M 4.0625 3.246094 L 40.8125 3.246094 L 40.8125 41.496094 L 4.0625 41.496094 Z M 4.0625 3.246094 " clip-rule="nonzero"/></clipPath></defs><rect x="-4.5" width="54" fill="#ffffff" y="-4.5" height="53.999999" fill-opacity="1"/><rect x="-4.5" width="54" fill="#ed1173" y="-4.5" height="53.999999" fill-opacity="1"/><g clip-path="url(#2efe1e1e97)"><path fill="#ffffff" d="M 25.933594 5.851562 C 27.878906 6.210938 29.472656 7.058594 30.941406 8.167969 C 33.578125 10.160156 35.410156 12.695312 36.242188 15.921875 C 36.457031 16.75 36.652344 17.574219 36.714844 18.421875 C 36.734375 18.683594 36.910156 18.792969 37.082031 18.972656 C 37.140625 18.667969 37.023438 18.351562 37.28125 18.09375 C 37.527344 17.847656 37.84375 17.824219 38.132812 17.71875 C 38.304688 17.65625 38.414062 17.644531 38.460938 17.914062 C 38.640625 18.886719 38.59375 19.023438 37.679688 19.371094 C 37.558594 19.421875 37.523438 19.453125 37.527344 19.570312 C 37.527344 19.714844 37.621094 19.703125 37.722656 19.730469 C 38.453125 19.894531 38.667969 20.214844 38.523438 20.941406 C 38.492188 21.117188 38.539062 21.199219 38.648438 21.339844 C 39.003906 21.769531 39.128906 22.507812 38.523438 22.875 C 38.375 22.964844 38.347656 23.039062 38.378906 23.226562 C 38.480469 23.796875 38.148438 24.203125 37.589844 24.273438 C 37.492188 24.28125 37.3125 24.195312 37.332031 24.398438 C 37.34375 24.519531 37.472656 24.566406 37.605469 24.570312 C 38.703125 24.628906 38.800781 24.730469 38.871094 25.855469 C 38.886719 26.078125 38.828125 26.183594 38.566406 26.140625 C 37.585938 25.980469 37.476562 25.867188 37.359375 24.773438 C 37.359375 25.386719 37.339844 26 37.363281 26.613281 C 37.40625 27.835938 37.460938 29.0625 37.523438 30.285156 C 37.675781 33.109375 37.785156 35.933594 38.621094 38.664062 C 38.769531 39.152344 39.007812 39.585938 39.300781 39.992188 C 39.484375 40.242188 39.707031 40.433594 40.054688 40.410156 C 40.3125 40.390625 40.488281 40.519531 40.492188 40.78125 C 40.496094 41.058594 40.351562 41.257812 40.058594 41.308594 C 39.734375 41.367188 39.417969 41.269531 39.117188 41.191406 C 38.472656 41.023438 37.851562 41.089844 37.25 41.328125 C 36.527344 41.605469 35.84375 41.597656 35.1875 41.1875 C 34.804688 40.945312 34.429688 41.003906 34.03125 41.113281 C 33.171875 41.359375 32.722656 41.070312 32.570312 40.207031 C 32.335938 38.929688 32.550781 37.660156 32.625 36.394531 C 32.726562 34.792969 32.976562 33.203125 33.1875 31.613281 C 33.367188 30.203125 33.5625 28.796875 33.742188 27.386719 C 33.867188 26.429688 33.976562 25.464844 34.082031 24.5 C 34.09375 24.398438 34.15625 24.273438 33.929688 24.214844 C 33.089844 23.988281 32.976562 23.804688 33.089844 22.921875 C 33.113281 22.738281 33.175781 22.628906 32.925781 22.511719 C 32.578125 22.351562 32.511719 21.953125 32.523438 21.605469 C 32.542969 21.257812 32.714844 20.933594 33.078125 20.847656 C 33.398438 20.769531 33.519531 20.636719 33.488281 20.308594 C 33.464844 20.042969 33.585938 19.773438 33.824219 19.675781 C 34.175781 19.53125 34.121094 19.28125 34.074219 19.023438 C 33.886719 18.054688 33.878906 18.070312 32.886719 18.003906 C 30.195312 17.820312 27.785156 17 25.960938 14.882812 C 24.929688 13.675781 24.363281 12.230469 23.804688 10.777344 C 23.664062 10.421875 23.542969 10.058594 23.40625 9.703125 C 23.273438 9.375 23.039062 9.332031 22.816406 9.570312 C 22.398438 10.023438 21.816406 10.082031 21.394531 9.660156 C 21.21875 9.484375 21.125 9.417969 20.859375 9.503906 C 20.324219 9.671875 20 9.4375 19.6875 8.726562 C 19.34375 9.609375 18.6875 9.746094 17.878906 9.582031 C 17.734375 9.550781 17.617188 9.476562 17.667969 9.394531 C 17.902344 9.050781 17.789062 8.601562 18.050781 8.277344 C 18.324219 7.9375 18.679688 7.863281 19.082031 7.945312 C 19.175781 7.964844 19.296875 8.140625 19.34375 7.914062 C 19.371094 7.777344 19.351562 7.675781 19.1875 7.59375 C 18.992188 7.496094 18.84375 7.554688 18.667969 7.613281 C 16.816406 8.195312 15.371094 9.375 14.128906 10.8125 C 12.585938 12.601562 11.589844 14.675781 11.140625 17 C 11.082031 17.292969 11.046875 17.59375 10.984375 17.886719 C 10.894531 18.3125 10.78125 18.691406 11.4375 18.796875 C 11.734375 18.847656 11.898438 19.207031 11.898438 19.511719 C 11.898438 19.761719 11.964844 19.851562 12.199219 19.921875 C 12.851562 20.121094 13.007812 21.066406 12.453125 21.546875 C 12.242188 21.730469 12.207031 21.851562 12.378906 22.058594 C 12.828125 22.597656 12.378906 23.4375 11.703125 23.535156 C 11.410156 23.578125 11.335938 23.679688 11.273438 23.953125 C 11.125 24.585938 10.851562 24.734375 10.179688 24.613281 C 10.59375 25.839844 10.894531 27.074219 11.132812 28.320312 C 11.410156 29.742188 11.621094 31.179688 11.800781 32.621094 C 11.964844 33.949219 12.167969 35.273438 12.261719 36.605469 C 12.34375 37.738281 12.488281 38.875 12.304688 40.023438 C 12.148438 41.027344 11.570312 41.414062 10.597656 41.085938 C 10.289062 40.980469 10.0625 41.027344 9.808594 41.210938 C 9.34375 41.542969 8.828125 41.742188 8.261719 41.503906 C 7.339844 41.125 6.402344 41.460938 5.472656 41.417969 C 5.097656 41.398438 4.734375 41.359375 4.429688 41.140625 C 4.152344 40.9375 4.0625 40.632812 4.382812 40.445312 C 5.273438 39.914062 5.726562 39.054688 6.132812 38.175781 C 6.832031 36.667969 7.171875 35.050781 7.363281 33.40625 C 7.570312 31.613281 7.761719 29.820312 7.953125 28.019531 C 8.070312 26.851562 8.167969 25.6875 8.269531 24.519531 C 8.273438 24.441406 8.25 24.359375 8.242188 24.285156 C 8.058594 24.261719 8.078125 24.382812 8.066406 24.480469 C 7.996094 25.199219 7.363281 25.734375 6.660156 25.675781 C 6.578125 25.671875 6.503906 25.667969 6.476562 25.554688 C 6.320312 24.953125 6.597656 24.15625 7.070312 23.8125 C 7.183594 23.730469 7.445312 23.667969 7.40625 23.597656 C 7.285156 23.386719 7.277344 23.105469 7.050781 22.960938 C 6.390625 22.527344 6.308594 22.300781 6.648438 21.625 C 6.722656 21.476562 6.664062 21.441406 6.601562 21.339844 C 6.234375 20.738281 6.40625 20.132812 7.03125 19.84375 C 7.117188 19.800781 7.234375 19.816406 7.246094 19.679688 C 7.265625 19.511719 7.113281 19.511719 7.019531 19.453125 C 6.40625 19.082031 6.230469 17.96875 6.714844 17.492188 C 6.753906 17.453125 6.835938 17.417969 6.890625 17.429688 C 7.460938 17.53125 7.933594 18.085938 8.035156 18.726562 C 8.179688 17.960938 8.28125 17.179688 8.472656 16.421875 C 9.84375 11.007812 13.183594 7.484375 18.5625 5.910156 C 19.011719 5.78125 19.40625 5.316406 19.453125 4.832031 C 19.496094 4.386719 19.789062 4.085938 20.246094 4.101562 C 20.492188 4.105469 20.585938 4.015625 20.714844 3.835938 C 21.058594 3.324219 21.582031 3.25 22.117188 3.582031 C 22.207031 3.640625 22.238281 3.789062 22.441406 3.691406 C 23.324219 3.273438 23.882812 3.527344 24.191406 4.464844 C 24.230469 4.574219 24.207031 4.710938 24.378906 4.691406 C 24.953125 4.625 25.078125 5.035156 25.1875 5.449219 C 25.222656 5.574219 25.164062 5.742188 25.382812 5.695312 C 25.613281 5.644531 25.414062 5.511719 25.410156 5.425781 C 25.394531 5.121094 25.464844 4.863281 25.734375 4.6875 C 26 4.503906 26.292969 4.550781 26.558594 4.625 C 26.839844 4.699219 26.59375 4.933594 26.605469 5.089844 C 26.65625 5.480469 26.46875 5.757812 25.933594 5.851562 Z M 25.269531 7.886719 C 25.851562 7.65625 26.019531 7.757812 26.128906 8.390625 C 26.148438 8.5 26.183594 8.617188 26.230469 8.71875 C 27.195312 10.816406 28.570312 12.570312 30.503906 13.859375 C 31.367188 14.433594 32.289062 14.871094 33.382812 15.023438 C 32.722656 13.410156 31.78125 12.070312 30.648438 10.839844 C 29.257812 9.335938 27.640625 8.195312 25.699219 7.511719 C 25.285156 7.367188 25.132812 7.433594 25.269531 7.886719 Z M 25.269531 7.886719 " fill-opacity="1" fill-rule="nonzero"/></g></svg>