<svg xmlns="http://www.w3.org/2000/svg" xmlns:xlink="http://www.w3.org/1999/xlink" width="60" zoomAndPan="magnify" viewBox="0 0 45 44.999999" height="60" preserveAspectRatio="xMidYMid meet" version="1.0"><defs><clipPath id="61ac150043"><path d="M 3.316406 3.316406 L 41.566406 3.316406 L 41.566406 41.566406 L 3.316406 41.566406 Z M 3.316406 3.316406 " clip-rule="nonzero"/></clipPath></defs><rect x="-4.5" width="54" fill="#ffffff" y="-4.5" height="53.999999" fill-opacity="1"/><rect x="-4.5" width="54" fill="#ed1173" y="-4.5" height="53.999999" fill-opacity="1"/><g clip-path="url(#61ac150043)"><path fill="#ffffff" d="M 40.605469 4.292969 C 39.957031 3.691406 39.070312 3.316406 38.09375 3.316406 L 10.613281 3.316406 C 9.636719 3.316406 8.75 3.691406 8.101562 4.296875 C 7.445312 4.910156 7.035156 5.757812 7.035156 6.695312 L 7.035156 35.828125 L 3.9375 35.828125 C 3.59375 35.828125 3.316406 36.105469 3.316406 36.445312 L 3.316406 37.171875 C 3.316406 38.417969 3.863281 39.546875 4.738281 40.367188 C 5.601562 41.171875 6.792969 41.671875 8.101562 41.671875 L 30.96875 41.671875 C 32.273438 41.671875 33.464844 41.171875 34.328125 40.367188 C 35.207031 39.546875 35.75 38.417969 35.75 37.171875 L 35.75 11.53125 L 41.054688 11.53125 C 41.394531 11.53125 41.671875 11.253906 41.671875 10.910156 L 41.671875 6.695312 C 41.671875 5.757812 41.261719 4.910156 40.605469 4.292969 Z M 8.101562 40.4375 C 7.117188 40.4375 6.222656 40.0625 5.578125 39.460938 C 4.949219 38.871094 4.554688 38.0625 4.554688 37.171875 L 4.554688 37.066406 L 26.1875 37.066406 L 26.1875 37.171875 C 26.1875 38.417969 26.730469 39.546875 27.609375 40.367188 C 27.632812 40.390625 27.660156 40.414062 27.6875 40.4375 Z M 34.515625 37.171875 C 34.515625 38.0625 34.121094 38.871094 33.488281 39.460938 C 32.84375 40.0625 31.953125 40.4375 30.96875 40.4375 C 29.984375 40.4375 29.09375 40.0625 28.449219 39.460938 C 27.816406 38.871094 27.421875 38.0625 27.421875 37.171875 L 27.421875 36.445312 C 27.421875 36.105469 27.144531 35.828125 26.804688 35.828125 L 8.269531 35.828125 L 8.269531 6.695312 C 8.269531 6.117188 8.527344 5.585938 8.941406 5.199219 C 9.367188 4.800781 9.960938 4.554688 10.613281 4.554688 L 35.332031 4.554688 C 35.304688 4.585938 35.273438 4.621094 35.25 4.652344 C 35.246094 4.65625 35.242188 4.660156 35.238281 4.664062 C 35.207031 4.707031 35.171875 4.746094 35.144531 4.789062 C 35.132812 4.804688 35.121094 4.820312 35.113281 4.832031 C 35.09375 4.859375 35.074219 4.890625 35.054688 4.917969 C 35.042969 4.933594 35.03125 4.953125 35.019531 4.96875 C 35.003906 4.996094 34.988281 5.023438 34.96875 5.050781 C 34.957031 5.070312 34.949219 5.089844 34.9375 5.109375 C 34.921875 5.136719 34.90625 5.164062 34.890625 5.1875 C 34.882812 5.207031 34.871094 5.226562 34.863281 5.246094 C 34.847656 5.273438 34.835938 5.304688 34.820312 5.332031 C 34.8125 5.351562 34.800781 5.371094 34.792969 5.390625 C 34.78125 5.421875 34.765625 5.457031 34.75 5.488281 C 34.746094 5.503906 34.738281 5.519531 34.730469 5.535156 C 34.714844 5.582031 34.695312 5.632812 34.679688 5.679688 C 34.675781 5.695312 34.671875 5.710938 34.664062 5.726562 C 34.652344 5.761719 34.644531 5.796875 34.632812 5.832031 C 34.625 5.851562 34.621094 5.871094 34.617188 5.890625 C 34.609375 5.921875 34.601562 5.953125 34.59375 5.984375 C 34.589844 6.007812 34.582031 6.027344 34.578125 6.050781 C 34.570312 6.082031 34.566406 6.113281 34.5625 6.144531 C 34.558594 6.164062 34.554688 6.1875 34.550781 6.210938 C 34.546875 6.242188 34.542969 6.273438 34.535156 6.304688 C 34.535156 6.328125 34.53125 6.347656 34.527344 6.371094 C 34.523438 6.40625 34.523438 6.441406 34.519531 6.476562 C 34.519531 6.492188 34.519531 6.511719 34.515625 6.53125 C 34.515625 6.582031 34.511719 6.632812 34.511719 6.683594 C 34.511719 6.6875 34.511719 6.691406 34.511719 6.695312 L 34.511719 10.910156 C 34.511719 10.910156 34.511719 10.914062 34.511719 10.914062 L 34.511719 37.171875 Z M 40.4375 10.292969 L 35.75 10.292969 L 35.75 6.695312 C 35.75 6.113281 36.007812 5.585938 36.421875 5.199219 C 36.847656 4.800781 37.441406 4.554688 38.09375 4.554688 C 38.746094 4.554688 39.339844 4.800781 39.765625 5.195312 C 40.179688 5.582031 40.4375 6.113281 40.4375 6.695312 Z M 40.4375 10.292969 " fill-opacity="1" fill-rule="nonzero"/></g><path fill="#ffffff" d="M 15.425781 14.628906 C 16.703125 16.914062 19.4375 18.796875 21.035156 19.898438 L 21.117188 19.957031 C 21.335938 20.109375 21.621094 20.097656 21.828125 19.949219 L 21.902344 19.898438 C 23.5 18.796875 26.234375 16.914062 27.511719 14.628906 L 27.648438 14.371094 L 27.667969 14.324219 C 28.25 13.140625 28.332031 12.003906 28.078125 11.050781 C 27.8125 10.050781 27.179688 9.25 26.359375 8.792969 L 26.21875 8.71875 C 25.378906 8.300781 24.371094 8.222656 23.359375 8.625 C 22.707031 8.882812 22.0625 9.339844 21.46875 10.027344 C 20.871094 9.339844 20.226562 8.882812 19.578125 8.625 C 18.566406 8.222656 17.554688 8.300781 16.71875 8.71875 L 16.574219 8.792969 C 15.753906 9.25 15.121094 10.050781 14.855469 11.050781 C 14.597656 12.015625 14.6875 13.167969 15.285156 14.371094 C 15.320312 14.4375 15.367188 14.523438 15.425781 14.628906 Z M 16.050781 11.363281 C 16.226562 10.699219 16.640625 10.167969 17.179688 9.867188 L 17.265625 9.820312 C 17.800781 9.550781 18.457031 9.507812 19.121094 9.769531 C 19.742188 10.015625 20.378906 10.53125 20.949219 11.382812 C 20.996094 11.449219 21.054688 11.511719 21.125 11.558594 C 21.40625 11.746094 21.789062 11.671875 21.980469 11.390625 C 22.554688 10.535156 23.191406 10.019531 23.8125 9.769531 C 24.476562 9.507812 25.132812 9.554688 25.667969 9.820312 L 25.757812 9.871094 C 26.292969 10.171875 26.710938 10.699219 26.886719 11.367188 C 27.066406 12.054688 27 12.886719 26.566406 13.777344 C 26.519531 13.859375 26.480469 13.945312 26.433594 14.027344 C 25.359375 15.949219 23 17.640625 21.46875 18.699219 C 19.9375 17.640625 17.578125 15.949219 16.503906 14.027344 L 16.394531 13.820312 C 15.9375 12.910156 15.863281 12.0625 16.050781 11.363281 Z M 16.050781 11.363281 " fill-opacity="1" fill-rule="nonzero"/><path fill="#ffffff" d="M 12.527344 22.433594 L 12.519531 22.433594 C 12.179688 22.433594 11.902344 22.710938 11.902344 23.050781 C 11.902344 23.394531 12.179688 23.671875 12.519531 23.671875 L 12.527344 23.671875 C 12.867188 23.671875 13.144531 23.394531 13.144531 23.050781 C 13.144531 22.710938 12.867188 22.433594 12.527344 22.433594 Z M 12.527344 22.433594 " fill-opacity="1" fill-rule="nonzero"/><path fill="#ffffff" d="M 30.265625 22.433594 L 15.621094 22.433594 C 15.28125 22.433594 15.003906 22.710938 15.003906 23.050781 C 15.003906 23.394531 15.28125 23.671875 15.621094 23.671875 L 30.265625 23.671875 C 30.605469 23.671875 30.882812 23.394531 30.882812 23.050781 C 30.882812 22.710938 30.605469 22.433594 30.265625 22.433594 Z M 30.265625 22.433594 " fill-opacity="1" fill-rule="nonzero"/><path fill="#ffffff" d="M 30.265625 25.527344 L 15.621094 25.527344 C 15.28125 25.527344 15.003906 25.804688 15.003906 26.144531 C 15.003906 26.484375 15.28125 26.761719 15.621094 26.761719 L 30.265625 26.761719 C 30.605469 26.761719 30.882812 26.484375 30.882812 26.144531 C 30.882812 25.804688 30.605469 25.527344 30.265625 25.527344 Z M 30.265625 25.527344 " fill-opacity="1" fill-rule="nonzero"/><path fill="#ffffff" d="M 12.527344 25.527344 L 12.519531 25.527344 C 12.179688 25.527344 11.902344 25.804688 11.902344 26.144531 C 11.902344 26.484375 12.179688 26.761719 12.519531 26.761719 L 12.527344 26.761719 C 12.867188 26.761719 13.144531 26.484375 13.144531 26.144531 C 13.144531 25.804688 12.867188 25.527344 12.527344 25.527344 Z M 12.527344 25.527344 " fill-opacity="1" fill-rule="nonzero"/><path fill="#ffffff" d="M 30.265625 28.621094 L 15.621094 28.621094 C 15.28125 28.621094 15.003906 28.898438 15.003906 29.238281 C 15.003906 29.578125 15.28125 29.855469 15.621094 29.855469 L 30.265625 29.855469 C 30.605469 29.855469 30.882812 29.578125 30.882812 29.238281 C 30.882812 28.898438 30.605469 28.621094 30.265625 28.621094 Z M 30.265625 28.621094 " fill-opacity="1" fill-rule="nonzero"/><path fill="#ffffff" d="M 12.527344 28.621094 L 12.519531 28.621094 C 12.179688 28.621094 11.902344 28.898438 11.902344 29.238281 C 11.902344 29.578125 12.179688 29.855469 12.519531 29.855469 L 12.527344 29.855469 C 12.867188 29.855469 13.144531 29.578125 13.144531 29.238281 C 13.144531 28.898438 12.867188 28.621094 12.527344 28.621094 Z M 12.527344 28.621094 " fill-opacity="1" fill-rule="nonzero"/><path fill="#ffffff" d="M 30.265625 31.710938 L 15.621094 31.710938 C 15.28125 31.710938 15.003906 31.988281 15.003906 32.332031 C 15.003906 32.671875 15.28125 32.949219 15.621094 32.949219 L 30.265625 32.949219 C 30.605469 32.949219 30.882812 32.671875 30.882812 32.332031 C 30.882812 31.988281 30.605469 31.710938 30.265625 31.710938 Z M 30.265625 31.710938 " fill-opacity="1" fill-rule="nonzero"/><path fill="#ffffff" d="M 12.527344 31.710938 L 12.519531 31.710938 C 12.179688 31.710938 11.902344 31.988281 11.902344 32.332031 C 11.902344 32.671875 12.179688 32.949219 12.519531 32.949219 L 12.527344 32.949219 C 12.867188 32.949219 13.144531 32.671875 13.144531 32.332031 C 13.144531 31.988281 12.867188 31.710938 12.527344 31.710938 Z M 12.527344 31.710938 " fill-opacity="1" fill-rule="nonzero"/></svg>